<svg width="100" height="100" viewBox="0 0 100 100" fill="none" xmlns="http://www.w3.org/2000/svg">
<rect width="100" height="100" rx="50" fill="white" fill-opacity="0.6"/>
<path fill-rule="evenodd" clip-rule="evenodd" d="M48.8745 25.5334C47.7178 24.3897 45.8526 24.3897 44.6959 25.5334C43.526 26.69 43.5259 28.575 44.6959 29.7318L50.0002 34.9764L55.3044 29.7318C56.4743 28.5752 56.4744 26.6902 55.3045 25.5334C54.1477 24.3897 52.2825 24.3897 51.1258 25.5334L51.1014 25.5575C50.8109 25.8447 50.4142 26.0064 50.0001 26.0064C49.5861 26.0064 49.1894 25.8447 48.8989 25.5575L48.8745 25.5334ZM50.0002 22.5747C52.3426 21.1277 55.4719 21.4103 57.507 23.4225C59.8613 25.7503 59.8614 29.515 57.507 31.8428C57.507 31.8428 57.507 31.8428 57.507 31.8428L51.1014 38.1762C50.8109 38.4635 50.4142 38.6252 50.0002 38.6252C49.5861 38.6252 49.1894 38.4635 48.8989 38.1762L42.4933 31.8428C40.139 29.5149 40.1389 25.7502 42.4934 23.4224C44.5285 21.4102 47.6577 21.1277 50.0002 22.5747Z" fill="#D9A479"/>
<path fill-rule="evenodd" clip-rule="evenodd" d="M27.3432 48.1132C26.6716 47.3793 26.1282 46.5334 25.7411 45.6093C25.0762 44.0222 24.9022 42.2758 25.2412 40.591C25.5801 38.9062 26.4168 37.3585 27.6453 36.1438C28.8738 34.9291 30.4391 34.1019 32.1431 33.7667C33.8471 33.4316 35.6134 33.6036 37.2186 34.261C38.8237 34.9184 40.1957 36.0317 41.1609 37.46C42.1262 38.8883 42.6414 40.5676 42.6414 42.2855C42.6386 44.5882 41.7122 46.7958 40.0654 48.4241C38.4186 50.0524 36.1858 50.9683 33.8569 50.9711L33.8426 50.9711H31.8668C30.2108 50.9732 28.6232 51.6245 27.4523 52.7823C26.2813 53.9401 25.6225 55.5098 25.6204 57.1472V57.5902C25.6211 58.371 25.9351 59.1196 26.4935 59.6717C27.0519 60.2238 27.809 60.5342 28.5987 60.5349H35.8466C36.3708 60.5349 36.8736 60.7408 37.2443 61.1074C37.615 61.4739 37.8233 61.971 37.8233 62.4894C37.8233 63.0077 37.615 63.5048 37.2443 63.8714C36.8736 64.2379 36.3708 64.4438 35.8466 64.4438H28.5987C26.7609 64.4418 24.999 63.719 23.6995 62.4342C22.4001 61.1493 21.6691 59.4072 21.667 57.5902V57.1472C21.6705 54.4735 22.7462 51.9104 24.6583 50.0198C25.4501 49.2369 26.3585 48.5959 27.3432 48.1132ZM61.2626 49.5073C62.7072 50.4617 64.4056 50.9711 66.143 50.9711L66.1531 50.9711L66.1573 50.9711H68.1341C69.7901 50.9732 71.3776 51.6245 72.5486 52.7823C73.7196 53.9401 74.3784 55.5098 74.3805 57.1472V57.5902C74.3833 58.3675 74.074 59.1142 73.5206 59.6663C72.9671 60.2184 72.2147 60.5308 71.4286 60.5349H64.1543C63.63 60.5349 63.1272 60.7408 62.7565 61.1074C62.3858 61.4739 62.1776 61.971 62.1776 62.4894C62.1776 63.0077 62.3858 63.5048 62.7565 63.8714C63.1272 64.2379 63.63 64.4438 64.1543 64.4438H71.4286C73.2628 64.4383 75.02 63.7136 76.3145 62.4288C77.6091 61.1439 78.3353 59.4038 78.3339 57.5902V57.1472C78.3304 54.4735 77.2547 51.9104 75.3426 50.0198C74.5495 49.2357 73.6395 48.5938 72.6529 48.1108C74.1109 46.5184 74.9249 44.4437 74.9275 42.2855C74.9275 40.5676 74.4123 38.8883 73.447 37.46C72.4818 36.0317 71.1098 34.9184 69.5047 34.261C67.8995 33.6036 66.1332 33.4316 64.4292 33.7667C62.7252 34.1019 61.1599 34.9291 59.9314 36.1438C58.7029 37.3585 57.8662 38.9062 57.5273 40.591C57.1883 42.2758 57.3623 44.0222 58.0271 45.6093C58.692 47.1964 59.818 48.5529 61.2626 49.5073ZM63.4592 38.311C64.2536 37.7863 65.1876 37.5062 66.143 37.5062C67.4243 37.5076 68.6527 38.0116 69.5584 38.9077C70.4642 39.8037 70.9734 41.0186 70.9741 42.2855C70.9735 43.2301 70.6897 44.1534 70.1586 44.9386C69.6274 45.7237 68.8727 46.3356 67.9899 46.6967C67.1071 47.0579 66.1358 47.1521 65.1989 46.9675C64.2619 46.7829 63.4013 46.3277 62.7259 45.6596C62.0506 44.9914 61.5907 44.1403 61.4045 43.2138C61.2183 42.2873 61.3142 41.327 61.6799 40.4543C62.0456 39.5816 62.6648 38.8358 63.4592 38.311ZM31.1732 38.311C31.9676 37.7863 32.9015 37.5062 33.8569 37.5062C35.1382 37.5076 36.3666 38.0116 37.2724 38.9077C38.1781 39.8037 38.6873 41.0186 38.688 42.2855C38.6875 43.2301 38.4037 44.1534 37.8725 44.9386C37.3413 45.7237 36.5866 46.3356 35.7038 46.6967C34.821 47.0579 33.8497 47.1521 32.9128 46.9675C31.9758 46.7829 31.1152 46.3277 30.4399 45.6596C29.7645 44.9914 29.3046 44.1403 29.1184 43.2138C28.9323 42.2873 29.0281 41.327 29.3938 40.4543C29.7595 39.5816 30.3788 38.8358 31.1732 38.311ZM49.8633 57.0515C49.5793 57.0439 49.2953 57.0126 49.0142 56.9573C48.0341 56.7646 47.1338 56.2888 46.4272 55.5901C45.7206 54.8915 45.2394 54.0014 45.0445 53.0323C44.8495 52.0633 44.9496 51.0588 45.332 50.146C45.7144 49.2332 46.362 48.453 47.1929 47.904C48.0237 47.3551 49.0006 47.0621 49.9999 47.0621C51.3392 47.0642 52.6231 47.5912 53.5702 48.5276C54.5173 49.464 55.0503 50.7334 55.0523 52.0577C55.0523 53.0458 54.756 54.0116 54.2008 54.8331C53.6457 55.6547 52.8566 56.2949 51.9334 56.6731C51.3598 56.908 50.7504 57.0351 50.136 57.0515C50.0904 57.051 50.0448 57.0508 49.9991 57.0508C49.9538 57.0508 49.9085 57.051 49.8633 57.0515ZM56.0873 58.613C56.1815 58.5275 56.274 58.4399 56.3648 58.3502C58.0532 56.6813 59.003 54.4183 59.0058 52.0577C59.0063 50.2965 58.4785 48.5746 57.4893 47.1099C56.5 45.6452 55.0937 44.5035 53.4481 43.8292C51.8025 43.1548 49.9917 42.9781 48.2445 43.3214C46.4974 43.6647 44.8924 44.5125 43.6327 45.7577C42.3729 47.003 41.5149 48.5896 41.1672 50.317C40.8195 52.0443 40.9977 53.8349 41.6793 55.4621C42.1835 56.6659 42.9464 57.7403 43.9089 58.6142C42.9048 59.1669 41.9739 59.8585 41.1468 60.6763C38.799 62.9976 37.48 66.1461 37.48 69.429V71.1672C37.4821 73.0672 38.2464 74.8888 39.6052 76.2323C40.964 77.5758 42.8063 78.3315 44.7279 78.3335H55.2704C57.192 78.3315 59.0343 77.5758 60.3931 76.2323C61.7519 74.8888 62.5162 73.0672 62.5183 71.1672V69.429C62.5183 66.1461 61.1993 62.9976 58.8515 60.6763C58.0238 59.8579 57.0922 59.166 56.0873 58.613ZM43.9453 63.4433C45.5511 61.8556 47.7282 60.9624 49.9991 60.9597C52.2701 60.9624 54.4472 61.8556 56.053 63.4433C57.6587 65.0311 58.5621 67.1837 58.5649 69.429V71.1672C58.5642 72.0309 58.2169 72.859 57.5992 73.4698C56.9815 74.0805 56.1439 74.4239 55.2704 74.4246H44.7279C43.8544 74.4239 43.0168 74.0805 42.3991 73.4698C41.7814 72.859 41.4341 72.0309 41.4334 71.1672V69.429C41.4362 67.1837 42.3396 65.0311 43.9453 63.4433Z" fill="url(#paint0_linear_2595_6494)"/>
<defs>
<linearGradient id="paint0_linear_2595_6494" x1="21.667" y1="33.5999" x2="32.7248" y2="87.6623" gradientUnits="userSpaceOnUse">
<stop stop-color="#E2605E"/>
<stop offset="1" stop-color="#E1B694"/>
</linearGradient>
</defs>
</svg>
