<svg width="100" height="100" viewBox="0 0 100 100" fill="none" xmlns="http://www.w3.org/2000/svg">
<rect width="100" height="100" rx="50" fill="white" fill-opacity="0.6"/>
<path fill-rule="evenodd" clip-rule="evenodd" d="M32.2527 21.6665C32.6781 21.6665 33.086 21.8355 33.3868 22.1362L36.0364 24.7857L36.0364 24.7857C38.9018 27.6511 38.9018 32.2968 36.0364 35.1621L33.3869 37.8116C32.7606 38.4379 31.7451 38.4379 31.1188 37.8116L28.4693 35.1621C25.604 32.2968 25.604 27.6511 28.4693 24.7858C28.4693 24.7857 28.4693 24.7857 28.4693 24.7857L31.1187 22.1363C31.4195 21.8355 31.8274 21.6665 32.2527 21.6665ZM32.2528 25.5383L30.7374 27.0538L30.7374 27.0538C29.1247 28.6666 29.1247 31.2813 30.7374 32.894L32.2529 34.4095L33.7683 32.894C35.3811 31.2813 35.3811 28.6666 33.7684 27.0538C33.7683 27.0538 33.7683 27.0538 33.7683 27.0538L32.2528 25.5383ZM43.6791 63.3948C43.6791 62.509 44.3972 61.791 45.2829 61.791H50.7379C51.6237 61.791 52.3417 62.509 52.3417 63.3948V68.8498C52.3417 69.7355 51.6237 70.4535 50.7379 70.4535H45.2829C44.3972 70.4535 43.6791 69.7355 43.6791 68.8498V63.3948ZM46.8867 64.9985V67.246H49.1341V64.9985H46.8867ZM54.2745 63.3948C54.2745 62.509 54.9925 61.791 55.8783 61.791H61.3333C62.219 61.791 62.937 62.509 62.937 63.3948V68.8498C62.937 69.7355 62.219 70.4535 61.3333 70.4535H55.8783C54.9925 70.4535 54.2745 69.7355 54.2745 68.8498V63.3948ZM57.482 64.9985V67.246H59.7295V64.9985H57.482ZM64.87 63.3948C64.87 62.509 65.588 61.791 66.4737 61.791H71.9287C72.8145 61.791 73.5325 62.509 73.5325 63.3948V68.8498C73.5325 69.7355 72.8145 70.4535 71.9287 70.4535H66.4737C65.588 70.4535 64.87 69.7355 64.87 68.8498V63.3948ZM68.0775 64.9985V67.246H70.325V64.9985H68.0775Z" fill="#E2605E"/>
<path fill-rule="evenodd" clip-rule="evenodd" d="M33.3868 22.1362C33.086 21.8355 32.6781 21.6665 32.2527 21.6665C31.8274 21.6665 31.4195 21.8355 31.1187 22.1363L28.4693 24.7858C25.604 27.6511 25.604 32.2968 28.4693 35.1621L30.6499 37.3426V39.4989H33.8574V37.3411L36.0364 35.1621C38.9018 32.2968 38.9018 27.6511 36.0364 24.7857L33.3868 22.1362ZM30.7374 27.0538L32.2528 25.5383L33.7684 27.0538C35.3811 28.6666 35.3811 31.2813 33.7683 32.894L32.2529 34.4095L30.7374 32.894C29.1247 31.2813 29.1247 28.6665 30.7374 27.0538Z" fill="#D9A479"/>
<path fill-rule="evenodd" clip-rule="evenodd" d="M25.4791 39.4585C25.563 38.6404 26.2521 38.0183 27.0745 38.0183H37.4324C38.2548 38.0183 38.9439 38.6404 39.0278 39.4585L39.9051 48.0174C39.9086 48.0441 39.9113 48.071 39.9134 48.0981L40.4069 52.9118L50.9287 46.1069C51.4219 45.7878 52.0502 45.764 52.5662 46.0448C53.0822 46.3256 53.4034 46.8661 53.4034 47.4535V52.5684L63.394 46.1069C63.8873 45.7878 64.5155 45.764 65.0315 46.0448C65.5475 46.3256 65.8687 46.8661 65.8687 47.4535V52.5684L75.8594 46.1069C76.3527 45.7878 76.981 45.764 77.497 46.0448C78.013 46.3256 78.3342 46.8661 78.3342 47.4535V76.7292C78.3342 77.615 77.6161 78.333 76.7304 78.333H41.2675C41.2571 78.3332 41.2466 78.3333 41.2362 78.3333H23.2708C22.817 78.3333 22.3844 78.141 22.0803 77.8042C21.7762 77.4673 21.6291 77.0174 21.6754 76.566L25.4791 39.4585ZM42.6839 75.1254H75.1266V50.4007L65.1359 56.8622C64.6426 57.1813 64.0144 57.2051 63.4984 56.9243C62.9824 56.6435 62.6612 56.103 62.6612 55.5156V50.4007L52.6706 56.8622C52.1773 57.1813 51.5491 57.2051 51.0331 56.9243C50.517 56.6435 50.1959 56.103 50.1959 55.5156V50.4007L40.7741 56.4943L42.6839 75.1254ZM35.9846 41.2259L36.5375 46.6194H27.9694L28.5223 41.2259H35.9846ZM25.0473 75.1257L27.6406 49.8269H36.8663L39.4596 75.1257H25.0473Z" fill="url(#paint0_linear_2595_6651)"/>
<defs>
<linearGradient id="paint0_linear_2595_6651" x1="21.667" y1="38.0183" x2="30.7163" y2="87.1108" gradientUnits="userSpaceOnUse">
<stop stop-color="#E2605E"/>
<stop offset="1" stop-color="#E1B694"/>
</linearGradient>
</defs>
</svg>
