<svg width="100" height="100" viewBox="0 0 100 100" fill="none" xmlns="http://www.w3.org/2000/svg">
<rect width="100" height="100" rx="50" fill="white" fill-opacity="0.6"/>
<path fill-rule="evenodd" clip-rule="evenodd" d="M27.2764 41.3418C27.2764 40.4515 27.9981 39.7297 28.8884 39.7297H36.1262C37.0165 39.7297 37.7382 40.4515 37.7382 41.3418C37.7382 42.2321 37.0165 42.9539 36.1262 42.9539H28.8884C27.9981 42.9539 27.2764 42.2321 27.2764 41.3418ZM44.7679 41.3418C44.7679 40.4515 45.4896 39.7297 46.3799 39.7297H53.6178C54.5081 39.7297 55.2299 40.4515 55.2299 41.3418C55.2299 42.2321 54.5081 42.9539 53.6178 42.9539H46.3799C45.4896 42.9539 44.7679 42.2321 44.7679 41.3418ZM62.2594 41.3418C62.2594 40.4515 62.9811 39.7297 63.8714 39.7297H71.1093C71.9996 39.7297 72.7214 40.4515 72.7214 41.3418C72.7214 42.2321 71.9996 42.9539 71.1093 42.9539H63.8714C62.9811 42.9539 62.2594 42.2321 62.2594 41.3418Z" fill="#E2605E"/>
<path fill-rule="evenodd" clip-rule="evenodd" d="M28.2859 30.321C29.1762 30.321 29.898 31.0428 29.898 31.9331V60.2814C29.898 61.7132 31.0762 62.8914 32.508 62.8914C33.9396 62.8914 35.118 61.7129 35.118 60.2814V31.9331C35.118 31.0428 35.8397 30.321 36.7301 30.321C37.6204 30.321 38.3421 31.0428 38.3421 31.9331V60.2814C38.3421 63.4935 35.7204 66.1156 32.508 66.1156C29.2957 66.1156 26.6738 63.4939 26.6738 60.2814V31.9331C26.6738 31.0428 27.3956 30.321 28.2859 30.321ZM45.7775 30.321C46.6678 30.321 47.3896 31.0428 47.3896 31.9331V60.2814C47.3896 61.7132 48.5679 62.8914 49.9996 62.8914C51.4312 62.8914 52.6096 61.7129 52.6096 60.2814V31.9331C52.6096 31.0428 53.3314 30.321 54.2217 30.321C55.112 30.321 55.8338 31.0428 55.8338 31.9331V60.2814C55.8338 63.4935 53.212 66.1156 49.9996 66.1156C46.7873 66.1156 44.1654 63.4939 44.1654 60.2814V31.9331C44.1654 31.0428 44.8872 30.321 45.7775 30.321ZM63.269 30.321C64.1593 30.321 64.8811 31.0428 64.8811 31.9331V60.2814C64.8811 61.7132 66.0594 62.8914 67.4911 62.8914C68.9227 62.8914 70.1011 61.7129 70.1011 60.2814V31.9331C70.1011 31.0428 70.8229 30.321 71.7132 30.321C72.6035 30.321 73.3253 31.0428 73.3253 31.9331V60.2814C73.3253 63.4935 70.7035 66.1156 67.4911 66.1156C64.2788 66.1156 61.6569 63.4939 61.6569 60.2814V31.9331C61.6569 31.0428 62.3787 30.321 63.269 30.321Z" fill="url(#paint0_linear_2595_6575)"/>
<path fill-rule="evenodd" clip-rule="evenodd" d="M21.2456 48.9409C21.2456 48.0506 21.9674 47.3289 22.8577 47.3289H77.1417C78.032 47.3289 78.7537 48.0506 78.7537 48.9409V68.3199H79.5543C80.4446 68.3199 81.1663 69.0416 81.1663 69.9319V75.3603C81.1663 76.2506 80.4446 76.9724 79.5543 76.9724H20.4451C19.5548 76.9724 18.833 76.2506 18.833 75.3603V69.9319C18.833 69.0416 19.5548 68.3199 20.4451 68.3199H21.2456V48.9409ZM22.0571 71.544V73.7483H77.9422V71.544H22.0571ZM75.5296 68.3199H24.4698V50.553H75.5296V68.3199Z" fill="url(#paint1_linear_2595_6575)"/>
<path fill-rule="evenodd" clip-rule="evenodd" d="M24.8643 24.6953C24.8643 23.805 25.586 23.0833 26.4763 23.0833H38.5394C39.4297 23.0833 40.1515 23.805 40.1515 24.6953V31.33C40.1515 32.2203 39.4297 32.9421 38.5394 32.9421H26.4763C25.586 32.9421 24.8643 32.2203 24.8643 31.33V24.6953ZM28.0884 26.3074V29.718H36.9274V26.3074H28.0884ZM42.3559 24.6953C42.3559 23.805 43.0776 23.0833 43.9679 23.0833H56.031C56.9214 23.0833 57.6431 23.805 57.6431 24.6953V31.33C57.6431 32.2203 56.9214 32.9421 56.031 32.9421H43.9679C43.0776 32.9421 42.3559 32.2203 42.3559 31.33V24.6953ZM45.58 26.3074V29.718H54.419V26.3074H45.58ZM59.8474 24.6953C59.8474 23.805 60.5691 23.0833 61.4594 23.0833H73.5225C74.4129 23.0833 75.1346 23.805 75.1346 24.6953V31.33C75.1346 32.2203 74.4129 32.9421 73.5225 32.9421H61.4594C60.5691 32.9421 59.8474 32.2203 59.8474 31.33V24.6953ZM63.0715 26.3074V29.718H71.9105V26.3074H63.0715Z" fill="#E2605E"/>
<defs>
<linearGradient id="paint0_linear_2595_6575" x1="26.6738" y1="30.321" x2="35.2929" y2="73.6764" gradientUnits="userSpaceOnUse">
<stop stop-color="#E2605E"/>
<stop offset="1" stop-color="#E1B694"/>
</linearGradient>
<linearGradient id="paint1_linear_2595_6575" x1="18.833" y1="47.3289" x2="23.3633" y2="84.0948" gradientUnits="userSpaceOnUse">
<stop stop-color="#E2605E"/>
<stop offset="1" stop-color="#E1B694"/>
</linearGradient>
</defs>
</svg>
