<svg width="100" height="100" viewBox="0 0 100 100" fill="none" xmlns="http://www.w3.org/2000/svg">
<rect width="100" height="100" rx="50" fill="white" fill-opacity="0.6"/>
<path d="M72.2622 43.9287H68.2146V27.7382C68.2146 24.3908 65.4906 21.6667 62.1432 21.6667H37.8575C34.5101 21.6667 31.786 24.3908 31.786 27.7382V43.9287H27.7384C24.391 43.9287 21.667 46.6527 21.667 50.0001V74.2858C21.667 76.5181 23.4823 78.3334 25.7146 78.3334H74.286C76.5183 78.3334 78.3337 76.5181 78.3337 74.2858V50.0001C78.3337 46.6527 75.6096 43.9287 72.2622 43.9287ZM25.7146 50.0001C25.7146 48.885 26.6213 47.9763 27.7384 47.9763H31.786V74.2858H25.7146V50.0001ZM35.8337 45.9525V27.7382C35.8337 26.6231 36.7403 25.7144 37.8575 25.7144H62.1432C63.2603 25.7144 64.167 26.6231 64.167 27.7382V74.2858H56.0718V68.2144C56.0718 65.9821 54.2564 64.1667 52.0241 64.1667H47.9765C45.7443 64.1667 43.9289 65.9821 43.9289 68.2144V74.2858H35.8337V45.9525ZM47.9765 74.2858V68.2144H52.0241V74.2858H47.9765ZM68.2146 74.2858V47.9763H72.2622C73.3794 47.9763 74.286 48.885 74.286 50.0001V74.2858H68.2146ZM39.8813 50.0001C39.8813 49.4633 40.0945 48.9486 40.474 48.569C40.8536 48.1895 41.3683 47.9763 41.9051 47.9763H58.0956C58.6323 47.9763 59.1471 48.1895 59.5266 48.569C59.9062 48.9486 60.1194 49.4633 60.1194 50.0001C60.1194 50.5368 59.9062 51.0516 59.5266 51.4311C59.1471 51.8107 58.6323 52.0239 58.0956 52.0239H41.9051C41.3683 52.0239 40.8536 51.8107 40.474 51.4311C40.0945 51.0516 39.8813 50.5368 39.8813 50.0001ZM41.9051 60.1191C41.3683 60.1191 40.8536 59.9059 40.474 59.5264C40.0945 59.1468 39.8813 58.6321 39.8813 58.0953C39.8813 57.5586 40.0945 57.0438 40.474 56.6643C40.8536 56.2847 41.3683 56.0715 41.9051 56.0715H58.0956C58.6323 56.0715 59.1471 56.2847 59.5266 56.6643C59.9062 57.0438 60.1194 57.5586 60.1194 58.0953C60.1194 58.6321 59.9062 59.1468 59.5266 59.5264C59.1471 59.9059 58.6323 60.1191 58.0956 60.1191H41.9051Z" fill="url(#paint0_linear_2595_6482)"/>
<path d="M39.8809 50.0001C39.8809 49.4634 40.0941 48.9486 40.4736 48.5691C40.8532 48.1895 41.3679 47.9763 41.9047 47.9763H58.0951C58.6319 47.9763 59.1467 48.1895 59.5262 48.5691C59.9057 48.9486 60.119 49.4634 60.119 50.0001C60.119 50.5369 59.9057 51.0516 59.5262 51.4312C59.1467 51.8107 58.6319 52.0239 58.0951 52.0239H41.9047C41.3679 52.0239 40.8532 51.8107 40.4736 51.4312C40.0941 51.0516 39.8809 50.5369 39.8809 50.0001ZM41.9047 60.1192C41.3679 60.1192 40.8532 59.906 40.4736 59.5264C40.0941 59.1469 39.8809 58.6321 39.8809 58.0954C39.8809 57.5586 40.0941 57.0439 40.4736 56.6643C40.8532 56.2848 41.3679 56.0716 41.9047 56.0716H58.0951C58.6319 56.0716 59.1467 56.2848 59.5262 56.6643C59.9057 57.0439 60.119 57.5586 60.119 58.0954C60.119 58.6321 59.9057 59.1469 59.5262 59.5264C59.1467 59.906 58.6319 60.1192 58.0951 60.1192H41.9047Z" fill="#D9A479"/>
<path d="M39.8809 33.1349C39.8809 32.5981 40.0941 32.0834 40.4736 31.7038C40.8532 31.3243 41.3679 31.1111 41.9047 31.1111H58.0951C58.6319 31.1111 59.1467 31.3243 59.5262 31.7038C59.9057 32.0834 60.119 32.5981 60.119 33.1349C60.119 33.6716 59.9057 34.1864 59.5262 34.5659C59.1467 34.9455 58.6319 35.1587 58.0951 35.1587H41.9047C41.3679 35.1587 40.8532 34.9455 40.4736 34.5659C40.0941 34.1864 39.8809 33.6716 39.8809 33.1349ZM41.9047 43.2539C41.3679 43.2539 40.8532 43.0407 40.4736 42.6612C40.0941 42.2816 39.8809 41.7669 39.8809 41.2301C39.8809 40.6934 40.0941 40.1786 40.4736 39.7991C40.8532 39.4195 41.3679 39.2063 41.9047 39.2063H58.0951C58.6319 39.2063 59.1467 39.4195 59.5262 39.7991C59.9057 40.1786 60.119 40.6934 60.119 41.2301C60.119 41.7669 59.9057 42.2816 59.5262 42.6612C59.1467 43.0407 58.6319 43.2539 58.0951 43.2539H41.9047Z" fill="#E2605E"/>
<path d="M56.0716 68.2144V74.2858H52.0239V68.2144H47.9763V74.2858H43.9287V68.2144C43.9287 65.9821 45.7441 64.1667 47.9763 64.1667H52.0239C54.2562 64.1667 56.0716 65.9821 56.0716 68.2144Z" fill="#D9A479"/>
<defs>
<linearGradient id="paint0_linear_2595_6482" x1="21.667" y1="21.6667" x2="38.9905" y2="88.5272" gradientUnits="userSpaceOnUse">
<stop stop-color="#E2605E"/>
<stop offset="1" stop-color="#E1B694"/>
</linearGradient>
</defs>
</svg>
