<svg width="100" height="100" viewBox="0 0 100 100" fill="none" xmlns="http://www.w3.org/2000/svg">
<rect width="100" height="100" rx="50" fill="white" fill-opacity="0.6"/>
<path fill-rule="evenodd" clip-rule="evenodd" d="M54.3109 31.0143C54.8323 30.8763 55.3878 31.0261 55.7692 31.4075L68.5933 44.2314C68.9747 44.6128 69.1245 45.1683 68.9865 45.6898C68.8485 46.2113 68.4436 46.62 67.9235 46.7629L50.2429 51.6195C49.7179 51.7637 49.1558 51.615 48.7708 51.23C48.3858 50.845 48.2371 50.2829 48.3813 49.7578L53.2378 32.0773C53.3807 31.5572 53.7894 31.1523 54.3109 31.0143ZM55.4689 35.391L52.0073 47.9935L64.6097 44.5318L55.4689 35.391Z" fill="#E2605E"/>
<path fill-rule="evenodd" clip-rule="evenodd" d="M62.2536 33.0807C61.6621 32.4892 61.6621 31.5303 62.2536 30.9388L70.4543 22.7377C71.0458 22.1462 72.0048 22.1462 72.5963 22.7377L77.2624 27.4037C77.8539 27.9952 77.8539 28.9541 77.2625 29.5456L69.0617 37.7467C68.4702 38.3382 67.5113 38.3382 66.9198 37.7467L62.2536 33.0807ZM65.4665 32.0097L67.9907 34.5338L74.0496 28.4747L71.5254 25.9506L65.4665 32.0097Z" fill="#D9A479"/>
<path fill-rule="evenodd" clip-rule="evenodd" d="M66.7292 33.2711C67.3208 33.8625 67.3209 34.8215 66.7295 35.4131L62.1818 39.9618L59.641 42.5016C59.0494 43.0929 58.0904 43.0927 57.499 42.5011C56.9077 41.9095 56.9079 40.9505 57.4995 40.3592L60.0397 37.8201L64.5873 33.2714C65.1787 32.6798 66.1377 32.6797 66.7292 33.2711Z" fill="#D9A479"/>
<path fill-rule="evenodd" clip-rule="evenodd" d="M23.1816 45.6096C22.3451 45.6096 21.667 46.2877 21.667 47.1242V57.0225C21.667 57.8589 22.3451 58.537 23.1816 58.537H31.6957V65.406H23.1816C22.3451 65.406 21.667 66.0841 21.667 66.9206V76.8189C21.667 77.6553 22.3451 78.3335 23.1816 78.3335H63.2969C64.1334 78.3335 64.8115 77.6553 64.8115 76.8189V68.4354H73.3257C74.1621 68.4354 74.8402 67.7573 74.8402 66.9208V57.0225C74.8402 56.1861 74.1621 55.508 73.3257 55.508H44.7538V47.1242C44.7538 46.2877 44.0757 45.6096 43.2392 45.6096H23.1816ZM44.7538 68.4354H61.7823V75.3043H44.7538V68.4354ZM33.1868 68.4352C33.1946 68.4353 33.2024 68.4354 33.2103 68.4354H41.7247V75.3043H24.6961V68.4352H33.1868ZM63.3205 65.4062H71.8111V58.5371H54.7826V65.406H63.2969C63.3048 65.406 63.3126 65.4061 63.3205 65.4062ZM51.7534 65.406V58.5371H34.7249V65.406H51.7534ZM24.6961 55.5079V48.6388H41.7247V55.5079H24.6961Z" fill="url(#paint0_linear_2595_4013)"/>
<defs>
<linearGradient id="paint0_linear_2595_4013" x1="21.667" y1="45.6096" x2="28.074" y2="85.7905" gradientUnits="userSpaceOnUse">
<stop stop-color="#E2605E"/>
<stop offset="1" stop-color="#E1B694"/>
</linearGradient>
</defs>
</svg>
