<svg width="100" height="100" viewBox="0 0 100 100" fill="none" xmlns="http://www.w3.org/2000/svg">
<rect width="100" height="100" rx="50" fill="white" fill-opacity="0.6"/>
<path fill-rule="evenodd" clip-rule="evenodd" d="M42.5823 54.6759C42.8417 53.8265 43.7406 53.3482 44.59 53.6077L55.2594 56.8662C55.4767 56.9143 55.6846 57.0076 55.8683 57.1437C56.2781 57.447 56.5197 57.9265 56.5197 58.4362V58.4414C56.5197 58.9511 56.2781 59.4307 55.8683 59.7339C55.6845 59.87 55.4767 59.9633 55.2594 60.0115L49.6258 61.7319L55.258 63.4521C55.4758 63.5001 55.6842 63.5936 55.8683 63.7299C56.278 64.0332 56.5197 64.5127 56.5197 65.0225V65.0278C56.5197 65.5375 56.278 66.017 55.8683 66.3203C55.6841 66.4566 55.4758 66.5501 55.2579 66.5981L49.0548 68.4926L51.143 69.2954C51.9719 69.6142 52.3856 70.5446 52.0669 71.3735C51.7481 72.2025 50.8177 72.6161 49.9888 72.2974L43.5432 69.8192C42.9026 69.5729 42.4889 68.9473 42.5131 68.2614C42.5374 67.5756 42.9942 66.9807 43.6505 66.7802L49.3975 65.0251L43.6505 63.2699C42.9742 63.0633 42.5121 62.4391 42.5121 61.7319C42.5122 61.0247 42.9742 60.4005 43.6506 60.1939L49.3975 58.4388L43.6505 56.6836C42.8011 56.4242 42.3229 55.5253 42.5823 54.6759Z" fill="#E2605E"/>
<path fill-rule="evenodd" clip-rule="evenodd" d="M30.2544 21.0457C29.8876 20.4192 29.1464 20.1162 28.4458 20.3062C27.7451 20.4963 27.2586 21.1322 27.2586 21.8583V33.3653C23.2751 34.1212 20.25 37.6319 20.25 41.8308V48.1378C20.25 52.3367 23.2752 55.8472 27.2586 56.6032V68.4607C27.2586 69.1901 27.7496 69.8282 28.4547 70.0151C29.1598 70.202 29.9024 69.8909 30.2637 69.2572L37.3926 56.7538H64.4893C64.6121 56.7538 64.7317 56.7401 64.8466 56.714C71.176 56.2939 76.5356 52.5577 79.148 46.6797L79.6113 45.6376C79.7962 45.2217 79.7962 44.7469 79.6113 44.331L79.148 43.2888C76.5355 37.4107 71.176 33.6748 64.8466 33.2546C64.7317 33.2285 64.6121 33.2148 64.4893 33.2148H57.4814C56.5933 33.2148 55.8733 33.9348 55.8733 34.8229V35.5507H43.789V34.8229C43.789 33.9348 43.0691 33.2148 42.1809 33.2148H37.3803L30.2544 21.0457ZM27.2586 36.6764C25.0664 37.3641 23.4662 39.4183 23.4662 41.8308V48.1378C23.4662 50.5502 25.0664 52.6044 27.2586 53.2922V36.6764ZM30.4748 53.5376V36.431H40.5728V37.4509C40.5728 42.5466 44.7354 46.7093 49.8312 46.7093C54.927 46.7093 59.0895 42.5467 59.0895 37.4509V36.431H62.8812V53.5376H30.4748ZM30.4748 62.3935V56.7539L33.6903 56.754L30.4748 62.3935ZM33.6531 33.2146L30.4748 33.2147V27.7869L33.6531 33.2146ZM66.0974 36.6363V53.3324C70.5799 52.5677 74.2853 49.7019 76.209 45.3735L76.382 44.9843L76.2091 44.5953C74.2854 40.2668 70.5799 37.4009 66.0974 36.6363ZM49.8312 43.493C46.9632 43.493 44.5407 41.4606 43.9348 38.7669H55.7276C55.1217 41.4607 52.6992 43.493 49.8312 43.493Z" fill="url(#paint0_linear_2595_6457)"/>
<path fill-rule="evenodd" clip-rule="evenodd" d="M40.8707 76.1965H56.9234C56.5889 75.448 56.0182 74.7405 55.2208 74.1297C53.8667 73.0923 51.9304 72.4047 49.7356 72.4047H48.0585C45.8637 72.4047 43.9274 73.0923 42.5732 74.1297C41.7759 74.7405 41.2052 75.448 40.8707 76.1965ZM40.6173 71.5766C42.5774 70.0749 45.2149 69.1885 48.0585 69.1885H49.7356C52.5792 69.1885 55.2167 70.0749 57.1768 71.5766C59.1373 73.0785 60.4914 75.2669 60.4914 77.8045V77.8046C60.4914 78.6927 59.7714 79.4127 58.8832 79.4127H38.9108C38.0227 79.4127 37.3027 78.6927 37.3027 77.8046V77.8045C37.3027 75.2669 38.6567 73.0785 40.6173 71.5766Z" fill="#E2605E"/>
<defs>
<linearGradient id="paint0_linear_2595_6457" x1="20.25" y1="20.25" x2="33.2464" y2="80.1575" gradientUnits="userSpaceOnUse">
<stop stop-color="#E2605E"/>
<stop offset="1" stop-color="#E1B694"/>
</linearGradient>
</defs>
</svg>
