<svg width="100" height="100" viewBox="0 0 100 100" fill="none" xmlns="http://www.w3.org/2000/svg">
<rect width="100" height="100" rx="50" fill="white" fill-opacity="0.6"/>
<path fill-rule="evenodd" clip-rule="evenodd" d="M76.4406 41.2309H69.466V45.0238H79.6193C80.03 45.0238 80.4238 45.187 80.7141 45.4776C81.0043 45.7682 81.1672 46.1622 81.1667 46.5729L81.1532 59.2776C81.1513 61.0549 79.7099 62.4946 77.9327 62.4946H75.5124C74.9937 64.8593 72.8866 66.6291 70.3662 66.6291C67.4565 66.6291 65.0977 64.2703 65.0977 61.3606C65.0977 58.4509 67.4565 56.092 70.3662 56.092C72.5829 56.092 74.4799 57.4611 75.2578 59.3997H77.9327C78.002 59.3997 78.0582 59.3435 78.0583 59.2743L78.0702 48.1187H68.9697C68.2806 48.1187 67.6197 47.8449 67.1324 47.3577C66.645 46.8704 66.3712 46.2093 66.3711 45.5202V40.5436C66.3711 40.2275 66.4334 39.9144 66.5543 39.6223C66.6753 39.3302 66.8527 39.0647 67.0763 38.8411C67.2999 38.6175 67.5653 38.4402 67.8575 38.3192C68.1496 38.1982 68.4628 38.136 68.779 38.136H76.4406C77.2952 38.136 77.9881 38.8288 77.9881 39.6834C77.9881 40.5381 77.2952 41.2309 76.4406 41.2309ZM68.1925 61.3606C68.1925 60.1601 69.1657 59.1869 70.3662 59.1869C71.5667 59.1869 72.5399 60.1601 72.5399 61.3606C72.5399 62.5611 71.5667 63.5343 70.3662 63.5343C69.1657 63.5343 68.1925 62.5611 68.1925 61.3606Z" fill="url(#paint0_linear_2595_6715)"/>
<path fill-rule="evenodd" clip-rule="evenodd" d="M44.8151 33.0156C45.6697 33.0156 46.3625 33.7084 46.3625 34.5631V44.655C46.3625 45.5097 45.6697 46.2025 44.8151 46.2025C43.9604 46.2025 43.2676 45.5097 43.2676 44.655V34.5631C43.2676 33.7084 43.9604 33.0156 44.8151 33.0156ZM53.2722 33.1567C54.1268 33.1567 54.8196 33.8495 54.8196 34.7041V44.7962C54.8196 45.6509 54.1268 46.3437 53.2722 46.3437C52.4176 46.3437 51.7248 45.6509 51.7248 44.7962V34.7041C51.7248 33.8495 52.4176 33.1567 53.2722 33.1567ZM36.3581 33.2273C37.2127 33.2273 37.9055 33.9201 37.9055 34.7748V44.8667C37.9055 45.7213 37.2127 46.4142 36.3581 46.4142C35.5034 46.4142 34.8106 45.7213 34.8106 44.8667V34.7748C34.8106 33.9201 35.5034 33.2273 36.3581 33.2273ZM27.901 33.2624C28.7556 33.2624 29.4484 33.9552 29.4484 34.8098V44.9018C29.4484 45.7564 28.7556 46.4492 27.901 46.4492C27.0463 46.4492 26.3535 45.7564 26.3535 44.9018V34.8098C26.3535 33.9552 27.0463 33.2624 27.901 33.2624Z" fill="#E2605E"/>
<path fill-rule="evenodd" clip-rule="evenodd" d="M21.9279 50.5265V29.0116H59.4358L59.4359 50.5265H21.9279ZM21.7417 25.9167C20.1352 25.9167 18.833 27.219 18.833 28.8255V50.7127C18.833 52.3191 20.1352 53.6214 21.7417 53.6214H23.8259V59.0716C23.8259 60.9606 25.3573 62.4919 27.2463 62.4919H31.6729C32.1906 64.858 34.2983 66.6293 36.8197 66.6293C39.3402 66.6293 41.4472 64.8594 41.9659 62.4947H60.9691L60.9838 62.4948L60.9986 62.4947H66.6677C67.5223 62.4947 68.2151 61.8019 68.2151 60.9473C68.2151 60.0927 67.5223 59.3999 66.6677 59.3999H62.5313V52.074C62.5313 52.0608 62.5311 52.0477 62.5308 52.0346L62.5307 33.8023H71.8817C71.9235 33.8023 71.9644 33.8143 71.9996 33.8368C72.0348 33.8593 72.0628 33.8915 72.0804 33.9294L78.2138 47.2198C78.5719 47.9957 79.4912 48.3345 80.2672 47.9764C81.0432 47.6183 81.382 46.6989 81.0238 45.9229L74.8904 32.6326C74.6252 32.0578 74.2009 31.5711 73.6677 31.2299C73.1345 30.8888 72.5147 30.7074 71.8817 30.7074H62.5307L62.5307 28.8255C62.5307 27.219 61.2284 25.9167 59.622 25.9167H21.7417ZM59.4364 59.3999H41.7113C40.9334 57.4612 39.0365 56.0922 36.8197 56.0922C34.6041 56.0922 32.7079 57.4599 31.9293 59.397H27.2463C27.0665 59.397 26.9208 59.2513 26.9208 59.0716V53.6215H59.4364V59.3999ZM34.6461 61.3607C34.6461 60.1602 35.6193 59.187 36.8197 59.187C38.0202 59.187 38.9934 60.1602 38.9934 61.3607C38.9934 62.5612 38.0202 63.5344 36.8197 63.5344C35.6193 63.5344 34.6461 62.5612 34.6461 61.3607Z" fill="url(#paint1_linear_2595_6715)"/>
<path fill-rule="evenodd" clip-rule="evenodd" d="M77.1348 74.2918C77.1348 73.4372 76.442 72.7444 75.5873 72.7444H42.4661C41.6114 72.7444 40.9186 73.4372 40.9186 74.2918C40.9186 75.1465 41.6114 75.8393 42.4661 75.8393H75.5873C76.442 75.8393 77.1348 75.1465 77.1348 74.2918Z" fill="#D9A479"/>
<path fill-rule="evenodd" clip-rule="evenodd" d="M35.8691 74.2918C35.8691 73.4372 35.1763 72.7444 34.3217 72.7444H24.412C23.5574 72.7444 22.8646 73.4372 22.8646 74.2918C22.8646 75.1465 23.5574 75.8393 24.412 75.8393H34.3217C35.1763 75.8393 35.8691 75.1465 35.8691 74.2918Z" fill="#D9A479"/>
<defs>
<linearGradient id="paint0_linear_2595_6715" x1="65.0977" y1="38.136" x2="78.7073" y2="67.7591" gradientUnits="userSpaceOnUse">
<stop stop-color="#E2605E"/>
<stop offset="1" stop-color="#E1B694"/>
</linearGradient>
<linearGradient id="paint1_linear_2595_6715" x1="18.833" y1="25.9167" x2="27.2663" y2="75.7507" gradientUnits="userSpaceOnUse">
<stop stop-color="#E2605E"/>
<stop offset="1" stop-color="#E1B694"/>
</linearGradient>
</defs>
</svg>
