<svg width="100" height="100" viewBox="0 0 100 100" fill="none" xmlns="http://www.w3.org/2000/svg">
<rect width="100" height="100" rx="50" fill="white" fill-opacity="0.6"/>
<path fill-rule="evenodd" clip-rule="evenodd" d="M38.46 34.3191C38.46 33.4733 39.1457 32.7876 39.9915 32.7876H60.0095C60.8553 32.7876 61.541 33.4733 61.541 34.3191C61.541 35.165 60.8553 35.8507 60.0095 35.8507H39.9915C39.1457 35.8507 38.46 35.165 38.46 34.3191Z" fill="#D9A479"/>
<path fill-rule="evenodd" clip-rule="evenodd" d="M50.5873 21.7834C50.2115 21.6275 49.7891 21.6275 49.4134 21.7834L22.6116 32.9046C22.0397 33.1418 21.667 33.7 21.667 34.3191V40.9918C21.667 41.8376 22.3527 42.5233 23.1985 42.5233H26.2269V61.7024H25.5345C24.6887 61.7024 24.003 62.3881 24.003 63.2339V68.375H23.1985C22.3527 68.375 21.667 69.0607 21.667 69.9066V76.8016C21.667 77.6475 22.3527 78.3332 23.1985 78.3332H76.8021C77.648 78.3332 78.3337 77.6475 78.3337 76.8016V69.9066C78.3337 69.0607 77.648 68.375 76.8021 68.375H75.9989V63.2339C75.9989 62.3881 75.3132 61.7024 74.4674 61.7024H73.7745V42.5233H76.8021C77.648 42.5233 78.3337 41.8376 78.3337 40.9918V34.3191C78.3337 33.7 77.9609 33.1418 77.3891 32.9046L50.5873 21.7834ZM64.0387 61.7024V42.5233H35.9626V61.7024H36.6556C37.5015 61.7024 38.1871 62.3881 38.1871 63.2339V68.375H61.8147V63.2339C61.8147 62.3881 62.5004 61.7024 63.3463 61.7024H64.0387ZM64.8778 68.375H72.9358V64.7654H64.8778V68.375ZM63.3463 71.4381H36.6556H25.5345H24.7301V75.2701H75.2706V71.4381H74.4674H63.3463ZM35.1241 68.375V64.7654H34.4371C34.4351 64.7655 34.4331 64.7655 34.4311 64.7655H27.7584C27.7564 64.7655 27.7544 64.7655 27.7524 64.7654H27.066V68.375H35.1241ZM32.8996 61.7024V42.5233H29.29V61.7024H32.8996ZM72.2429 39.46L72.2717 39.4603H75.2706V35.3418L50.0003 24.8562L24.7301 35.3418V39.4603H27.7413L27.7584 39.4602H34.4311L34.4482 39.4603H65.5415L65.5703 39.46H72.2429ZM67.1018 61.7022V42.5233H70.7114V61.7022H67.1018Z" fill="url(#paint0_linear_2595_7632)"/>
<path fill-rule="evenodd" clip-rule="evenodd" d="M49.9997 45.0208C50.8455 45.0208 51.5312 45.7064 51.5312 46.5523V47.4907C53.4693 48.1325 54.8676 49.9593 54.8676 52.1127C54.8676 52.9586 54.1819 53.6443 53.336 53.6443C52.4902 53.6443 51.8045 52.9586 51.8045 52.1127C51.8045 51.1159 50.9965 50.3079 49.9997 50.3079C49.0029 50.3079 48.1949 51.1159 48.1949 52.1127C48.1949 53.1095 49.0029 53.9175 49.9997 53.9175C52.6882 53.9175 54.8676 56.0969 54.8676 58.7854C54.8676 60.9388 53.4693 62.7656 51.5312 63.4075V64.3459C51.5312 65.1918 50.8455 65.8775 49.9997 65.8775C49.1539 65.8775 48.4682 65.1918 48.4682 64.3459V63.4075C46.5301 62.7656 45.1318 60.9388 45.1318 58.7854C45.1318 57.9396 45.8175 57.2539 46.6634 57.2539C47.5092 57.2539 48.1949 57.9396 48.1949 58.7854C48.1949 59.7822 49.0029 60.5902 49.9997 60.5902C50.9965 60.5902 51.8045 59.7822 51.8045 58.7854C51.8045 57.7886 50.9965 56.9806 49.9997 56.9806C47.3112 56.9806 45.1318 54.8012 45.1318 52.1127C45.1318 49.9593 46.5301 48.1325 48.4682 47.4907V46.5523C48.4682 45.7064 49.1539 45.0208 49.9997 45.0208Z" fill="#E2605E"/>
<defs>
<linearGradient id="paint0_linear_2595_7632" x1="21.667" y1="21.6665" x2="38.9905" y2="88.527" gradientUnits="userSpaceOnUse">
<stop stop-color="#E2605E"/>
<stop offset="1" stop-color="#E1B694"/>
</linearGradient>
</defs>
</svg>
