<svg width="100" height="100" viewBox="0 0 100 100" fill="none" xmlns="http://www.w3.org/2000/svg">
<rect width="100" height="100" rx="50" fill="white" fill-opacity="0.6"/>
<path fill-rule="evenodd" clip-rule="evenodd" d="M50.0051 22.2026C34.6498 22.2026 22.2024 34.6482 22.2024 49.9999C22.2024 65.3517 34.6498 77.7972 50.0051 77.7972C65.3604 77.7972 77.8078 65.3517 77.8078 49.9999C77.8078 34.6482 65.3604 22.2026 50.0051 22.2026ZM18.833 49.9999C18.833 32.7868 32.7895 18.8333 50.0051 18.8333C67.2207 18.8333 81.1772 32.7868 81.1772 49.9999C81.1772 67.2131 67.2207 81.1666 50.0051 81.1666C32.7895 81.1666 18.833 67.2131 18.833 49.9999Z" fill="url(#paint0_linear_2595_6469)"/>
<path fill-rule="evenodd" clip-rule="evenodd" d="M50.0026 31.2878C52.585 31.2878 55.0409 31.8096 57.2739 32.7519C58.2279 33.1544 59.3276 32.7073 59.7301 31.7533C60.1327 30.7993 59.6856 29.6997 58.7316 29.2971C56.0456 28.1638 53.0947 27.5381 50.0026 27.5381C37.5952 27.5381 27.5365 37.5946 27.5365 50.0005C27.5365 57.519 31.2329 64.1743 36.8992 68.2485C37.7399 68.8529 38.9114 68.6614 39.5159 67.8207C40.1204 66.98 39.9289 65.8085 39.0882 65.204C34.3594 61.804 31.2861 56.261 31.2861 50.0005C31.2861 39.6661 39.6654 31.2878 50.0026 31.2878ZM62.9029 33.8444C62.1862 34.5917 62.2109 35.7785 62.9581 36.4953C66.5111 39.9033 68.7191 44.6926 68.7191 50.0005C68.7191 55.3111 66.5089 60.1026 62.9528 63.5108C62.2053 64.2272 62.18 65.4141 62.8965 66.1616C63.613 66.9091 64.7998 66.9343 65.5473 66.2179C69.8107 62.1318 72.4688 56.3749 72.4688 50.0005C72.4688 43.6293 69.8133 37.875 65.5538 33.7892C64.8065 33.0725 63.6197 33.0972 62.9029 33.8444ZM59.2052 68.5185C58.8303 67.5534 57.7439 67.0749 56.7787 67.4499C54.6801 68.2652 52.3958 68.7133 50.0026 68.7133C48.1467 68.7133 46.3568 68.4437 44.6686 67.9429C43.6759 67.6484 42.6325 68.2145 42.338 69.2071C42.0436 70.1998 42.6096 71.2433 43.6023 71.5378C45.6328 72.1401 47.7816 72.463 50.0026 72.463C52.8676 72.463 55.6118 71.9259 58.1366 70.9451C59.1017 70.5701 59.5802 69.4837 59.2052 68.5185Z" fill="#D9A479"/>
<path fill-rule="evenodd" clip-rule="evenodd" d="M65.9863 55.5689C65.9863 54.5335 65.1469 53.6941 64.1115 53.6941H56.5754C55.54 53.6941 54.7006 54.5335 54.7006 55.5689V66.4222C54.7006 66.4221 54.7006 66.4222 54.7006 66.4222C54.7005 69.5386 57.2268 72.0649 60.3431 72.0649C63.4594 72.0649 65.9863 69.5387 65.9863 66.4223V55.5689ZM62.2367 57.4438V66.4223C62.2367 67.4678 61.3892 68.3152 60.3437 68.3152C59.2982 68.3152 58.4502 67.4678 58.4503 66.4224V57.4438H62.2367Z" fill="#E2605E"/>
<path fill-rule="evenodd" clip-rule="evenodd" d="M65.9863 29.8087C65.9863 28.7732 65.1469 27.9338 64.1115 27.9338H62.6885C56.7287 27.9338 51.8975 32.7652 51.8975 38.7249V55.5469C51.8974 55.5544 51.8973 55.562 51.8973 55.5696C51.8973 56.605 52.7367 57.4444 53.7722 57.4444H64.1115C65.1469 57.4444 65.9863 56.605 65.9863 55.5696V29.8087ZM55.6471 53.6947H62.2367V31.6978C58.5583 31.9307 55.6471 34.9879 55.6471 38.7249V53.6947ZM48.0457 28.0312C47.0102 28.0312 46.1708 28.8706 46.1708 29.906V40.9372C46.1708 42.0478 45.2702 42.9488 44.1584 42.9488H43.8471V29.906C43.8471 28.8706 43.0077 28.0312 41.9722 28.0312C40.9368 28.0312 40.0974 28.8706 40.0974 29.906V42.9488H39.7862C38.6743 42.9488 37.7738 42.0478 37.7738 40.9372V29.906C37.7738 28.8706 36.9344 28.0312 35.8989 28.0312C34.8635 28.0312 34.0241 28.8706 34.0241 29.906V40.9372C34.0241 44.1194 36.6041 46.6984 39.7862 46.6984H40.0974V49.5349H38.2043C37.1689 49.5349 36.3295 50.3743 36.3295 51.4098V66.4227C36.3295 66.4227 36.3295 66.4227 36.3295 66.4227C36.3294 69.5391 38.8557 72.0654 41.972 72.0654C45.0883 72.0654 47.6152 69.5392 47.6152 66.4228V51.4098C47.6152 50.3743 46.7758 49.5349 45.7404 49.5349H43.8471V46.6984H44.1584C47.3403 46.6984 49.9205 44.1194 49.9205 40.9372V29.906C49.9205 28.8706 49.0811 28.0312 48.0457 28.0312ZM43.8656 53.2846V66.4228C43.8656 67.4683 43.0181 68.3158 41.9726 68.3158C40.9271 68.3158 40.0791 67.4683 40.0792 66.423V53.2846H43.8656Z" fill="#E2605E"/>
<defs>
<linearGradient id="paint0_linear_2595_6469" x1="18.833" y1="18.8333" x2="37.886" y2="92.3814" gradientUnits="userSpaceOnUse">
<stop stop-color="#E2605E"/>
<stop offset="1" stop-color="#E1B694"/>
</linearGradient>
</defs>
</svg>
