<svg width="100" height="100" viewBox="0 0 100 100" fill="none" xmlns="http://www.w3.org/2000/svg">
<rect width="100" height="100" rx="50" fill="white" fill-opacity="0.6"/>
<path fill-rule="evenodd" clip-rule="evenodd" d="M67.6068 56.8547C66.9985 56.0957 65.8925 55.9737 65.1333 56.5815C65.1203 56.5919 65.1071 56.6021 65.0938 56.6121L55.4856 63.7877L60.4175 64.7526L67.3395 59.3211C68.0905 58.7156 68.2114 57.6088 67.607 56.855L67.6068 56.8547ZM70.9354 57.4457C72.4836 57.0729 74.1735 57.4972 75.37 58.6932L75.3703 58.6935C77.3501 60.6734 77.1742 63.9298 75.0011 65.687L65.2981 73.9078C64.7784 74.3481 64.0439 74.3693 63.5061 74.0053C63.3206 74.5483 62.8273 74.9572 62.2189 75.006L40.5149 76.7456C39.6974 76.8111 38.9815 76.2015 38.916 75.3839C38.8504 74.5663 39.4601 73.8505 40.2776 73.7849L61.9816 72.0453C62.3314 72.0173 62.6626 72.1128 62.9322 72.2954C63.0159 72.0493 63.1653 71.8219 63.3781 71.6416L73.0952 63.4088L73.1268 63.3828C73.9364 62.7344 74.0029 61.5266 73.27 60.7936C72.6493 60.1735 71.6666 60.1139 70.974 60.6493L70.95 60.6678L70.9498 60.6676L61.6837 67.5338C61.3484 67.7823 60.924 67.8782 60.5144 67.798L51.824 66.0978C51.6811 66.0907 51.5396 66.0631 51.4042 66.0157L40.6053 63.9029C39.8003 63.7455 39.2755 62.9653 39.433 62.1603C39.5904 61.3554 40.3706 60.8306 41.1756 60.988L51.5522 63.0182L63.2984 54.2459C65.3367 52.6328 68.2961 52.9654 69.9245 54.9973C70.5097 55.7272 70.8428 56.5786 70.9354 57.4457Z" fill="url(#paint0_linear_2595_1924)"/>
<path fill-rule="evenodd" clip-rule="evenodd" d="M67.607 56.8547C66.9987 56.0957 65.8928 55.9737 65.1335 56.5815C65.1205 56.5919 65.1074 56.6021 65.094 56.6121L55.4858 63.7877L60.4178 64.7526L67.3398 59.3211C68.0908 58.7156 68.2116 57.6088 67.6072 56.855L67.607 56.8547ZM51.4044 66.0157C51.5398 66.0631 51.6813 66.0907 51.8242 66.0978L60.5146 67.798C60.9382 67.8809 61.3769 67.7754 61.7165 67.5089L69.1799 61.6527L69.1799 61.6527L69.1913 61.6436C71.2279 60.0131 71.5567 57.0329 69.9247 54.9973C68.2963 52.9654 65.3369 52.6328 63.2986 54.2459L51.5524 63.0182L41.1758 60.988C40.3709 60.8306 39.5907 61.3554 39.4332 62.1603C39.2757 62.9653 39.8006 63.7455 40.6055 63.9029L51.4044 66.0157Z" fill="url(#paint1_linear_2595_1924)"/>
<path fill-rule="evenodd" clip-rule="evenodd" d="M60.5266 68.2424C59.6577 69.1112 59.6577 70.5199 60.5266 71.3888C61.3955 72.2576 62.8042 72.2576 63.673 71.3887C64.5419 70.5199 64.5419 69.1112 63.673 68.2423C62.8041 67.3735 61.3954 67.3735 60.5266 68.2424ZM58.4264 73.489C56.3976 71.4603 56.3976 68.171 58.4263 66.1422C60.455 64.1134 63.7444 64.1133 65.7732 66.142C67.802 68.1708 67.802 71.4601 65.7733 73.4889C63.7446 75.5177 60.4552 75.5178 58.4264 73.489Z" fill="#D9A479"/>
<path fill-rule="evenodd" clip-rule="evenodd" d="M44.2539 56.7019L36.4337 64.7923C35.8637 65.382 34.9236 65.398 34.3338 64.8279C33.7441 64.2579 33.7281 63.3178 34.2981 62.728L42.1459 54.609C43.9919 52.763 46.9867 52.7632 48.8326 54.6092C50.6749 56.4519 50.6802 59.4352 48.8455 61.284L45.991 64.2691C45.4242 64.8619 44.4841 64.8829 43.8913 64.3161C43.2985 63.7492 43.2775 62.8092 43.8443 62.2164L46.7321 59.1965C47.4194 58.509 47.4196 57.3969 46.7324 56.7094M44.2539 56.7019C44.9405 56.0234 46.0489 56.026 46.7324 56.7094L44.2539 56.7019Z" fill="url(#paint2_linear_2595_1924)"/>
<path fill-rule="evenodd" clip-rule="evenodd" d="M35.931 72.3076C34.7612 71.13 34.2027 69.3961 34.6018 67.6587C34.821 66.7049 35.2994 65.8779 35.9455 65.2352C35.9664 65.2159 35.9867 65.196 36.0064 65.1756C37.1826 64.0449 38.888 63.511 40.5969 63.9036C43.2893 64.5221 44.9705 67.2062 44.352 69.8986C43.7335 72.5911 41.0494 74.2723 38.357 73.6538C37.4469 73.4447 36.6524 72.9997 36.0232 72.3981C35.9938 72.3666 35.963 72.3364 35.931 72.3076ZM32.1521 71.9269C31.5049 70.4246 31.3127 68.7102 31.7071 66.9937C31.8163 66.5181 31.966 66.0623 32.1517 65.6291H24.6372V71.9269H32.1521ZM34.3634 74.8971H23.1521C22.3319 74.8971 21.667 74.2322 21.667 73.412V64.144C21.667 63.3239 22.3319 62.659 23.1521 62.659H34.3669C36.2148 61.1182 38.736 60.4286 41.2619 61.0088C45.553 61.9946 48.2326 66.2725 47.2468 70.5636C46.261 74.8548 41.9831 77.5343 37.692 76.5485C36.4241 76.2573 35.2969 75.6786 34.3634 74.8971Z" fill="url(#paint3_linear_2595_1924)"/>
<path fill-rule="evenodd" clip-rule="evenodd" d="M49.2825 22.8155C49.439 22.1428 50.0384 21.6667 50.729 21.6667H56.1201C56.8107 21.6667 57.4101 22.1428 57.5666 22.8155L58.0677 24.9706L59.946 23.8011C60.5322 23.436 61.2927 23.5233 61.7811 24.0116L65.5931 27.8237C66.0814 28.312 66.1687 29.0725 65.8037 29.6587L64.6342 31.537L66.7893 32.0381C67.4619 32.1946 67.938 32.794 67.938 33.4846V38.8757C67.938 39.5663 67.4619 40.1658 66.7893 40.3222L64.6343 40.8233L65.8038 42.7016C66.1688 43.2878 66.0815 44.0483 65.5932 44.5367L61.7812 48.3487C61.2928 48.837 60.5323 48.9243 59.9461 48.5593L58.0678 47.3898L57.5667 49.5449C57.4103 50.2175 56.8108 50.6936 56.1202 50.6936H50.7291C50.0385 50.6936 49.4391 50.2176 49.2826 49.5449L48.7814 47.3898L46.9031 48.5593C46.3169 48.9243 45.5564 48.837 45.068 48.3487L41.256 44.5367C40.7677 44.0483 40.6804 43.2878 41.0454 42.7016L42.2149 40.8234L40.0598 40.3222C39.3872 40.1658 38.9111 39.5663 38.9111 38.8757V33.4846C38.9111 32.794 39.3872 32.1946 40.0598 32.0381L42.2149 31.537L41.0454 29.6587C40.6804 29.0725 40.7677 28.312 41.256 27.8237L45.068 24.0116C45.5564 23.5233 46.3169 23.436 46.9031 23.8011L48.7814 24.9706L49.2825 22.8155ZM51.9084 24.6369L51.362 26.9864C51.2488 27.4731 50.8985 27.8702 50.4298 28.0432C50.2136 28.123 50.0008 28.2114 49.7918 28.3082C49.3375 28.5186 48.8078 28.4859 48.3828 28.2212L46.3343 26.9458L44.1902 29.09L45.4656 31.1384C45.7303 31.5634 45.7629 32.0932 45.5525 32.5475C45.4557 32.7565 45.3674 32.9692 45.2877 33.1853C45.1147 33.6541 44.7175 34.0044 44.2308 34.1176L41.8813 34.664V37.6963L44.2308 38.2427C44.7175 38.3559 45.1147 38.7063 45.2877 39.1752C45.3674 39.3912 45.4557 39.6038 45.5525 39.8127C45.7629 40.267 45.7303 40.7969 45.4656 41.2219L44.1902 43.2704L46.3343 45.4146L48.3828 44.1391C48.8078 43.8744 49.3376 43.8418 49.7919 44.0522C50.0008 44.149 50.2136 44.2373 50.4297 44.3171C50.8984 44.4901 51.2488 44.8872 51.362 45.3739L51.9084 47.7234H54.9408L55.4872 45.3739C55.6004 44.8873 55.9507 44.4901 56.4194 44.3171C56.6356 44.2373 56.8484 44.1489 57.0574 44.0521C57.5117 43.8418 58.0414 43.8745 58.4664 44.1391L60.5149 45.4146L62.659 43.2704L61.3836 41.2219C61.1189 40.7969 61.0863 40.2672 61.2967 39.8128C61.3935 39.6039 61.4818 39.3911 61.5616 39.1751C61.7346 38.7063 62.1317 38.3559 62.6184 38.2427L64.9678 37.6964V34.664L62.6183 34.1176C62.1316 34.0044 61.7344 33.654 61.5614 33.1851C61.4817 32.9692 61.3934 32.7565 61.2966 32.5476C61.0862 32.0933 61.1188 31.5635 61.3835 31.1384L62.6589 29.09L60.5148 26.9458L58.4663 28.2213C58.0413 28.4859 57.5115 28.5186 57.0572 28.3081C56.8483 28.2114 56.6355 28.123 56.4194 28.0433C55.9506 27.8703 55.6003 27.4731 55.4871 26.9864L54.9407 24.6369H51.9084Z" fill="#E2605E"/>
<path fill-rule="evenodd" clip-rule="evenodd" d="M53.4249 33.8652C52.1463 33.8652 51.1098 34.9017 51.1098 36.1802C51.1098 37.4588 52.1463 38.4953 53.4249 38.4953C54.7034 38.4953 55.7399 37.4588 55.7399 36.1802C55.7399 34.9017 54.7034 33.8652 53.4249 33.8652ZM48.1396 36.1802C48.1396 33.2613 50.5059 30.895 53.4249 30.895C56.3438 30.895 58.7101 33.2613 58.7101 36.1802C58.7101 39.0992 56.3438 41.4654 53.4249 41.4654C50.5059 41.4654 48.1396 39.0992 48.1396 36.1802Z" fill="#E2605E"/>
<defs>
<linearGradient id="paint0_linear_2595_1924" x1="38.9111" y1="53.2246" x2="43.5622" y2="82.0967" gradientUnits="userSpaceOnUse">
<stop stop-color="#E2605E"/>
<stop offset="1" stop-color="#E1B694"/>
</linearGradient>
<linearGradient id="paint1_linear_2595_1924" x1="39.4053" y1="53.2246" x2="41.578" y2="71.3483" gradientUnits="userSpaceOnUse">
<stop stop-color="#E2605E"/>
<stop offset="1" stop-color="#E1B694"/>
</linearGradient>
<linearGradient id="paint2_linear_2595_1924" x1="33.8809" y1="53.2246" x2="36.6651" y2="67.829" gradientUnits="userSpaceOnUse">
<stop stop-color="#E2605E"/>
<stop offset="1" stop-color="#E1B694"/>
</linearGradient>
<linearGradient id="paint3_linear_2595_1924" x1="21.667" y1="60.8047" x2="24.8044" y2="80.382" gradientUnits="userSpaceOnUse">
<stop stop-color="#E2605E"/>
<stop offset="1" stop-color="#E1B694"/>
</linearGradient>
</defs>
</svg>
