<svg width="528" height="336" viewBox="0 0 528 336" fill="none" xmlns="http://www.w3.org/2000/svg">
<g opacity="0.5">
<path d="M406.06 65.8155C403.152 65.2208 400.243 66.8047 399.01 69.5137C398.301 71.0448 397.258 72.5634 395.817 73.8331L387.625 81.432C383.594 85.1889 382.388 91.0319 384.604 96.0665L389.122 106.265C391.339 111.299 390.132 117.142 386.101 120.899L377.909 128.498C373.878 132.255 372.672 138.098 374.888 143.133L379.406 153.331C380.163 155.106 380.585 156.868 380.63 158.553C380.689 161.527 382.682 164.113 385.644 164.719L393.453 166.316C398.408 167.329 402.575 162.371 400.55 157.767C400.562 157.713 400.508 157.702 400.519 157.648L396 147.45C393.784 142.416 394.99 136.573 399.021 132.816L407.214 125.217C411.245 121.46 412.451 115.617 410.235 110.582L405.716 100.384C403.5 95.3495 404.706 89.5064 408.737 85.7496L416.93 78.1506C416.941 78.097 416.995 78.108 417.006 78.0544C420.701 74.5641 418.825 68.4259 413.87 67.4126L406.06 65.8155Z" fill="url(#paint0_linear_838_55548)"/>
<path d="M413.87 67.4114L406.061 65.8143C403.152 65.2195 400.243 66.8035 399.011 69.5125L398.999 69.5661C396.83 74.0947 396.608 79.2453 398.579 83.8385L405.717 100.383C403.5 95.3483 404.707 89.5052 408.738 85.7483L416.93 78.1494C416.941 78.0958 416.995 78.1068 417.006 78.0532C420.69 74.6165 418.825 68.4247 413.87 67.4114Z" fill="url(#paint1_linear_838_55548)"/>
<path d="M384.605 96.0664L389.123 106.265C391.34 111.299 390.133 117.142 386.102 120.899C383.046 123.738 382.537 128.383 384.977 131.787L396.001 147.45C393.785 142.416 394.991 136.573 399.022 132.816L407.215 125.217C411.246 121.46 412.452 115.617 410.236 110.582L405.717 100.384L384.605 96.0664Z" fill="url(#paint2_linear_838_55548)"/>
<path d="M496.842 121.143C494.753 119.064 491.454 118.79 488.925 120.377C487.495 121.307 485.791 121.909 483.866 122.238L472.814 124.098C467.371 125.029 463.137 129.243 462.203 134.66L460.333 145.66C459.399 151.078 455.165 155.292 449.722 156.222L438.67 158.083C433.227 159.013 428.993 163.227 428.058 168.645L426.189 179.645C425.859 181.561 425.199 183.257 424.319 184.68C422.725 187.197 423 190.426 425.089 192.56L430.697 198.143C434.271 201.7 440.484 199.839 441.364 194.914V194.804L443.233 183.804C444.168 178.386 448.402 174.173 453.845 173.242L464.897 171.382C470.34 170.451 474.574 166.237 475.509 160.819L477.378 149.82C478.313 144.402 482.547 140.188 487.99 139.257L499.041 137.397H499.151C504.155 136.521 506.024 130.337 502.395 126.78L496.842 121.143Z" fill="url(#paint3_linear_838_55548)"/>
<path d="M502.45 126.725L496.842 121.143C494.753 119.064 491.454 118.79 488.925 120.377C488.925 120.377 488.87 120.377 488.87 120.432C484.581 123.004 481.502 127.218 480.622 132.143L477.433 149.874C478.368 144.456 482.602 140.242 488.045 139.312L499.097 137.451H499.206C504.21 136.466 506.079 130.282 502.45 126.725Z" fill="url(#paint4_linear_838_55548)"/>
<path d="M462.203 134.66L460.333 145.66C459.398 151.078 455.165 155.292 449.721 156.222C445.598 156.934 442.629 160.546 442.739 164.705L443.288 183.804C444.223 178.386 448.457 174.172 453.9 173.242L464.952 171.381C470.395 170.451 474.629 166.237 475.564 160.819L477.433 149.819L462.203 134.66Z" fill="url(#paint5_linear_838_55548)"/>
<path d="M302.919 318.543L374.067 294.245L390.067 278.101H421.353L428.336 275.693C435.209 273.34 439.497 266.937 439.497 260.096C439.497 258.345 439.222 256.539 438.618 254.842C436.968 249.972 435.044 245.265 432.954 240.668L394.741 205.753L396.335 192.126C382.425 180.141 366.15 170.783 348.225 164.763C339.593 161.863 330.246 166.46 327.276 175.052L320.898 193.494L325.847 214.4L307.482 232.569L296.926 263.215L301.049 279.633L283.565 302.837C282.135 313.235 292.307 322.155 302.919 318.543Z" fill="url(#paint6_linear_838_55548)"/>
<path d="M302.919 318.543L374.067 294.245L390.067 278.101H421.353L428.336 275.693C435.209 273.34 439.497 266.937 439.497 260.096C439.497 258.345 439.222 256.539 438.618 254.842C436.968 249.972 435.044 245.265 432.954 240.668L394.741 205.753L396.335 192.126C382.425 180.141 366.15 170.783 348.225 164.763C339.593 161.863 330.246 166.46 327.276 175.052L320.898 193.494L325.847 214.4L307.482 232.569L296.926 263.215L301.049 279.633L283.565 302.837C282.135 313.235 292.307 322.155 302.919 318.543Z" fill="url(#paint7_linear_838_55548)"/>
<path d="M361.475 223.101C342.066 223.101 323.702 226.548 307.482 232.568L320.953 193.549C333.599 190.21 347.235 188.35 361.475 188.35C373.627 188.35 385.338 189.663 396.335 192.18C411.785 205.424 424.321 221.897 432.954 240.613C412.995 229.613 388.252 223.101 361.475 223.101Z" fill="url(#paint8_linear_838_55548)"/>
<path d="M374.067 294.191C364.115 292.22 353.668 291.181 342.946 291.181C321.338 291.181 301.104 295.395 283.564 302.837C283.674 301.907 283.894 300.922 284.224 299.937L296.925 263.216C311.111 258.838 326.616 256.43 342.946 256.43C372.912 256.43 400.349 264.584 421.352 278.046L374.067 294.191Z" fill="url(#paint9_linear_838_55548)"/>
<path d="M374.067 294.191C364.115 292.22 353.668 291.181 342.946 291.181C321.338 291.181 301.104 295.395 283.564 302.837C283.674 301.907 283.894 300.922 284.224 299.937L296.925 263.216C311.111 258.838 326.616 256.43 342.946 256.43C372.912 256.43 400.349 264.584 421.352 278.046L374.067 294.191Z" fill="url(#paint10_linear_838_55548)"/>
<path d="M329.585 256.977C333.984 256.594 338.438 256.43 342.946 256.43C372.912 256.43 400.349 264.584 421.352 278.046L374.067 294.191C364.115 292.22 353.668 291.181 342.946 291.181C321.338 291.181 301.104 295.395 283.564 302.837L329.585 256.977Z" fill="url(#paint11_linear_838_55548)"/>
<path d="M270.808 306.668L280.376 297.145C285.874 291.673 294.836 291.673 300.335 297.145L305.723 302.509C311.221 307.981 311.221 316.902 305.723 322.374L296.156 331.896C290.657 337.369 281.695 337.369 276.197 331.896L270.808 326.533C265.31 321.006 265.31 312.14 270.808 306.668Z" fill="url(#paint12_linear_838_55548)"/>
<path d="M270.808 306.668L280.376 297.145C285.874 291.673 294.836 291.673 300.335 297.145L305.723 302.509C311.221 307.981 311.221 316.902 305.723 322.374L296.156 331.896C290.657 337.369 281.695 337.369 276.197 331.896L270.808 326.533C265.31 321.006 265.31 312.14 270.808 306.668Z" fill="url(#paint13_linear_838_55548)"/>
<path d="M271.281 143.459C273.925 129.444 275.846 123.712 277.914 109.597C278.01 108.312 277.298 107.794 274.234 106.838C272.084 106.167 269.891 105.518 267.698 104.963C225.042 94.1772 182.336 83.5707 139.786 72.3973C134.462 71.1138 126.657 59.269 127.17 54.7418C129.032 38.3375 118.413 67.4131 116.391 72.4906C114.047 83.0453 111.18 93.4726 108.445 103.933C107.856 106.173 107.268 108.414 106.68 110.654C106.354 111.565 106.842 112.528 107.875 113.032C109.621 113.996 112.563 114.674 114.786 115.268C118.929 116.36 123.07 117.459 127.215 118.546C146.287 123.506 165.4 128.318 184.493 133.204L184.497 133.192C204.506 138.36 224.782 142.672 244.841 147.647C251.112 149.197 260.744 151.619 264.329 151.684C272.607 151.834 271.187 145.568 271.281 143.459Z" fill="#2B8958"/>
<path d="M271.47 146.538C271.847 144.904 272.221 143.269 272.594 141.634L272.597 141.622C273.998 135.487 275.388 129.349 276.839 123.226C279.692 111.191 282.628 99.1754 285.475 87.1392L285.639 86.4475L285.799 85.7726C286.442 83.0458 286.892 80.2704 287.28 77.4878C287.571 75.3947 286.9 74.6771 283.826 73.6409C282.474 73.1849 281.103 72.7465 279.72 72.3508C278.898 72.1161 278.071 71.8962 277.243 71.6976L277.236 71.6959C276.372 71.4889 275.509 71.2829 274.645 71.0779L274.161 70.9626C273.319 70.7629 272.477 70.5634 271.634 70.3645L271.258 70.2757C263.916 68.5437 256.565 66.8463 249.23 65.0863C237.278 62.2187 225.345 59.2752 213.397 56.3911C205.43 54.4682 197.454 52.5825 189.477 50.6992C186.756 50.0568 184.008 49.5204 181.295 48.8517C175.572 47.4404 169.86 45.9831 164.148 44.5262C159.406 43.3163 154.684 42.0283 149.929 40.8683C149.215 40.6941 148.502 40.5211 147.787 40.3491L147.786 40.3485C146.706 40.0881 145.625 39.83 144.543 39.5749L144.414 39.5444C143.903 39.4242 143.392 39.3043 142.881 39.1856L142.702 39.144C142.186 39.0241 141.67 38.9053 141.154 38.787L141.09 38.7725C140.584 38.6568 140.078 38.5422 139.572 38.4283L139.427 38.3959C138.933 38.285 138.44 38.1751 137.946 38.066L137.683 38.008C137.197 37.9011 136.711 37.7948 136.225 37.6899L135.99 37.6395C135.482 37.5302 134.975 37.4218 134.466 37.3148C133.507 37.113 132.527 36.9926 131.545 36.9114C130.563 36.83 129.579 36.7875 128.611 36.7411C127.991 36.7113 127.447 36.7544 126.985 36.8715C126.944 36.8818 126.903 36.8931 126.862 36.9052C126.632 36.9714 126.412 37.0656 126.206 37.1855C126.08 37.2607 125.962 37.3484 125.853 37.4471C125.774 37.5197 125.701 37.5985 125.635 37.6827C125.475 37.887 125.355 38.118 125.28 38.3643C125.2 38.6172 125.116 38.8692 125.029 39.1202C124.855 39.6225 124.67 40.1217 124.483 40.6204C124.389 40.8696 124.295 41.1189 124.202 41.3684C124.109 41.618 124.017 41.8674 123.927 42.1177C123.658 42.8686 123.408 43.624 123.214 44.3929C123.128 44.7315 123.044 45.0703 122.96 45.4093L122.899 45.659C122.834 45.923 122.77 46.1867 122.706 46.451L122.653 46.6711C122.585 46.9558 122.517 47.2403 122.449 47.5251L122.419 47.6535C121.487 51.5981 120.637 55.5622 119.645 59.4921C116.527 71.8449 113.37 84.1885 110.218 96.533L110.216 96.5416C109.267 100.258 108.318 103.974 107.37 107.691C107.303 107.955 107.251 108.205 107.215 108.442C107.203 108.52 107.193 108.598 107.185 108.674C107.161 108.901 107.153 109.117 107.165 109.321C107.176 109.525 107.206 109.718 107.255 109.902C107.296 110.053 107.351 110.201 107.421 110.341C107.522 110.543 107.65 110.731 107.801 110.899C107.868 110.975 107.941 111.049 108.019 111.121C108.098 111.194 108.182 111.265 108.272 111.335C108.432 111.458 108.6 111.571 108.774 111.674C109.549 112.138 110.631 112.555 112.077 112.994C112.22 113.037 112.364 113.076 112.51 113.113C112.655 113.15 112.802 113.185 112.947 113.223L112.966 113.228C113.518 113.368 114.069 113.51 114.62 113.651L115.196 113.799L116.287 114.079L116.992 114.26L117.714 114.446C121.061 115.309 124.407 116.175 127.757 117.028L127.757 117.029C130.273 117.669 132.791 118.303 135.313 118.922C152.105 123.044 168.914 127.103 185.716 131.188L185.721 131.168C191.647 132.609 197.56 134.099 203.5 135.48C217.875 138.819 232.256 142.14 246.641 145.441L246.659 145.445C249.315 146.055 251.972 146.664 254.629 147.273C256.016 147.591 257.405 147.896 258.798 148.189C261.119 148.678 263.446 149.136 265.773 149.571C265.835 149.582 265.896 149.593 265.957 149.604L266.003 149.612L266.17 149.64L266.184 149.642L266.361 149.669L266.401 149.675C266.453 149.682 266.506 149.69 266.557 149.696L266.575 149.699C266.633 149.706 266.69 149.713 266.747 149.72L266.776 149.723C266.828 149.729 266.88 149.734 266.93 149.739L266.947 149.741C267.004 149.746 267.06 149.751 267.115 149.755L267.132 149.756C267.184 149.76 267.236 149.764 267.287 149.767L267.299 149.768C267.355 149.771 267.41 149.774 267.465 149.776L267.467 149.776C267.521 149.778 267.574 149.78 267.626 149.781L267.634 149.781C267.742 149.783 267.846 149.782 267.948 149.78L267.952 149.779C268.055 149.777 268.154 149.771 268.252 149.764L268.253 149.764C269.705 149.65 270.57 149.002 271.103 147.792C271.281 147.393 271.372 146.963 271.47 146.538Z" fill="#66CC99"/>
<path d="M250.725 133.053C252.104 131.524 253.744 130.376 255.67 129.618C257.58 128.866 259.564 128.543 261.591 128.769C262.96 128.921 264.319 129.218 265.654 129.556C265.922 129.624 266.187 129.703 266.448 129.794C267.235 126.309 268.026 122.826 268.844 119.349C270.977 110.275 273.172 101.217 275.313 92.1455C274.257 91.9123 273.22 91.6118 272.219 91.1864C269.889 90.1959 268.075 88.6046 266.613 86.5822C265.075 84.4556 264.091 82.1158 263.813 79.5141C263.665 78.1245 263.71 76.7919 263.954 75.5185C257.057 73.8897 250.15 72.2962 243.258 70.6467C232.557 68.0854 221.872 65.461 211.174 62.8861C204.041 61.1689 196.9 59.4832 189.759 57.7992C187.323 57.2246 184.865 56.7382 182.435 56.1418C177.31 54.8836 172.195 53.5877 167.08 52.2916C162.833 51.2153 158.603 50.0748 154.345 49.04C151.689 48.3943 149.027 47.7612 146.362 47.1512C146.13 47.8507 145.837 48.5294 145.487 49.1797C145.09 49.9193 144.635 50.6292 144.207 51.3528C142.698 53.2596 141.049 54.9982 138.852 56.1415C136.674 57.2751 134.364 57.7163 131.931 57.3152C131.066 57.1727 130.206 57.0058 129.361 56.7856C128.812 59.212 128.275 61.641 127.667 64.0534C125.13 74.1282 122.56 84.1948 119.993 94.2621C120.17 94.305 120.347 94.3486 120.523 94.3934C122.319 94.8473 123.86 95.8134 125.291 96.9455C125.822 97.3649 126.33 97.8115 126.85 98.2442C127.771 99.0112 128.561 99.889 129.104 100.957C129.309 101.36 129.491 101.783 129.615 102.216C129.944 103.367 130.357 104.512 130.516 105.69C130.737 107.3 130.602 108.94 130.121 110.499C134.287 111.565 138.454 112.627 142.632 113.649C157.668 117.324 172.717 120.948 187.762 124.593L187.766 124.577C193.071 125.862 198.367 127.19 203.684 128.425C218.367 131.838 233.055 135.226 247.747 138.597C248.222 136.592 249.205 134.74 250.725 133.053Z" fill="#339966"/>
<path d="M153.855 85.564C153.097 86.5381 152.269 87.4283 151.162 88.0198C150.065 88.6066 148.9 88.8433 147.67 88.6544C146.834 88.5257 146.005 88.3532 145.222 88.0287C144.043 87.5408 143.124 86.7454 142.381 85.73C141.6 84.662 141.097 83.483 140.951 82.1675C140.738 80.2503 141.251 78.5384 142.558 77.0621C143.25 76.2798 144.076 75.6891 145.047 75.2939C146.009 74.9021 147.01 74.7269 148.034 74.8297C148.726 74.8989 149.413 75.0414 150.088 75.2043C150.996 75.4239 151.776 75.9037 152.501 76.469C152.77 76.6781 153.027 76.9015 153.291 77.1173C153.758 77.5003 154.159 77.94 154.436 78.4781C154.54 78.681 154.633 78.894 154.697 79.1127C154.865 79.6935 155.076 80.2709 155.159 80.8661C155.334 82.1181 155.094 83.324 154.496 84.4565C154.297 84.8331 154.07 85.1952 153.855 85.564ZM253.697 108.645C252.939 109.619 252.111 110.509 251.004 111.101C249.907 111.687 248.741 111.924 247.512 111.735C246.676 111.607 245.847 111.434 245.063 111.109C243.885 110.622 242.965 109.826 242.222 108.811C241.441 107.743 240.938 106.564 240.792 105.248C240.579 103.331 241.092 101.619 242.399 100.143C243.092 99.3606 243.917 98.7699 244.888 98.3747C245.851 97.983 246.852 97.8077 247.876 97.9105C248.567 97.9797 249.254 98.1223 249.929 98.2851C250.837 98.5047 251.617 98.9845 252.342 99.5498C252.611 99.7589 252.869 99.9824 253.132 100.198C253.599 100.581 254 101.021 254.277 101.559C254.381 101.762 254.475 101.975 254.538 102.194C254.707 102.774 254.918 103.352 255.001 103.947C255.175 105.199 254.935 106.405 254.338 107.537C254.139 107.914 253.911 108.276 253.697 108.645Z" fill="#66CC99"/>
<path d="M220.769 109.121C217.928 113.105 214.075 116.397 209.461 118.44C198.264 123.398 184.292 120.293 176.492 110.917C176.268 110.646 176.049 110.371 175.833 110.093C164.566 95.4158 170.177 71.6604 189.029 66.5512C201.265 63.2352 216.132 68.6645 222.667 79.5737C228.284 88.9513 226.836 100.613 220.769 109.121Z" fill="#66CC99"/>
<path d="M196.201 109.872C195.966 110.801 195.708 111.846 195.437 112.887C195.215 113.742 195.07 113.857 194.211 113.639C193.061 113.347 191.923 113.006 190.788 112.658C190.113 112.451 189.989 112.199 190.162 111.475C190.389 110.518 190.641 109.566 190.896 108.56C190.518 108.359 190.207 108.184 189.889 108.025C187.369 106.776 185.783 104.735 184.952 102.052C184.59 100.883 184.681 99.6725 184.669 98.4756C184.663 97.8699 184.97 97.5978 185.589 97.5467C185.892 97.5202 186.197 97.5416 186.493 97.6101C187.617 97.8803 188.733 98.1846 189.855 98.4651C190.378 98.5955 190.57 98.9306 190.624 99.4585C190.705 100.252 190.821 101.046 190.997 101.822C191.32 103.246 192.323 104.075 193.602 104.556C195.027 105.093 196.558 105.252 198.01 104.853C201.483 103.9 202.561 100.919 200.786 97.864C200.024 96.5527 198.781 95.6656 197.546 94.81C195.318 93.2654 193.061 91.7461 191.195 89.7463C190.51 89.0089 189.909 88.195 189.405 87.3199C188.267 85.3426 188.389 83.2971 189.454 81.3188C191.154 78.1617 193.822 76.584 197.354 76.5023C197.809 76.4917 198.264 76.5139 198.817 76.5223C198.949 76.0696 199.091 75.6091 199.216 75.1441C199.368 74.578 199.5 74.0062 199.65 73.4395C199.815 72.8144 200.03 72.6057 200.608 72.7267C201.857 72.9874 203.093 73.31 204.331 73.6231C204.82 73.7472 205.014 74.1277 204.976 74.6042C204.936 75.1252 204.864 75.6471 204.761 76.1592C204.647 76.7302 204.481 77.2912 204.33 77.8887C204.723 78.12 205.028 78.3049 205.338 78.4817C209.014 80.5751 209.881 83.8847 210.027 87.8688C210.049 88.4677 209.733 88.7817 209.134 88.8205C208.807 88.8417 208.463 88.7982 208.145 88.7169C207.378 88.5216 206.626 88.2693 205.86 88.0728C205.226 87.9104 204.902 87.5684 204.806 86.8755C204.715 86.2171 204.466 85.5742 204.231 84.946C203.136 82.0099 198.842 81.3433 196.569 82.9404C195.443 83.7312 195.017 85.2074 195.601 86.4637C195.989 87.3065 196.606 88.019 197.38 88.5183C198.248 89.0804 199.155 89.5789 200.035 90.1214C201.226 90.8561 202.446 91.55 203.585 92.361C206.869 94.6996 208.523 99.1257 207.457 102.85C206.986 104.493 206.151 105.916 204.844 107.014C203.508 108.137 202.005 108.954 200.28 109.258C198.994 109.484 197.698 109.649 196.201 109.872Z" fill="white"/>
<path d="M300.47 296.855L291.663 196.667C290.978 188.87 284.072 183.102 276.238 183.784L113.152 197.986C105.318 198.668 99.5237 205.541 100.209 213.338L109.016 313.527C109.701 321.324 116.607 327.092 124.44 326.409L287.527 312.208C295.36 311.526 301.155 304.652 300.47 296.855Z" fill="url(#paint14_linear_838_55548)"/>
<path d="M216.144 189.018L276.238 183.785C284.071 183.103 290.977 188.87 291.663 196.667L300.469 296.856C301.155 304.653 295.36 311.526 287.526 312.208L227.433 317.441L216.144 189.018Z" fill="url(#paint15_linear_838_55548)"/>
<path d="M217.336 202.541L226.247 303.915C226.903 311.385 221.352 317.97 213.846 318.624L124.438 326.409C116.607 327.091 109.702 321.325 109.017 313.53L100.21 213.339C99.5249 205.54 105.321 198.666 113.155 197.983L202.558 190.198C210.063 189.545 216.679 195.071 217.336 202.541Z" fill="url(#paint16_linear_838_55548)"/>
<path d="M217.336 202.541L226.247 303.915C226.903 311.385 221.352 317.97 213.846 318.624L124.438 326.409C116.607 327.091 109.702 321.325 109.017 313.53L100.21 213.339C99.5249 205.54 105.321 198.666 113.155 197.983L202.558 190.198C210.063 189.545 216.679 195.071 217.336 202.541Z" fill="url(#paint17_linear_838_55548)"/>
<path d="M217.336 202.542L226.247 303.915C226.903 311.385 221.351 317.971 213.846 318.625L174.369 322.062L163.08 193.637L202.557 190.199C210.063 189.546 216.679 195.072 217.336 202.542Z" fill="url(#paint18_linear_838_55548)"/>
<path d="M109.016 313.527L104.184 258.557L295.638 241.885L300.47 296.856C301.155 304.652 295.36 311.526 287.527 312.208L124.44 326.41C116.607 327.092 109.701 321.324 109.016 313.527Z" fill="url(#paint19_linear_838_55548)"/>
<path d="M179.207 322.758L158.684 324.545C158.324 324.577 157.961 324.537 157.616 324.429C157.272 324.321 156.952 324.146 156.675 323.915C156.398 323.684 156.169 323.4 156.003 323.081C155.836 322.762 155.734 322.413 155.702 322.055L144.694 196.819C144.662 196.461 144.702 196.099 144.811 195.756C144.919 195.413 145.095 195.095 145.327 194.819C145.56 194.543 145.844 194.316 146.165 194.15C146.486 193.984 146.836 193.882 147.196 193.851L167.719 192.064C168.079 192.033 168.441 192.072 168.786 192.18C169.131 192.288 169.451 192.463 169.728 192.694C170.005 192.926 170.233 193.209 170.4 193.528C170.567 193.847 170.669 194.196 170.7 194.554L181.709 319.79C181.74 320.149 181.701 320.51 181.592 320.853C181.483 321.196 181.308 321.515 181.075 321.79C180.843 322.066 180.558 322.293 180.238 322.459C179.917 322.625 179.567 322.727 179.207 322.758Z" fill="url(#paint20_linear_838_55548)"/>
<path d="M167.719 192.064L147.196 193.851C146.836 193.882 146.486 193.984 146.165 194.15C145.844 194.316 145.56 194.543 145.327 194.819C145.095 195.095 144.919 195.413 144.811 195.756C144.702 196.099 144.662 196.461 144.694 196.819L149.212 248.214L175.218 245.95L170.7 194.554C170.668 194.196 170.566 193.847 170.4 193.528C170.233 193.209 170.004 192.926 169.728 192.695C169.451 192.463 169.131 192.289 168.786 192.18C168.441 192.072 168.079 192.033 167.719 192.064Z" fill="url(#paint21_linear_838_55548)"/>
<path d="M153.873 301.24L155.702 322.055C155.734 322.413 155.836 322.762 156.003 323.081C156.169 323.4 156.398 323.684 156.675 323.915C156.952 324.146 157.272 324.321 157.616 324.429C157.961 324.537 158.324 324.577 158.684 324.545L179.207 322.758C179.567 322.727 179.917 322.625 180.238 322.459C180.558 322.293 180.843 322.066 181.075 321.79C181.308 321.515 181.483 321.196 181.592 320.853C181.701 320.51 181.74 320.149 181.709 319.79L179.879 298.976L153.873 301.24Z" fill="url(#paint22_linear_838_55548)"/>
<path d="M120.494 154.449L130.543 171.773C132.948 175.92 134.126 180.66 133.94 185.445C133.754 190.23 132.212 194.866 129.492 198.815C122.392 209.124 106.836 208.255 100.938 197.221C96.2083 188.372 97.7869 177.492 104.839 170.335L120.494 154.449Z" fill="url(#paint23_linear_838_55548)"/>
<path d="M120.494 154.449L130.543 171.773C132.948 175.92 134.126 180.66 133.94 185.445C133.754 190.23 132.212 194.866 129.492 198.815C122.392 209.124 106.836 208.255 100.938 197.221C96.2083 188.372 97.7869 177.492 104.839 170.335L120.494 154.449Z" fill="url(#paint24_linear_838_55548)"/>
<path d="M125.526 163.123C125.236 163.274 124.947 163.427 124.661 163.592C113.366 170.083 109.495 184.459 116.017 195.701C117.949 199.042 120.68 201.855 123.968 203.892C126.076 202.7 127.977 201.015 129.492 198.816C132.212 194.866 133.755 190.231 133.941 185.446C134.127 180.66 132.949 175.921 130.543 171.773L125.526 163.123Z" fill="url(#paint25_linear_838_55548)"/>
<path d="M99.6053 194.223C99.9775 195.253 100.423 196.255 100.938 197.222C106.835 208.255 122.392 209.124 129.491 198.816C131.82 195.434 133.291 191.542 133.778 187.471C134.265 183.4 133.755 179.273 132.29 175.441L99.6053 194.223Z" fill="url(#paint26_linear_838_55548)"/>
<path d="M129.458 169.904L117.675 149.59C114.855 144.727 110.709 140.758 105.718 138.141C100.727 135.523 95.094 134.365 89.4694 134.799C74.7902 135.931 66.556 152.163 74.3557 164.592C80.6113 174.561 92.6371 179.344 104.072 176.412L129.458 169.904Z" fill="url(#paint27_linear_838_55548)"/>
<path d="M86.3041 151.919C81.1027 154.899 76.9919 159.453 74.5697 164.918C80.8819 174.662 92.764 179.312 104.073 176.412L128.146 170.24C127.519 167.431 126.463 164.734 125.016 162.243C117.19 148.752 99.8581 144.13 86.3041 151.919Z" fill="url(#paint28_linear_838_55548)"/>
<path d="M128.145 170.241C127.403 166.918 126.062 163.757 124.188 160.91C117.539 156.479 108.671 155.894 101.273 160.146C95.0803 163.704 91.3215 169.844 90.5709 176.411C94.9986 177.549 99.6443 177.55 104.072 176.413L128.145 170.241Z" fill="url(#paint29_linear_838_55548)"/>
<path d="M125.238 151.723L135.287 169.047C137.693 173.194 141.228 176.579 145.485 178.812C149.741 181.044 154.545 182.032 159.342 181.662C171.862 180.696 178.884 166.853 172.232 156.253C166.897 147.751 156.641 143.671 146.888 146.172L125.238 151.723Z" fill="url(#paint30_linear_838_55548)"/>
<path d="M125.238 151.723L135.287 169.047C137.693 173.194 141.228 176.579 145.485 178.812C149.741 181.044 154.545 182.032 159.342 181.662C171.862 180.696 178.884 166.853 172.232 156.253C166.897 147.751 156.641 143.671 146.888 146.172L125.238 151.723Z" fill="url(#paint31_linear_838_55548)"/>
<path d="M130.269 160.398C130.545 160.222 130.825 160.051 131.109 159.887C142.404 153.396 156.848 157.248 163.369 168.49C165.31 171.826 166.392 175.587 166.52 179.439C164.429 180.661 162.012 181.457 159.341 181.663C154.544 182.033 149.74 181.045 145.483 178.813C141.227 176.581 137.691 173.195 135.286 169.048L130.269 160.398Z" fill="url(#paint32_linear_838_55548)"/>
<path d="M170.29 153.605C171 154.441 171.649 155.326 172.232 156.253C178.884 166.853 171.862 180.697 159.343 181.662C155.237 181.978 151.114 181.3 147.329 179.684C143.543 178.069 140.207 175.565 137.606 172.387L170.29 153.605Z" fill="url(#paint33_linear_838_55548)"/>
<path d="M134.203 167.178L122.42 146.864C119.599 142.001 118.218 136.444 118.436 130.833C118.654 125.222 120.463 119.787 123.653 115.156C131.978 103.069 150.218 104.088 157.133 117.025C162.679 127.402 160.828 140.159 152.56 148.55L134.203 167.178Z" fill="url(#paint34_linear_838_55548)"/>
<path d="M140.132 120.987C145.325 117.994 151.343 116.727 157.309 117.372C162.631 127.685 160.736 140.251 152.559 148.55L135.152 166.214C133.022 164.269 131.203 162.011 129.759 159.518C121.933 146.027 126.577 128.776 140.132 120.987Z" fill="url(#paint35_linear_838_55548)"/>
<path d="M135.152 166.214C132.633 163.913 130.552 161.177 129.012 158.138C128.481 150.191 132.406 142.255 139.805 138.003C145.997 134.444 153.219 134.274 159.308 136.911C158.085 141.297 155.763 145.302 152.56 148.55L135.152 166.214Z" fill="url(#paint36_linear_838_55548)"/>
<path d="M136.811 147.175C133.165 143.725 127.356 143.939 123.909 147.585C122.199 149.398 119.989 150.668 117.557 151.235C112.66 152.383 109.569 157.285 110.748 162.152C111.31 164.468 112.234 166.8 113.535 169.043C114.797 171.217 116.307 173.128 117.978 174.737C121.655 178.28 127.535 178.187 131.043 174.478C131.893 173.578 132.871 172.806 133.946 172.188C135.022 171.57 136.183 171.112 137.393 170.83C142.289 169.682 145.381 164.781 144.201 159.914C143.64 157.598 142.716 155.266 141.414 153.022C140.112 150.779 138.546 148.817 136.811 147.175Z" fill="url(#paint37_linear_838_55548)"/>
<path d="M122.578 168.179C118.754 161.586 119.428 153.641 123.646 147.852C121.974 149.524 119.864 150.696 117.557 151.234C112.66 152.382 109.569 157.283 110.748 162.15C111.31 164.466 112.234 166.798 113.535 169.041C114.797 171.216 116.307 173.126 117.978 174.736C121.335 177.971 126.529 178.173 130.077 175.36C126.944 173.722 124.344 171.231 122.578 168.179Z" fill="url(#paint38_linear_838_55548)"/>
<path d="M113.535 169.044C114.797 171.218 116.307 173.128 117.978 174.738C121.655 178.281 127.535 178.188 131.043 174.479C131.893 173.578 132.871 172.806 133.946 172.188C135.022 171.57 136.183 171.113 137.393 170.83C142.289 169.683 145.381 164.782 144.201 159.914C143.64 157.598 142.715 155.266 141.414 153.023C140.813 151.988 140.144 150.995 139.409 150.05L111.95 165.829C112.406 166.935 112.936 168.008 113.535 169.044Z" fill="url(#paint39_linear_838_55548)"/>
<path d="M228.111 143.236L222.04 132.771C218.108 125.993 209.4 123.67 202.591 127.584L60.8147 209.055C54.0046 212.969 51.6717 221.636 55.6032 228.414L61.6733 238.879C65.6053 245.657 74.3133 247.98 81.1228 244.066L222.899 162.595C229.709 158.681 232.043 150.014 228.111 143.236Z" fill="url(#paint40_linear_838_55548)"/>
<path d="M150.35 157.606L202.591 127.586C209.401 123.672 218.109 125.995 222.04 132.773L228.11 143.238C232.042 150.016 229.709 158.683 222.899 162.596L170.658 192.616L150.35 157.606Z" fill="url(#paint41_linear_838_55548)"/>
<path d="M157.56 200.143L194.163 179.109L173.854 144.099L137.251 165.133L157.56 200.143Z" fill="url(#paint42_linear_838_55548)"/>
<path d="M61.6734 238.88L57.8856 232.349L224.323 136.707L228.111 143.237C232.043 150.015 229.709 158.683 222.899 162.596L81.1235 244.067C74.3133 247.98 65.6054 245.658 61.6734 238.88Z" fill="url(#paint43_linear_838_55548)"/>
<path d="M161.565 199.297L143.724 209.549C143.411 209.729 143.065 209.846 142.707 209.893C142.349 209.94 141.985 209.916 141.636 209.823C141.286 209.73 140.959 209.569 140.672 209.35C140.386 209.131 140.145 208.858 139.964 208.547L121.142 176.098C120.961 175.786 120.844 175.443 120.797 175.086C120.75 174.729 120.773 174.367 120.867 174.019C120.961 173.672 121.122 173.346 121.342 173.061C121.562 172.775 121.836 172.536 122.149 172.356L139.99 162.104C140.303 161.924 140.649 161.807 141.007 161.76C141.365 161.713 141.73 161.737 142.079 161.83C142.428 161.923 142.755 162.084 143.042 162.303C143.329 162.522 143.569 162.795 143.75 163.106L162.572 195.555C162.753 195.866 162.87 196.21 162.917 196.567C162.965 196.924 162.941 197.286 162.847 197.634C162.754 197.981 162.592 198.307 162.372 198.592C162.152 198.878 161.878 199.117 161.565 199.297Z" fill="url(#paint44_linear_838_55548)"/>
<path d="M129.468 190.451L139.964 208.546C140.145 208.858 140.385 209.131 140.672 209.35C140.959 209.569 141.286 209.729 141.635 209.822C141.984 209.916 142.348 209.939 142.707 209.892C143.065 209.845 143.411 209.729 143.724 209.549L161.564 199.296C161.877 199.117 162.152 198.877 162.372 198.592C162.592 198.306 162.753 197.981 162.847 197.633C162.94 197.286 162.964 196.923 162.917 196.567C162.87 196.21 162.753 195.866 162.572 195.554L152.075 177.459L129.468 190.451Z" fill="url(#paint45_linear_838_55548)"/>
<path d="M248.035 149.44L236.049 139.43C235.14 138.67 234.571 137.582 234.467 136.405C234.364 135.228 234.734 134.059 235.497 133.153L249.237 116.856C255.115 109.883 257.914 101.05 257.116 91.9822C255.747 76.4 260.556 61.2191 270.657 49.2367L285.627 31.48C286.39 30.575 287.483 30.0088 288.665 29.9058C289.848 29.8028 291.023 30.1716 291.933 30.9309L303.919 40.9414C304.828 41.7009 305.397 42.7888 305.5 43.9658C305.604 45.1428 305.233 46.3125 304.47 47.2177L289.501 64.9743C283.623 71.9468 280.824 80.7803 281.621 89.8478C282.99 105.431 278.182 120.611 268.08 132.593L254.34 148.891C253.963 149.339 253.5 149.709 252.979 149.979C252.457 150.249 251.888 150.414 251.302 150.465C250.716 150.516 250.127 150.452 249.566 150.276C249.006 150.1 248.485 149.816 248.035 149.44Z" fill="url(#paint46_linear_838_55548)"/>
<path d="M257.116 91.9826C257.913 101.05 255.115 109.884 249.237 116.856L235.497 133.154C234.734 134.059 234.364 135.229 234.467 136.406C234.57 137.583 235.139 138.671 236.049 139.43L248.035 149.441C248.944 150.2 250.119 150.569 251.302 150.466C252.484 150.363 253.577 149.796 254.341 148.891C258.85 143.542 261.04 136.628 260.429 129.672L257.116 91.9826Z" fill="url(#paint47_linear_838_55548)"/>
<path d="M257.116 91.9826C257.913 101.05 255.115 109.884 249.237 116.856L235.497 133.154C234.734 134.059 234.364 135.229 234.467 136.406C234.57 137.583 235.139 138.671 236.049 139.43L248.035 149.441C248.944 150.2 250.119 150.569 251.302 150.466C252.484 150.363 253.577 149.796 254.341 148.891C258.85 143.542 261.04 136.628 260.429 129.672L257.116 91.9826Z" fill="url(#paint48_linear_838_55548)"/>
<path d="M281.622 89.8486C280.824 80.7812 283.623 71.9477 289.501 64.9752L304.471 47.2185C305.234 46.3134 305.604 45.1437 305.501 43.9667C305.397 42.7897 304.828 41.7018 303.919 40.9423L291.932 30.9318C291.023 30.1725 289.848 29.8037 288.665 29.9067C287.483 30.0097 286.39 30.5759 285.627 31.4809L283.164 34.4018C279.444 38.8147 277.637 44.5179 278.142 50.2567L281.622 89.8486Z" fill="url(#paint49_linear_838_55548)"/>
<path d="M63.3965 103.255L68.0519 107.143C69.688 108.509 72.1273 108.297 73.5001 106.668L82.1646 96.3908C83.5374 94.7624 83.324 92.3344 81.6879 90.968L77.6251 87.5749C63.5545 75.8235 42.5773 77.6502 30.7712 91.6549L27.3621 95.6987C27.0357 96.0859 26.789 96.5333 26.6363 97.0154C26.4836 97.4975 26.4278 98.0048 26.472 98.5083C26.5163 99.0119 26.6598 99.5018 26.8943 99.9502C27.1288 100.399 27.4497 100.797 27.8388 101.121L38.1646 109.745C39.8006 111.112 42.2401 110.899 43.6129 109.271L47.5192 104.637C51.5202 99.8919 58.6284 99.273 63.3965 103.255Z" fill="url(#paint50_linear_838_55548)"/>
<path d="M30.771 91.6556L27.3619 95.6994C27.0354 96.0866 26.7888 96.534 26.6361 97.0161C26.4833 97.4982 26.4275 98.0055 26.4718 98.509C26.516 99.0126 26.6595 99.5025 26.894 99.9509C27.1285 100.399 27.4495 100.797 27.8385 101.122L38.1644 109.746C39.8004 111.112 42.2398 110.9 43.6126 109.272L47.519 104.638C51.5199 99.8921 58.6286 99.2731 63.3962 103.255L47.7872 90.2191C42.7221 85.9889 35.1223 86.5327 30.8528 91.5585L30.771 91.6556Z" fill="url(#paint51_linear_838_55548)"/>
<path d="M249.263 218.797L247.994 225.962C247.78 227.171 248.057 228.416 248.765 229.421C249.472 230.427 250.552 231.112 251.767 231.325L267.736 234.128C268.951 234.341 270.201 234.065 271.212 233.361C272.222 232.657 272.911 231.582 273.125 230.372L274.233 224.119C278.069 202.462 263.54 181.81 241.782 177.992L235.499 176.889C234.284 176.676 233.034 176.952 232.023 177.656C231.013 178.36 230.325 179.436 230.11 180.645L227.295 196.539C227.081 197.748 227.358 198.992 228.065 199.998C228.773 201.004 229.853 201.689 231.068 201.902L238.267 203.166C245.64 204.46 250.563 211.458 249.263 218.797Z" fill="url(#paint52_linear_838_55548)"/>
<path d="M241.782 177.992L235.499 176.889C234.284 176.676 233.034 176.952 232.023 177.656C231.013 178.36 230.325 179.436 230.11 180.645L227.295 196.539C227.081 197.748 227.358 198.992 228.065 199.998C228.773 201.004 229.853 201.689 231.068 201.902L238.267 203.166C245.64 204.46 250.563 211.458 249.263 218.797L253.52 194.771C254.901 186.975 249.761 179.422 241.933 178.019L241.782 177.992Z" fill="url(#paint53_linear_838_55548)"/>
<path d="M435.504 95.1194C442.735 91.4617 448.497 85.4604 451.841 78.1054C452.211 77.2904 453.382 77.2904 453.752 78.1054C457.089 85.4622 462.881 91.4763 470.089 95.1194C470.856 95.5074 470.856 96.5952 470.089 96.9827C462.858 100.64 457.096 106.642 453.752 113.997C453.382 114.812 452.211 114.812 451.841 113.997C448.504 106.64 442.712 100.626 435.504 96.9827C434.737 96.5952 434.737 95.5069 435.504 95.1194Z" fill="url(#paint54_linear_838_55548)"/>
<path d="M35.1601 175.365C27.9295 179.023 22.1672 185.024 18.8234 192.379C18.4537 193.194 17.2819 193.194 16.9122 192.379C13.5753 185.022 7.78296 179.008 0.575541 175.365C-0.191849 174.977 -0.191849 173.889 0.575541 173.502C7.80617 169.844 13.5685 163.843 16.9122 156.488C17.2819 155.673 18.4537 155.673 18.8234 156.488C22.1603 163.845 27.9527 169.859 35.1601 173.502C35.9269 173.889 35.9269 174.977 35.1601 175.365Z" fill="url(#paint55_linear_838_55548)"/>
<path d="M142.549 267.264C143.913 272.5 144.785 277.751 143.844 283.148C142.912 288.499 140.559 293.136 136.529 296.839C133.788 299.359 130.913 301.731 127.623 303.54C122.678 306.259 117.357 307.258 111.743 307.057C105.839 306.844 100.305 305.374 95.2643 302.313C87.9197 297.852 83.2856 291.457 81.6533 282.978C80.7887 278.485 80.963 274.054 82.2258 269.655C83.4775 265.294 85.5984 261.387 88.7626 258.153C90.8979 255.97 93.2793 254.001 95.7016 252.128C98.9596 249.608 102.787 248.235 106.765 247.277C108.238 246.922 109.73 246.643 111.213 246.324C113.843 245.76 116.489 245.577 119.144 246.085C120.145 246.277 121.151 246.534 122.096 246.908C124.606 247.903 127.22 248.742 129.547 250.071C134.439 252.863 138.036 256.952 140.395 262.067C141.18 263.768 141.835 265.53 142.549 267.264Z" fill="#FFCC66"/>
<path d="M107.543 247.482C107.088 247.582 106.635 247.688 106.184 247.8C105.729 248.484 105.275 249.168 104.821 249.852C103.979 251.124 103.134 252.395 102.332 253.691C101.913 254.37 102.007 254.886 102.483 255.167C102.923 255.427 103.371 255.292 103.794 254.691C105.55 252.192 107.301 249.69 109.036 247.176C108.537 247.273 108.039 247.373 107.543 247.482ZM90.3707 257.149C89.9318 259.466 89.5024 261.785 89.0744 264.103C89.0171 264.415 88.9778 264.746 89.0202 265.057C89.0926 265.594 89.5667 265.898 90.0603 265.785C90.595 265.675 90.6992 265.276 90.7926 264.811C91.4528 261.539 92.1294 258.27 92.8032 255.001C91.9708 255.692 91.1596 256.409 90.3707 257.149ZM116.612 246.202C115.764 246.184 114.916 246.22 114.073 246.311C112.518 248.29 110.976 250.28 109.433 252.269C109.241 252.517 109.065 252.814 109 253.114C108.854 253.785 109.462 254.339 110.221 254.1C110.345 253.96 110.565 253.735 110.761 253.491C112.695 251.086 114.625 248.678 116.556 246.271L116.612 246.202ZM100.818 249.593C99.8498 250.02 98.9127 250.513 98.0131 251.069C97.0982 253.108 96.1859 255.15 95.2782 257.193C95.1501 257.482 95.0458 257.8 95.0229 258.112C94.9905 258.559 95.2284 258.951 95.6785 258.978C95.9826 258.996 96.3176 258.78 96.6074 258.615C96.721 258.55 96.7483 258.336 96.8163 258.191C98.109 255.42 99.4077 252.651 100.691 249.876C100.735 249.782 100.777 249.688 100.818 249.593ZM125.607 248.657C124.646 249.629 123.691 250.606 122.74 251.587C122.213 252.14 121.723 252.726 121.272 253.341C120.877 253.874 120.925 254.423 121.306 254.751C121.687 255.081 122.15 254.971 122.658 254.456C124.286 252.801 125.92 251.15 127.55 249.496C126.908 249.203 126.26 248.923 125.607 248.657ZM135.847 269.795C135.661 269.997 135.51 270.377 135.572 270.622C135.636 270.871 135.945 271.13 136.206 271.233C136.435 271.323 136.757 271.24 137.02 271.168C138.414 270.785 141.147 269.827 141.125 269.748C141.617 269.608 142.111 269.47 142.603 269.33C142.5 268.857 142.391 268.384 142.279 267.911L142.113 267.478C140.305 268.1 138.497 268.725 136.691 269.353C136.39 269.458 136.05 269.575 135.847 269.795ZM143.044 284.508C140.665 284.32 138.286 284.136 135.907 283.95C135.707 283.934 135.507 283.895 135.307 283.896C134.842 283.898 134.556 284.151 134.45 284.59C134.335 285.069 134.607 285.354 135.003 285.538C135.183 285.622 135.386 285.658 135.581 285.709C137.855 286.315 140.168 286.498 142.493 286.544C142.702 285.88 142.885 285.201 143.044 284.508ZM143.72 278.526C142.104 278.477 140.486 278.462 138.869 278.454C138.231 278.45 137.592 278.545 137.052 278.587C136.386 278.779 136.077 279.17 136.143 279.642C136.211 280.133 136.571 280.376 137.201 280.394C139.347 280.455 141.493 280.52 143.639 280.586C143.691 279.9 143.718 279.213 143.72 278.526ZM126.668 303.077C125.352 302.156 124.033 301.24 122.722 300.313C122.302 300.015 121.878 299.98 121.528 300.353C121.187 300.716 121.199 301.157 121.52 301.557C121.644 301.712 121.782 301.865 121.941 301.981C122.974 302.74 124.006 303.5 125.04 304.256C125.676 303.982 126.301 303.683 126.914 303.36L127.004 303.312C126.892 303.233 126.78 303.155 126.668 303.077ZM132.051 252.179C130.918 253.279 129.787 254.382 128.661 255.489C128.408 255.738 128.139 256.028 128.031 256.35C127.947 256.602 128.012 257.003 128.174 257.212C128.333 257.417 128.698 257.461 128.94 257.562C129.237 257.353 129.45 257.237 129.622 257.076C130.935 255.853 132.246 254.629 133.555 253.401C133.07 252.974 132.568 252.566 132.051 252.179ZM143.274 272.903C142.07 273.096 140.869 273.294 139.676 273.489C139.305 273.548 138.94 273.641 138.586 273.768C138.458 273.814 138.336 273.865 138.22 273.929C137.726 274.2 137.519 274.719 137.69 275.132C137.874 275.575 138.317 275.74 138.904 275.592C139.29 275.495 139.673 275.381 140.064 275.323C141.216 275.15 142.369 274.981 143.522 274.814C143.455 274.176 143.371 273.539 143.274 272.903ZM116.855 301.91C116.742 301.796 116.64 301.609 116.51 301.587C116.18 301.53 115.761 301.422 115.521 301.569C115.282 301.715 115.216 302.145 115.105 302.385C115.276 302.689 115.343 302.892 115.477 303.034C116.464 304.077 117.446 305.128 118.436 306.169C119.181 306.05 119.92 305.901 120.653 305.723C119.386 304.454 118.122 303.181 116.855 301.91ZM120.124 246.651C119.063 247.855 118.008 249.064 116.957 250.278C116.405 250.915 116.387 251.379 116.806 251.749C117.215 252.11 117.67 252.022 118.278 251.461C118.397 251.352 118.507 251.235 118.616 251.117C119.8 249.832 120.987 248.548 122.167 247.259C121.5 247.012 120.818 246.809 120.124 246.651ZM135.615 288.402C135.172 288.277 134.815 288.333 134.571 288.733C134.299 289.178 134.373 289.612 134.797 289.897C135.225 290.184 135.686 290.47 136.175 290.612C137.5 290.997 138.832 291.361 140.166 291.718C140.519 291.138 140.844 290.542 141.143 289.932C139.3 289.422 137.456 288.918 135.615 288.402ZM137.211 257.396C136.824 256.869 136.417 256.357 135.99 255.861C134.776 256.848 133.566 257.839 132.355 258.828C131.92 259.183 131.464 259.516 131.06 259.903C130.748 260.203 130.6 260.643 130.94 260.973C131.188 261.215 131.598 261.291 131.868 261.411C132.244 261.168 132.491 261.032 132.712 260.862C134.214 259.71 135.714 258.556 137.211 257.396ZM137.482 295.278C135.904 294.687 134.321 294.109 132.741 293.524C132.591 293.469 132.415 293.352 132.29 293.391C131.974 293.49 131.59 293.587 131.398 293.821C131.111 294.169 131.265 294.588 131.586 294.891C131.727 295.024 131.916 295.12 132.099 295.194C133.395 295.716 134.692 296.237 135.99 296.755C136.509 296.285 137.007 295.792 137.482 295.278ZM128.678 296.597C128.416 296.453 128.092 296.42 127.938 296.375C127.246 296.615 127.012 297.266 127.374 297.704C127.622 298.003 127.969 298.238 128.306 298.445C129.385 299.105 130.468 299.76 131.552 300.413L131.553 300.413C131.678 300.32 131.804 300.226 131.928 300.131L132.009 300.069C132.135 299.974 132.26 299.878 132.385 299.781L132.391 299.777C132.665 299.564 132.937 299.348 133.207 299.13C131.704 298.275 130.194 297.431 128.678 296.597ZM114.398 306.548C113.163 305.167 111.921 303.793 110.676 302.422C110.038 301.719 109.601 301.595 109.155 301.957C108.689 302.336 108.723 302.776 109.278 303.537C109.325 303.602 109.367 303.671 109.42 303.732C110.223 304.665 111.024 305.598 111.828 306.53C112.684 306.567 113.541 306.573 114.398 306.548ZM139.318 260.902L134.828 263.546C134.321 263.845 134.086 264.223 134.291 264.71C134.486 265.171 134.954 265.281 135.757 265.046C135.88 264.999 136.071 264.949 136.235 264.859C137.566 264.123 138.896 263.387 140.224 262.648C139.945 262.054 139.643 261.472 139.318 260.902ZM105.484 301.843C105.092 301.221 104.707 300.977 104.251 301.17C103.794 301.363 103.62 301.892 103.829 302.587C104.323 303.636 104.832 304.704 105.449 305.718C106.383 305.923 107.331 306.089 108.29 306.219C107.353 304.761 106.407 303.309 105.484 301.843Z" fill="#FFBB43"/>
<path d="M137.789 268.798C139.045 273.621 139.848 278.457 138.982 283.428C138.123 288.357 135.955 292.628 132.244 296.038C129.719 298.359 127.071 300.545 124.041 302.21C119.486 304.715 114.586 305.635 109.414 305.449C103.976 305.253 98.8794 303.9 94.2364 301.08C87.4714 296.972 83.2035 291.081 81.7001 283.271C80.9036 279.133 81.0647 275.052 82.2276 271C83.3804 266.983 85.3341 263.384 88.2483 260.406C90.2152 258.395 92.4086 256.581 94.6393 254.856C97.6401 252.535 101.166 251.27 104.829 250.388C106.187 250.061 107.561 249.804 108.927 249.511C111.348 248.991 113.786 248.823 116.231 249.291C117.153 249.467 118.08 249.704 118.95 250.049C121.262 250.965 123.67 251.738 125.813 252.961C130.319 255.533 133.633 259.299 135.805 264.01C136.529 265.578 137.131 267.201 137.789 268.798Z" fill="#FFBB43"/>
<path d="M135.433 269.576C136.583 273.991 137.318 278.418 136.525 282.968C135.739 287.479 133.755 291.389 130.358 294.511C128.047 296.636 125.623 298.635 122.85 300.16C118.68 302.453 114.195 303.295 109.461 303.125C104.484 302.946 99.8182 301.706 95.5683 299.126C89.3763 295.366 85.4695 289.974 84.093 282.824C83.3637 279.036 83.5111 275.301 84.576 271.592C85.6311 267.915 87.4194 264.621 90.0874 261.895C91.8875 260.055 93.8953 258.394 95.9375 256.814C98.6842 254.69 101.911 253.532 105.265 252.725C106.508 252.426 107.765 252.19 109.015 251.922C111.232 251.446 113.463 251.292 115.701 251.721C116.545 251.883 117.393 252.099 118.19 252.415C120.306 253.253 122.51 253.96 124.472 255.08C128.596 257.435 131.629 260.882 133.618 265.194C134.28 266.629 134.831 268.114 135.433 269.576Z" fill="#FFCC66"/>
<path d="M116.802 291.719C117.061 292.563 117.356 293.509 117.64 294.458C117.873 295.238 117.813 295.398 117.025 295.64C115.969 295.965 114.898 296.246 113.827 296.52C113.19 296.682 112.97 296.543 112.759 295.891C112.481 295.029 112.225 294.16 111.944 293.246C111.547 293.27 111.215 293.282 110.886 293.311C108.278 293.543 106.036 292.704 104.085 290.995C103.236 290.251 102.727 289.255 102.143 288.32C101.847 287.846 101.961 287.485 102.429 287.146C102.658 286.979 102.911 286.849 103.18 286.76C104.205 286.431 105.24 286.132 106.268 285.812C106.747 285.662 107.062 285.833 107.358 286.222C107.802 286.806 108.277 287.375 108.789 287.9C109.731 288.863 110.928 289.032 112.177 288.794C113.571 288.529 114.867 287.915 115.832 286.903C118.14 284.478 117.567 281.615 114.687 280.07C113.45 279.406 112.034 279.308 110.64 279.231C108.123 279.091 105.596 278.984 103.149 278.312C102.249 278.063 101.38 277.712 100.558 277.267C98.7028 276.261 97.8173 274.595 97.7158 272.526C97.5536 269.225 98.9215 266.698 101.696 264.931C102.054 264.703 102.426 264.501 102.87 264.242C102.758 263.822 102.651 263.392 102.527 262.965C102.376 262.447 102.207 261.934 102.054 261.416C101.885 260.845 101.956 260.577 102.475 260.393C103.595 259.997 104.734 259.654 105.87 259.304C106.319 259.165 106.656 259.371 106.855 259.763C107.073 260.193 107.266 260.637 107.43 261.09C107.613 261.594 107.751 262.115 107.917 262.657C108.34 262.65 108.673 262.648 109.004 262.638C112.937 262.511 115.218 264.695 117.247 267.757C117.552 268.217 117.451 268.616 116.993 268.935C116.736 269.11 116.453 269.243 116.155 269.331C115.451 269.548 114.731 269.712 114.026 269.926C113.444 270.104 113.021 269.991 112.612 269.493C112.223 269.019 111.716 268.634 111.228 268.253C108.946 266.474 105.204 268.019 104.161 270.371C103.644 271.536 104.013 272.901 105.082 273.607C105.796 274.083 106.63 274.346 107.486 274.365C108.446 274.389 109.409 274.344 110.37 274.346C111.672 274.349 112.977 274.306 114.274 274.395C118.013 274.651 121.456 277.332 122.395 280.774C122.809 282.292 122.827 283.814 122.313 285.308C121.787 286.834 120.983 288.202 119.755 289.272C118.839 290.067 117.887 290.821 116.802 291.719Z" fill="#FFB031"/>
<path d="M107.97 262.823C107.819 262.279 107.695 261.759 107.527 261.253C107.375 260.799 107.198 260.354 106.994 259.921C106.809 259.527 106.487 259.314 106.051 259.443C104.948 259.768 103.841 260.084 102.753 260.455C102.249 260.627 102.176 260.892 102.329 261.464C102.468 261.982 102.623 262.496 102.759 263.015C102.872 263.442 102.968 263.873 103.069 264.292C102.636 264.541 102.271 264.735 101.923 264.953C99.213 266.652 97.8483 269.137 97.948 272.425C98.0103 274.485 98.8366 276.162 100.611 277.202C101.391 277.659 102.237 278.033 103.096 278.296C105.446 279.017 107.885 279.176 110.313 279.369C110.635 279.395 110.958 279.421 111.279 279.457L111.253 274.522C110.881 274.517 110.509 274.512 110.138 274.502C109.209 274.479 108.28 274.505 107.352 274.46C106.525 274.423 105.724 274.144 105.044 273.655C104.024 272.93 103.691 271.564 104.21 270.416C105.259 268.099 108.898 266.64 111.071 268.459L111.221 268.584L111.191 263.079C110.482 262.897 109.752 262.812 109.022 262.825C108.7 262.83 108.379 262.824 107.97 262.823ZM111.328 288.96C110.23 289.088 109.192 288.851 108.376 287.955C107.891 287.418 107.439 286.85 107.022 286.256C106.743 285.862 106.442 285.686 105.977 285.824C104.979 286.121 103.974 286.397 102.978 286.703C102.717 286.786 102.47 286.91 102.246 287.07C101.788 287.398 101.672 287.755 101.95 288.232C102.498 289.175 102.972 290.176 103.779 290.935C105.633 292.676 107.784 293.559 110.307 293.383C110.626 293.361 110.947 293.356 111.33 293.34L111.352 293.418L111.328 288.96Z" fill="#FFBB43"/>
<path d="M307.639 154.663C305.881 159.141 303.761 163.374 300.261 166.775C296.79 170.147 292.671 172.268 287.834 172.849C284.542 173.245 281.233 173.465 277.919 173.065C272.937 172.464 268.586 170.429 264.651 167.378C260.513 164.168 257.3 160.245 255.274 155.43C252.323 148.415 252.333 141.41 255.595 134.457C257.324 130.773 259.767 127.673 262.977 125.157C266.16 122.664 269.73 120.948 273.699 120.257C276.377 119.79 279.122 119.604 281.845 119.509C285.507 119.381 288.981 120.373 292.344 121.742C293.59 122.25 294.81 122.821 296.044 123.359C298.231 124.314 300.231 125.553 301.876 127.292C302.496 127.949 303.086 128.655 303.57 129.414C304.856 131.43 306.298 133.387 307.277 135.548C309.336 140.093 309.786 144.9 308.808 149.805C308.483 151.437 308.032 153.044 307.639 154.663Z" fill="#FFCC66"/>
<path d="M292.346 121.742C291.956 121.583 291.564 121.43 291.171 121.282C290.48 121.556 289.789 121.83 289.098 122.105C287.816 122.616 286.532 123.125 285.266 123.675C284.605 123.964 284.408 124.394 284.617 124.846C284.811 125.264 285.213 125.394 285.837 125.165C288.433 124.212 291.027 123.255 293.614 122.28C293.193 122.096 292.771 121.915 292.346 121.742ZM274.585 120.114C273.064 121.606 271.548 123.104 270.033 124.603C269.83 124.804 269.629 125.03 269.5 125.282C269.277 125.717 269.473 126.185 269.898 126.354C270.353 126.546 270.636 126.304 270.946 126.007C273.125 123.92 275.315 121.845 277.503 119.767C276.527 119.853 275.554 119.969 274.585 120.114ZM299.752 125.436C299.131 124.989 298.481 124.582 297.808 124.217C295.63 124.888 293.456 125.573 291.281 126.257C291.011 126.342 290.727 126.472 290.524 126.661C290.068 127.084 290.236 127.806 290.922 128.017C291.088 127.977 291.367 127.922 291.639 127.842C294.318 127.05 296.997 126.254 299.675 125.46L299.752 125.436ZM286.255 119.863C285.314 119.684 284.363 119.57 283.407 119.521C281.674 120.564 279.942 121.609 278.213 122.659C277.969 122.807 277.727 122.99 277.549 123.209C277.294 123.524 277.268 123.936 277.59 124.186C277.806 124.355 278.167 124.367 278.468 124.393C278.586 124.403 278.717 124.258 278.842 124.186C281.233 122.794 283.628 121.407 286.014 120.008C286.096 119.961 286.175 119.912 286.255 119.863ZM305.175 131.861C303.959 132.089 302.744 132.324 301.531 132.564C300.854 132.704 300.187 132.887 299.534 133.112C298.966 133.305 298.718 133.737 298.832 134.175C298.945 134.614 299.346 134.769 299.989 134.648C302.055 134.255 304.122 133.869 306.187 133.478C305.862 132.932 305.524 132.393 305.175 131.861ZM301.884 152.766C301.641 152.821 301.333 153.026 301.253 153.239C301.172 153.455 301.268 153.806 301.409 154.016C301.533 154.2 301.815 154.303 302.048 154.385C303.282 154.814 305.81 155.504 305.834 155.434C306.273 155.582 306.711 155.732 307.149 155.881C307.317 155.478 307.48 155.071 307.64 154.664L307.74 154.258C306.074 153.793 304.408 153.331 302.74 152.872C302.462 152.795 302.149 152.708 301.884 152.766ZM299.645 167.354C297.973 165.997 296.298 164.642 294.624 163.286C294.484 163.172 294.355 163.041 294.207 162.939C293.859 162.702 293.516 162.743 293.211 163.015C292.878 163.31 292.933 163.661 293.133 164C293.224 164.154 293.356 164.285 293.474 164.423C294.853 166.036 296.479 167.355 298.185 168.58C298.683 168.195 299.17 167.786 299.645 167.354ZM303.235 163.267C302.058 162.403 300.862 161.564 299.664 160.73C299.191 160.4 298.667 160.143 298.244 159.898C297.649 159.7 297.218 159.831 297.023 160.214C296.82 160.613 296.963 160.977 297.422 161.314C298.987 162.457 300.549 163.605 302.112 164.752C302.504 164.271 302.879 163.775 303.235 163.267ZM277.883 172.729C277.38 171.373 276.871 170.019 276.375 168.661C276.216 168.225 275.919 167.982 275.466 168.079C275.025 168.174 274.806 168.506 274.838 168.967C274.851 169.145 274.874 169.329 274.932 169.497C275.309 170.588 275.685 171.68 276.064 172.769C276.678 172.891 277.298 172.99 277.92 173.065L278.012 173.075C277.969 172.96 277.926 172.844 277.883 172.729ZM308.151 137.77C306.741 138.005 305.331 138.243 303.922 138.487C303.605 138.542 303.255 138.619 303.009 138.802C302.816 138.946 302.657 139.277 302.67 139.514C302.683 139.747 302.932 139.967 303.059 140.166C303.388 140.163 303.607 140.186 303.817 140.155C305.425 139.921 307.032 139.685 308.639 139.445C308.498 138.88 308.336 138.322 308.151 137.77ZM305.804 158.872C304.809 158.399 303.814 157.931 302.826 157.464C302.519 157.318 302.2 157.2 301.871 157.113C301.753 157.082 301.635 157.057 301.516 157.045C301.008 156.993 300.587 157.271 300.501 157.665C300.409 158.087 300.654 158.436 301.167 158.627C301.503 158.753 301.847 158.865 302.169 159.022C303.115 159.483 304.059 159.948 305.003 160.415C305.282 159.908 305.548 159.393 305.804 158.872ZM271.187 166.84C271.161 166.698 271.182 166.507 271.097 166.424C270.881 166.213 270.625 165.919 270.37 165.904C270.117 165.89 269.847 166.175 269.64 166.296C269.61 166.609 269.555 166.794 269.582 166.967C269.778 168.246 269.965 169.527 270.165 170.806C270.78 171.099 271.407 171.367 272.044 171.611C271.756 170.021 271.473 168.43 271.187 166.84ZM302.133 127.567C300.722 127.917 299.313 128.272 297.905 128.633C297.166 128.823 296.913 129.157 297.034 129.647C297.152 130.123 297.535 130.291 298.277 130.187C298.422 130.167 298.564 130.136 298.706 130.105C300.25 129.759 301.795 129.415 303.338 129.064C302.97 128.539 302.567 128.039 302.133 127.567ZM292.11 166.435C291.845 166.116 291.551 165.975 291.163 166.146C290.731 166.337 290.562 166.696 290.73 167.124C290.901 167.556 291.096 168.004 291.386 168.359C292.173 169.324 292.976 170.275 293.784 171.223C294.346 170.973 294.895 170.698 295.432 170.399C294.325 169.078 293.213 167.76 292.11 166.435ZM309.296 144.278C309.281 143.689 309.242 143.101 309.181 142.515C307.769 142.624 306.358 142.739 304.946 142.852C304.439 142.893 303.928 142.906 303.428 142.986C303.041 143.048 302.704 143.299 302.786 143.717C302.846 144.024 303.112 144.29 303.251 144.517C303.656 144.53 303.91 144.555 304.162 144.542C305.873 144.458 307.585 144.37 309.296 144.278ZM289.95 172.487C289.082 171.241 288.203 170.002 287.329 168.76C287.247 168.642 287.176 168.465 287.063 168.43C286.776 168.342 286.441 168.217 286.177 168.292C285.784 168.403 285.683 168.792 285.765 169.181C285.801 169.352 285.892 169.519 285.99 169.668C286.685 170.718 287.381 171.769 288.079 172.817C288.707 172.735 289.332 172.624 289.95 172.487ZM282.722 168.957C282.602 168.716 282.378 168.525 282.286 168.413C281.648 168.236 281.138 168.6 281.181 169.109C281.211 169.458 281.347 169.809 281.492 170.135C281.953 171.177 282.421 172.216 282.89 173.256L282.891 173.256C283.033 173.251 283.174 173.245 283.316 173.239L283.408 173.235C283.55 173.228 283.693 173.221 283.836 173.214L283.842 173.213C284.156 173.196 284.47 173.176 284.784 173.152C284.106 171.749 283.419 170.35 282.722 168.957ZM266.966 169.019C266.76 167.364 266.545 165.71 266.327 164.057C266.215 163.209 265.954 162.893 265.436 162.933C264.893 162.975 264.692 163.319 264.712 164.166C264.713 164.239 264.709 164.311 264.716 164.383C264.832 165.486 264.947 166.588 265.064 167.69C265.682 168.156 266.316 168.599 266.966 169.019ZM309.055 147.954L304.351 147.614C303.819 147.576 303.449 147.736 303.351 148.202C303.258 148.643 303.549 148.965 304.268 149.202C304.384 149.23 304.552 149.291 304.72 149.308C306.089 149.444 307.458 149.579 308.827 149.711C308.927 149.129 309.002 148.542 309.055 147.954ZM262.764 160.969C262.793 160.308 262.633 159.929 262.194 159.839C261.754 159.748 261.352 160.051 261.148 160.673C260.975 161.703 260.803 162.755 260.738 163.822C261.327 164.453 261.946 165.061 262.593 165.648C262.648 164.088 262.694 162.528 262.764 160.969Z" fill="#FFBB43"/>
<path d="M303.442 153.281C301.823 157.405 299.871 161.304 296.647 164.436C293.45 167.541 289.656 169.496 285.201 170.031C282.17 170.396 279.121 170.599 276.069 170.23C271.48 169.676 267.473 167.802 263.848 164.991C260.037 162.035 257.078 158.422 255.212 153.987C252.493 147.526 252.503 141.074 255.507 134.67C257.099 131.277 259.35 128.421 262.307 126.104C265.238 123.808 268.527 122.227 272.182 121.59C274.649 121.16 277.177 120.989 279.685 120.901C283.058 120.783 286.258 121.697 289.355 122.959C290.503 123.426 291.626 123.952 292.763 124.448C294.778 125.327 296.62 126.468 298.134 128.07C298.706 128.675 299.249 129.325 299.695 130.024C300.879 131.881 302.208 133.684 303.11 135.674C305.007 139.86 305.421 144.288 304.52 148.806C304.221 150.31 303.805 151.79 303.442 153.281Z" fill="#FFBB43"/>
<path d="M301.339 152.622C299.857 156.398 298.07 159.966 295.119 162.833C292.193 165.676 288.72 167.465 284.642 167.955C281.867 168.289 279.077 168.474 276.283 168.137C272.083 167.63 268.415 165.915 265.097 163.342C261.609 160.636 258.9 157.328 257.192 153.269C254.703 147.355 254.712 141.449 257.462 135.587C258.919 132.481 260.979 129.867 263.686 127.746C266.369 125.645 269.379 124.198 272.726 123.615C274.984 123.222 277.298 123.065 279.594 122.984C282.682 122.876 285.61 123.713 288.445 124.867C289.496 125.295 290.525 125.777 291.564 126.23C293.409 127.035 295.095 128.08 296.481 129.546C297.003 130.1 297.5 130.695 297.909 131.335C298.993 133.034 300.209 134.685 301.035 136.507C302.771 140.338 303.151 144.391 302.326 148.526C302.051 149.902 301.671 151.258 301.339 152.622Z" fill="#FFCC66"/>
<path d="M276.395 158.895C276.142 159.635 275.863 160.468 275.573 161.298C275.335 161.978 275.208 162.062 274.512 161.826C273.579 161.51 272.659 161.155 271.742 160.794C271.197 160.58 271.11 160.366 271.298 159.788C271.547 159.024 271.814 158.267 272.088 157.465C271.788 157.276 271.542 157.112 271.289 156.962C269.282 155.773 268.099 154.004 267.58 151.764C267.354 150.788 267.506 149.808 267.571 148.833C267.604 148.34 267.875 148.139 268.39 148.139C268.642 148.139 268.893 148.177 269.134 148.253C270.047 148.549 270.951 148.873 271.861 149.178C272.285 149.319 272.423 149.605 272.434 150.039C272.451 150.69 272.498 151.345 272.595 151.987C272.773 153.168 273.55 153.912 274.577 154.391C275.723 154.925 276.979 155.158 278.205 154.933C281.137 154.393 282.216 152.04 280.939 149.433C280.392 148.314 279.419 147.507 278.451 146.726C276.705 145.317 274.934 143.927 273.516 142.172C272.996 141.525 272.55 140.822 272.188 140.075C271.371 138.388 271.6 136.732 272.606 135.194C274.209 132.74 276.515 131.637 279.442 131.811C279.819 131.833 280.194 131.882 280.65 131.927C280.788 131.567 280.935 131.203 281.067 130.832C281.229 130.382 281.374 129.925 281.533 129.474C281.709 128.976 281.9 128.821 282.37 128.959C283.387 129.256 284.389 129.603 285.393 129.942C285.79 130.076 285.926 130.399 285.865 130.784C285.799 131.205 285.707 131.625 285.589 132.035C285.458 132.492 285.287 132.938 285.124 133.414C285.434 133.628 285.675 133.8 285.92 133.965C288.829 135.919 289.339 138.672 289.209 141.925C289.189 142.414 288.909 142.648 288.411 142.639C288.134 142.63 287.861 142.579 287.599 142.488C286.977 142.277 286.371 142.02 285.75 141.808C285.237 141.632 284.99 141.332 284.954 140.761C284.919 140.219 284.754 139.679 284.6 139.152C283.878 136.688 280.368 135.852 278.388 136.998C277.407 137.565 276.962 138.738 277.366 139.8C277.634 140.513 278.099 141.135 278.709 141.594C279.39 142.11 280.11 142.578 280.803 143.08C281.742 143.759 282.709 144.407 283.599 145.144C286.169 147.272 287.259 150.987 286.143 153.946C285.651 155.251 284.871 156.353 283.721 157.158C282.545 157.981 281.251 158.544 279.805 158.674C278.729 158.769 277.647 158.815 276.395 158.895Z" fill="#FFB031"/>
<path d="M285.123 133.413C285.285 132.937 285.457 132.492 285.588 132.035C285.705 131.624 285.797 131.206 285.864 130.784C285.924 130.398 285.788 130.075 285.391 129.941C284.388 129.602 283.386 129.255 282.369 128.959C281.898 128.821 281.708 128.976 281.532 129.474C281.373 129.925 281.228 130.382 281.066 130.832C280.934 131.202 280.787 131.568 280.649 131.927C280.193 131.882 279.817 131.833 279.441 131.811C276.515 131.637 274.209 132.739 272.605 135.193C271.6 136.731 271.371 138.388 272.188 140.075C272.546 140.816 272.998 141.531 273.516 142.172C274.934 143.926 276.705 145.317 278.451 146.726C278.682 146.912 278.914 147.1 279.139 147.294L281.64 143.675C281.36 143.477 281.081 143.279 280.803 143.078C280.109 142.577 279.391 142.11 278.709 141.592C278.099 141.134 277.634 140.511 277.366 139.799C276.962 138.737 277.407 137.564 278.388 136.996C280.368 135.851 283.878 136.686 284.599 139.15L284.649 139.32L287.438 135.283C286.993 134.779 286.482 134.336 285.921 133.964C285.674 133.8 285.433 133.628 285.123 133.413ZM274.322 154.263C273.422 153.783 272.756 153.068 272.593 151.987C272.5 151.341 272.446 150.69 272.433 150.038C272.422 149.604 272.283 149.319 271.86 149.177C270.949 148.873 270.045 148.549 269.133 148.252C268.892 148.177 268.641 148.138 268.389 148.139C267.874 148.139 267.603 148.339 267.57 148.832C267.505 149.808 267.353 150.787 267.579 151.763C268.098 154.003 269.281 155.772 271.287 156.961C271.541 157.111 271.787 157.275 272.087 157.464L272.063 157.532L274.322 154.263Z" fill="#FFBB43"/>
<path d="M223.974 300.725L212.674 311.99C211.746 312.915 211.964 314.384 213.11 315.037C216.823 317.214 220.262 319.826 223.319 322.874C226.376 325.922 228.997 329.35 231.18 333.051C231.836 334.139 233.309 334.357 234.238 333.486L245.538 322.221C246.139 321.622 246.248 320.752 245.92 319.99C243.846 315.69 241.171 311.826 237.786 308.507C234.401 305.133 230.525 302.466 226.267 300.398C225.448 300.017 224.575 300.126 223.974 300.725Z" fill="url(#paint56_linear_838_55548)"/>
<path d="M494.53 193.915L505.853 205.181C506.783 206.106 508.26 205.888 508.916 204.745C511.104 201.045 513.73 197.616 516.793 194.568C519.857 191.52 523.303 188.908 527.022 186.731C528.116 186.078 528.335 184.609 527.46 183.683L516.137 172.472C515.535 171.873 514.66 171.765 513.894 172.091C509.573 174.159 505.689 176.826 502.352 180.2C498.961 183.574 496.28 187.439 494.202 191.684C493.819 192.446 493.983 193.371 494.53 193.915Z" fill="url(#paint57_linear_838_55548)"/>
<path d="M372.53 276.659L361.23 287.929C360.302 288.855 360.52 290.325 361.666 290.978C365.379 293.156 368.818 295.769 371.875 298.818C374.932 301.867 377.553 305.297 379.736 309C380.391 310.088 381.865 310.306 382.794 309.435L394.094 298.165C394.695 297.566 394.804 296.695 394.476 295.933C392.402 291.632 389.727 287.766 386.342 284.445C382.957 281.069 379.081 278.402 374.823 276.333C374.004 275.952 373.131 276.115 372.53 276.659Z" fill="url(#paint58_linear_838_55548)"/>
<path d="M25.6219 285.659L36.9357 296.925C37.8648 297.85 39.3405 297.632 39.9964 296.489C42.1827 292.789 44.8061 289.36 47.8669 286.312C50.9276 283.264 54.3709 280.652 58.0875 278.475C59.1807 277.822 59.3993 276.353 58.5248 275.427L47.1563 264.216C46.5551 263.618 45.6806 263.509 44.9155 263.835C40.5976 265.903 36.7171 268.57 33.383 271.944C29.9944 275.319 27.3162 279.183 25.2393 283.428C24.9114 284.19 25.0207 285.115 25.6219 285.659Z" fill="url(#paint59_linear_838_55548)"/>
<path d="M448.353 215.377V231.439C448.353 232.7 449.552 233.632 450.806 233.303C454.951 232.207 459.204 231.604 463.566 231.604C467.928 231.604 472.182 232.152 476.326 233.303C477.58 233.632 478.78 232.7 478.78 231.439V215.377C478.78 214.555 478.234 213.788 477.471 213.514C473 211.924 468.31 211.102 463.566 211.102C458.822 211.102 454.187 211.924 449.661 213.514C448.898 213.843 448.353 214.555 448.353 215.377Z" fill="url(#paint60_linear_838_55548)"/>
<path d="M330.469 11.2379L319.169 22.8045C318.241 23.7544 318.459 25.2631 319.605 25.9337C323.318 28.1688 326.757 30.8509 329.814 33.98C332.871 37.1092 335.492 40.6295 337.675 44.4291C338.33 45.5467 339.804 45.7702 340.732 44.8761L352.033 33.3095C352.634 32.6949 352.743 31.8008 352.415 31.0185C350.341 26.6042 347.666 22.6369 344.281 19.2284C340.896 15.764 337.02 13.026 332.762 10.9026C331.943 10.5115 331.015 10.6791 330.469 11.2379Z" fill="url(#paint61_linear_838_55548)"/>
<path d="M190.022 0.572101L178.667 11.8294C177.739 12.7539 177.957 14.2223 179.104 14.8749C182.816 17.0502 186.255 19.6062 189.312 22.706C192.37 25.7515 194.99 29.1776 197.174 32.8756C197.829 33.9633 199.303 34.1808 200.231 33.3107L211.531 22.0534C212.132 21.4552 212.241 20.5851 211.913 19.8237C209.839 15.5274 207.164 11.6662 203.779 8.34888C200.395 4.97713 196.519 2.31236 192.26 0.245802C191.496 -0.189263 190.568 -0.0261133 190.022 0.572101Z" fill="url(#paint62_linear_838_55548)"/>
<path d="M321.069 95.3821L324.397 110.947C324.67 112.225 326.026 112.843 327.201 112.241C331.056 110.328 335.129 108.879 339.36 107.987C343.592 107.094 347.906 106.774 352.211 106.966C353.484 107.011 354.471 105.899 354.243 104.651L350.915 89.0861C350.738 88.259 350.064 87.6938 349.244 87.5524C344.494 86.9435 339.784 87.0727 335.145 88.0905C330.46 89.0788 326.104 90.8622 322.043 93.2905C321.26 93.6914 320.892 94.555 321.069 95.3821Z" fill="url(#paint63_linear_838_55548)"/>
</g>
<defs>
<linearGradient id="paint0_linear_838_55548" x1="375.104" y1="112.091" x2="411.776" y2="118.075" gradientUnits="userSpaceOnUse">
<stop stop-color="#FEF48B"/>
<stop offset="0.165" stop-color="#FDF286"/>
<stop offset="0.335" stop-color="#FDEE7A"/>
<stop offset="0.509" stop-color="#FCE765"/>
<stop offset="0.684" stop-color="#FCDE48"/>
<stop offset="0.859" stop-color="#FBD123"/>
<stop offset="1" stop-color="#FAC600"/>
</linearGradient>
<linearGradient id="paint1_linear_838_55548" x1="414.517" y1="78.1213" x2="396.772" y2="86.9525" gradientUnits="userSpaceOnUse">
<stop stop-color="#FE9738" stop-opacity="0"/>
<stop offset="0.121" stop-color="#FE9738" stop-opacity="0.016"/>
<stop offset="0.246" stop-color="#FE9738" stop-opacity="0.065"/>
<stop offset="0.373" stop-color="#FE9738" stop-opacity="0.147"/>
<stop offset="0.502" stop-color="#FE9738" stop-opacity="0.262"/>
<stop offset="0.632" stop-color="#FE9738" stop-opacity="0.41"/>
<stop offset="0.762" stop-color="#FE9738" stop-opacity="0.59"/>
<stop offset="0.892" stop-color="#FE9738" stop-opacity="0.8"/>
<stop offset="1" stop-color="#FE9738"/>
</linearGradient>
<linearGradient id="paint2_linear_838_55548" x1="391.042" y1="121.119" x2="379.911" y2="131.112" gradientUnits="userSpaceOnUse">
<stop stop-color="#FE9738" stop-opacity="0"/>
<stop offset="0.121" stop-color="#FE9738" stop-opacity="0.016"/>
<stop offset="0.246" stop-color="#FE9738" stop-opacity="0.065"/>
<stop offset="0.373" stop-color="#FE9738" stop-opacity="0.147"/>
<stop offset="0.502" stop-color="#FE9738" stop-opacity="0.262"/>
<stop offset="0.632" stop-color="#FE9738" stop-opacity="0.41"/>
<stop offset="0.762" stop-color="#FE9738" stop-opacity="0.59"/>
<stop offset="0.892" stop-color="#FE9738" stop-opacity="0.8"/>
<stop offset="1" stop-color="#FE9738"/>
</linearGradient>
<linearGradient id="paint3_linear_838_55548" x1="445.367" y1="142.884" x2="472.598" y2="168.054" gradientUnits="userSpaceOnUse">
<stop stop-color="#99E6FC"/>
<stop offset="0.157" stop-color="#94E3FC"/>
<stop offset="0.32" stop-color="#88DBFC"/>
<stop offset="0.486" stop-color="#73CDFC"/>
<stop offset="0.653" stop-color="#56BAFC"/>
<stop offset="0.822" stop-color="#31A1FC"/>
<stop offset="0.99" stop-color="#0483FC"/>
<stop offset="1" stop-color="#0182FC"/>
</linearGradient>
<linearGradient id="paint4_linear_838_55548" x1="497.057" y1="136.111" x2="477.369" y2="133.668" gradientUnits="userSpaceOnUse">
<stop stop-color="#0172FB" stop-opacity="0"/>
<stop offset="0.121" stop-color="#0172FB" stop-opacity="0.017"/>
<stop offset="0.247" stop-color="#0172FB" stop-opacity="0.066"/>
<stop offset="0.375" stop-color="#0172FB" stop-opacity="0.149"/>
<stop offset="0.505" stop-color="#0172FB" stop-opacity="0.265"/>
<stop offset="0.635" stop-color="#0172FB" stop-opacity="0.414"/>
<stop offset="0.767" stop-color="#0172FB" stop-opacity="0.598"/>
<stop offset="0.897" stop-color="#0172FB" stop-opacity="0.81"/>
<stop offset="1" stop-color="#0172FB"/>
</linearGradient>
<linearGradient id="paint5_linear_838_55548" x1="453.682" y1="159.151" x2="438.856" y2="161.349" gradientUnits="userSpaceOnUse">
<stop stop-color="#0172FB" stop-opacity="0"/>
<stop offset="0.121" stop-color="#0172FB" stop-opacity="0.017"/>
<stop offset="0.247" stop-color="#0172FB" stop-opacity="0.066"/>
<stop offset="0.375" stop-color="#0172FB" stop-opacity="0.149"/>
<stop offset="0.505" stop-color="#0172FB" stop-opacity="0.265"/>
<stop offset="0.635" stop-color="#0172FB" stop-opacity="0.414"/>
<stop offset="0.767" stop-color="#0172FB" stop-opacity="0.598"/>
<stop offset="0.897" stop-color="#0172FB" stop-opacity="0.81"/>
<stop offset="1" stop-color="#0172FB"/>
</linearGradient>
<linearGradient id="paint6_linear_838_55548" x1="312.298" y1="223.992" x2="375.742" y2="287.732" gradientUnits="userSpaceOnUse">
<stop stop-color="#FEAEE1"/>
<stop offset="0.169" stop-color="#FEA9DF"/>
<stop offset="0.344" stop-color="#FE9DD9"/>
<stop offset="0.522" stop-color="#FE88D0"/>
<stop offset="0.702" stop-color="#FE6BC4"/>
<stop offset="0.882" stop-color="#FE46B4"/>
<stop offset="1" stop-color="#FE2AA8"/>
</linearGradient>
<linearGradient id="paint7_linear_838_55548" x1="357.397" y1="269.259" x2="366.691" y2="299.14" gradientUnits="userSpaceOnUse">
<stop stop-color="#C00148" stop-opacity="0"/>
<stop offset="0.139" stop-color="#C00148" stop-opacity="0.022"/>
<stop offset="0.284" stop-color="#C00148" stop-opacity="0.087"/>
<stop offset="0.431" stop-color="#C00148" stop-opacity="0.195"/>
<stop offset="0.579" stop-color="#C00148" stop-opacity="0.346"/>
<stop offset="0.729" stop-color="#C00148" stop-opacity="0.541"/>
<stop offset="0.878" stop-color="#C00148" stop-opacity="0.777"/>
<stop offset="1" stop-color="#C00148"/>
</linearGradient>
<linearGradient id="paint8_linear_838_55548" x1="338.268" y1="203.179" x2="394.813" y2="241.679" gradientUnits="userSpaceOnUse">
<stop stop-color="#FEF48B"/>
<stop offset="0.165" stop-color="#FDF286"/>
<stop offset="0.335" stop-color="#FDEE7A"/>
<stop offset="0.509" stop-color="#FCE765"/>
<stop offset="0.684" stop-color="#FCDE48"/>
<stop offset="0.859" stop-color="#FBD123"/>
<stop offset="1" stop-color="#FAC600"/>
</linearGradient>
<linearGradient id="paint9_linear_838_55548" x1="298.996" y1="237.232" x2="362.438" y2="300.973" gradientUnits="userSpaceOnUse">
<stop stop-color="#FEF48B"/>
<stop offset="0.165" stop-color="#FDF286"/>
<stop offset="0.335" stop-color="#FDEE7A"/>
<stop offset="0.509" stop-color="#FCE765"/>
<stop offset="0.684" stop-color="#FCDE48"/>
<stop offset="0.859" stop-color="#FBD123"/>
<stop offset="1" stop-color="#FAC600"/>
</linearGradient>
<linearGradient id="paint10_linear_838_55548" x1="343.554" y1="302.779" x2="336.552" y2="317.369" gradientUnits="userSpaceOnUse">
<stop stop-color="#FE9738" stop-opacity="0"/>
<stop offset="0.121" stop-color="#FE9738" stop-opacity="0.016"/>
<stop offset="0.246" stop-color="#FE9738" stop-opacity="0.065"/>
<stop offset="0.373" stop-color="#FE9738" stop-opacity="0.147"/>
<stop offset="0.502" stop-color="#FE9738" stop-opacity="0.262"/>
<stop offset="0.632" stop-color="#FE9738" stop-opacity="0.41"/>
<stop offset="0.762" stop-color="#FE9738" stop-opacity="0.59"/>
<stop offset="0.892" stop-color="#FE9738" stop-opacity="0.8"/>
<stop offset="1" stop-color="#FE9738"/>
</linearGradient>
<linearGradient id="paint11_linear_838_55548" x1="349.328" y1="282.91" x2="357.387" y2="302.53" gradientUnits="userSpaceOnUse">
<stop stop-color="#FE9738" stop-opacity="0"/>
<stop offset="0.121" stop-color="#FE9738" stop-opacity="0.016"/>
<stop offset="0.246" stop-color="#FE9738" stop-opacity="0.065"/>
<stop offset="0.373" stop-color="#FE9738" stop-opacity="0.147"/>
<stop offset="0.502" stop-color="#FE9738" stop-opacity="0.262"/>
<stop offset="0.632" stop-color="#FE9738" stop-opacity="0.41"/>
<stop offset="0.762" stop-color="#FE9738" stop-opacity="0.59"/>
<stop offset="0.892" stop-color="#FE9738" stop-opacity="0.8"/>
<stop offset="1" stop-color="#FE9738"/>
</linearGradient>
<linearGradient id="paint12_linear_838_55548" x1="277.57" y1="303.843" x2="300.006" y2="326.385" gradientUnits="userSpaceOnUse">
<stop stop-color="#99E6FC"/>
<stop offset="0.157" stop-color="#94E3FC"/>
<stop offset="0.32" stop-color="#88DBFC"/>
<stop offset="0.486" stop-color="#73CDFC"/>
<stop offset="0.653" stop-color="#56BAFC"/>
<stop offset="0.822" stop-color="#31A1FC"/>
<stop offset="0.99" stop-color="#0483FC"/>
<stop offset="1" stop-color="#0182FC"/>
</linearGradient>
<linearGradient id="paint13_linear_838_55548" x1="284.037" y1="318.695" x2="272.713" y2="330.071" gradientUnits="userSpaceOnUse">
<stop stop-color="#0172FB" stop-opacity="0"/>
<stop offset="0.121" stop-color="#0172FB" stop-opacity="0.017"/>
<stop offset="0.247" stop-color="#0172FB" stop-opacity="0.066"/>
<stop offset="0.375" stop-color="#0172FB" stop-opacity="0.149"/>
<stop offset="0.505" stop-color="#0172FB" stop-opacity="0.265"/>
<stop offset="0.635" stop-color="#0172FB" stop-opacity="0.414"/>
<stop offset="0.767" stop-color="#0172FB" stop-opacity="0.598"/>
<stop offset="0.897" stop-color="#0172FB" stop-opacity="0.81"/>
<stop offset="1" stop-color="#0172FB"/>
</linearGradient>
<linearGradient id="paint14_linear_838_55548" x1="407.224" y1="173.605" x2="359.69" y2="299.252" gradientUnits="userSpaceOnUse">
<stop stop-color="#C8EFFE"/>
<stop offset="1" stop-color="#62DBFB"/>
</linearGradient>
<linearGradient id="paint15_linear_838_55548" x1="254.966" y1="250.562" x2="308.954" y2="250.039" gradientUnits="userSpaceOnUse">
<stop stop-color="#07B2CD" stop-opacity="0"/>
<stop offset="0.455" stop-color="#05A5CE" stop-opacity="0.455"/>
<stop offset="1" stop-color="#0290CF"/>
</linearGradient>
<linearGradient id="paint16_linear_838_55548" x1="141.723" y1="242.858" x2="245.159" y2="317.342" gradientUnits="userSpaceOnUse">
<stop stop-color="#07B2CD" stop-opacity="0"/>
<stop offset="0.455" stop-color="#05A5CE" stop-opacity="0.455"/>
<stop offset="1" stop-color="#0290CF"/>
</linearGradient>
<linearGradient id="paint17_linear_838_55548" x1="148.382" y1="230.858" x2="134.635" y2="205.319" gradientUnits="userSpaceOnUse">
<stop stop-color="#07B2CD" stop-opacity="0"/>
<stop offset="0.455" stop-color="#05A5CE" stop-opacity="0.455"/>
<stop offset="1" stop-color="#0290CF"/>
</linearGradient>
<linearGradient id="paint18_linear_838_55548" x1="190.437" y1="255.959" x2="173.916" y2="257.411" gradientUnits="userSpaceOnUse">
<stop stop-color="#07B2CD" stop-opacity="0"/>
<stop offset="0.455" stop-color="#05A5CE" stop-opacity="0.455"/>
<stop offset="1" stop-color="#0290CF"/>
</linearGradient>
<linearGradient id="paint19_linear_838_55548" x1="202.807" y1="283.167" x2="205.869" y2="318.338" gradientUnits="userSpaceOnUse">
<stop stop-color="#07B2CD" stop-opacity="0"/>
<stop offset="0.455" stop-color="#05A5CE" stop-opacity="0.455"/>
<stop offset="1" stop-color="#0290CF"/>
</linearGradient>
<linearGradient id="paint20_linear_838_55548" x1="154.245" y1="257.791" x2="179.99" y2="259.281" gradientUnits="userSpaceOnUse">
<stop stop-color="#FDB4BA"/>
<stop offset="1" stop-color="#FE5694"/>
</linearGradient>
<linearGradient id="paint21_linear_838_55548" x1="166.952" y1="234.091" x2="149.395" y2="201.302" gradientUnits="userSpaceOnUse">
<stop stop-color="#FD3581" stop-opacity="0"/>
<stop offset="0.281" stop-color="#FA317D" stop-opacity="0.282"/>
<stop offset="0.56" stop-color="#F02571" stop-opacity="0.56"/>
<stop offset="0.838" stop-color="#DF115E" stop-opacity="0.838"/>
<stop offset="1" stop-color="#D2024E"/>
</linearGradient>
<linearGradient id="paint22_linear_838_55548" x1="168.126" y1="314.341" x2="168.804" y2="322.127" gradientUnits="userSpaceOnUse">
<stop stop-color="#FD3581" stop-opacity="0"/>
<stop offset="0.281" stop-color="#FA317D" stop-opacity="0.282"/>
<stop offset="0.56" stop-color="#F02571" stop-opacity="0.56"/>
<stop offset="0.838" stop-color="#DF115E" stop-opacity="0.838"/>
<stop offset="1" stop-color="#D2024E"/>
</linearGradient>
<linearGradient id="paint23_linear_838_55548" x1="101.91" y1="176.318" x2="126.455" y2="182.641" gradientUnits="userSpaceOnUse">
<stop stop-color="#FDB4BA"/>
<stop offset="1" stop-color="#FE5694"/>
</linearGradient>
<linearGradient id="paint24_linear_838_55548" x1="115.845" y1="192.598" x2="116.573" y2="174.061" gradientUnits="userSpaceOnUse">
<stop stop-color="#FD3581" stop-opacity="0"/>
<stop offset="0.281" stop-color="#FA317D" stop-opacity="0.282"/>
<stop offset="0.56" stop-color="#F02571" stop-opacity="0.56"/>
<stop offset="0.838" stop-color="#DF115E" stop-opacity="0.838"/>
<stop offset="1" stop-color="#D2024E"/>
</linearGradient>
<linearGradient id="paint25_linear_838_55548" x1="130.152" y1="190.5" x2="113.566" y2="171.083" gradientUnits="userSpaceOnUse">
<stop stop-color="#FD3581" stop-opacity="0"/>
<stop offset="0.281" stop-color="#FA317D" stop-opacity="0.282"/>
<stop offset="0.56" stop-color="#F02571" stop-opacity="0.56"/>
<stop offset="0.838" stop-color="#DF115E" stop-opacity="0.838"/>
<stop offset="1" stop-color="#D2024E"/>
</linearGradient>
<linearGradient id="paint26_linear_838_55548" x1="118.271" y1="189.071" x2="126.65" y2="203.628" gradientUnits="userSpaceOnUse">
<stop stop-color="#FD3581" stop-opacity="0"/>
<stop offset="0.281" stop-color="#FA317D" stop-opacity="0.282"/>
<stop offset="0.56" stop-color="#F02571" stop-opacity="0.56"/>
<stop offset="0.838" stop-color="#DF115E" stop-opacity="0.838"/>
<stop offset="1" stop-color="#D2024E"/>
</linearGradient>
<linearGradient id="paint27_linear_838_55548" x1="84.2922" y1="153.934" x2="113.015" y2="159.516" gradientUnits="userSpaceOnUse">
<stop stop-color="#FDB4BA"/>
<stop offset="1" stop-color="#FE5694"/>
</linearGradient>
<linearGradient id="paint28_linear_838_55548" x1="106.333" y1="161.289" x2="118.835" y2="149.005" gradientUnits="userSpaceOnUse">
<stop stop-color="#FD3581" stop-opacity="0"/>
<stop offset="0.281" stop-color="#FA317D" stop-opacity="0.282"/>
<stop offset="0.56" stop-color="#F02571" stop-opacity="0.56"/>
<stop offset="0.838" stop-color="#DF115E" stop-opacity="0.838"/>
<stop offset="1" stop-color="#D2024E"/>
</linearGradient>
<linearGradient id="paint29_linear_838_55548" x1="109.122" y1="170.95" x2="118.862" y2="158.605" gradientUnits="userSpaceOnUse">
<stop stop-color="#FD3581" stop-opacity="0"/>
<stop offset="0.281" stop-color="#FA317D" stop-opacity="0.282"/>
<stop offset="0.56" stop-color="#F02571" stop-opacity="0.56"/>
<stop offset="0.838" stop-color="#DF115E" stop-opacity="0.838"/>
<stop offset="1" stop-color="#D2024E"/>
</linearGradient>
<linearGradient id="paint30_linear_838_55548" x1="154.789" y1="147.398" x2="148.052" y2="171.726" gradientUnits="userSpaceOnUse">
<stop stop-color="#FDB4BA"/>
<stop offset="1" stop-color="#FE5694"/>
</linearGradient>
<linearGradient id="paint31_linear_838_55548" x1="162.012" y1="167.54" x2="145.539" y2="158.862" gradientUnits="userSpaceOnUse">
<stop stop-color="#FD3581" stop-opacity="0"/>
<stop offset="0.281" stop-color="#FA317D" stop-opacity="0.282"/>
<stop offset="0.56" stop-color="#F02571" stop-opacity="0.56"/>
<stop offset="0.838" stop-color="#DF115E" stop-opacity="0.838"/>
<stop offset="1" stop-color="#D2024E"/>
</linearGradient>
<linearGradient id="paint32_linear_838_55548" x1="153.047" y1="178.835" x2="144.598" y2="154.776" gradientUnits="userSpaceOnUse">
<stop stop-color="#FD3581" stop-opacity="0"/>
<stop offset="0.281" stop-color="#FA317D" stop-opacity="0.282"/>
<stop offset="0.56" stop-color="#F02571" stop-opacity="0.56"/>
<stop offset="0.838" stop-color="#DF115E" stop-opacity="0.838"/>
<stop offset="1" stop-color="#D2024E"/>
</linearGradient>
<linearGradient id="paint33_linear_838_55548" x1="157.731" y1="167.874" x2="166.107" y2="182.433" gradientUnits="userSpaceOnUse">
<stop stop-color="#FD3581" stop-opacity="0"/>
<stop offset="0.281" stop-color="#FA317D" stop-opacity="0.282"/>
<stop offset="0.56" stop-color="#F02571" stop-opacity="0.56"/>
<stop offset="0.838" stop-color="#DF115E" stop-opacity="0.838"/>
<stop offset="1" stop-color="#D2024E"/>
</linearGradient>
<linearGradient id="paint34_linear_838_55548" x1="144.091" y1="121.033" x2="134.65" y2="148.604" gradientUnits="userSpaceOnUse">
<stop stop-color="#FDB4BA"/>
<stop offset="1" stop-color="#FE5694"/>
</linearGradient>
<linearGradient id="paint35_linear_838_55548" x1="139.497" y1="143.714" x2="122.597" y2="148.489" gradientUnits="userSpaceOnUse">
<stop stop-color="#FD3581" stop-opacity="0"/>
<stop offset="0.281" stop-color="#FA317D" stop-opacity="0.282"/>
<stop offset="0.56" stop-color="#F02571" stop-opacity="0.56"/>
<stop offset="0.838" stop-color="#DF115E" stop-opacity="0.838"/>
<stop offset="1" stop-color="#D2024E"/>
</linearGradient>
<linearGradient id="paint36_linear_838_55548" x1="146.517" y1="150.941" x2="130.922" y2="153.275" gradientUnits="userSpaceOnUse">
<stop stop-color="#FD3581" stop-opacity="0"/>
<stop offset="0.281" stop-color="#FA317D" stop-opacity="0.282"/>
<stop offset="0.56" stop-color="#F02571" stop-opacity="0.56"/>
<stop offset="0.838" stop-color="#DF115E" stop-opacity="0.838"/>
<stop offset="1" stop-color="#D2024E"/>
</linearGradient>
<linearGradient id="paint37_linear_838_55548" x1="118.151" y1="159.478" x2="133.701" y2="162.052" gradientUnits="userSpaceOnUse">
<stop stop-color="#FDB4BA"/>
<stop offset="1" stop-color="#FE5694"/>
</linearGradient>
<linearGradient id="paint38_linear_838_55548" x1="120.174" y1="159.379" x2="122.152" y2="148.973" gradientUnits="userSpaceOnUse">
<stop stop-color="#FD3581" stop-opacity="0"/>
<stop offset="0.281" stop-color="#FA317D" stop-opacity="0.282"/>
<stop offset="0.56" stop-color="#F02571" stop-opacity="0.56"/>
<stop offset="0.838" stop-color="#DF115E" stop-opacity="0.838"/>
<stop offset="1" stop-color="#D2024E"/>
</linearGradient>
<linearGradient id="paint39_linear_838_55548" x1="127.742" y1="163.948" x2="133.187" y2="173.408" gradientUnits="userSpaceOnUse">
<stop stop-color="#FD3581" stop-opacity="0"/>
<stop offset="0.281" stop-color="#FA317D" stop-opacity="0.282"/>
<stop offset="0.56" stop-color="#F02571" stop-opacity="0.56"/>
<stop offset="0.838" stop-color="#DF115E" stop-opacity="0.838"/>
<stop offset="1" stop-color="#D2024E"/>
</linearGradient>
<linearGradient id="paint40_linear_838_55548" x1="108.177" y1="162.881" x2="172.766" y2="206.914" gradientUnits="userSpaceOnUse">
<stop stop-color="#C8EFFE"/>
<stop offset="1" stop-color="#62DBFB"/>
</linearGradient>
<linearGradient id="paint41_linear_838_55548" x1="189.711" y1="158.5" x2="234.297" y2="137.044" gradientUnits="userSpaceOnUse">
<stop stop-color="#07B2CD" stop-opacity="0"/>
<stop offset="0.455" stop-color="#05A5CE" stop-opacity="0.455"/>
<stop offset="1" stop-color="#0290CF"/>
</linearGradient>
<linearGradient id="paint42_linear_838_55548" x1="168.378" y1="170.499" x2="148.767" y2="181.893" gradientUnits="userSpaceOnUse">
<stop stop-color="#07B2CD" stop-opacity="0"/>
<stop offset="0.455" stop-color="#05A5CE" stop-opacity="0.455"/>
<stop offset="1" stop-color="#0290CF"/>
</linearGradient>
<linearGradient id="paint43_linear_838_55548" x1="146.345" y1="193.409" x2="151.865" y2="203" gradientUnits="userSpaceOnUse">
<stop stop-color="#07B2CD" stop-opacity="0"/>
<stop offset="0.455" stop-color="#05A5CE" stop-opacity="0.455"/>
<stop offset="1" stop-color="#0290CF"/>
</linearGradient>
<linearGradient id="paint44_linear_838_55548" x1="128.337" y1="183.38" x2="155.835" y2="188.222" gradientUnits="userSpaceOnUse">
<stop stop-color="#FDB4BA"/>
<stop offset="1" stop-color="#FE5694"/>
</linearGradient>
<linearGradient id="paint45_linear_838_55548" x1="147.99" y1="196.242" x2="151.893" y2="203.023" gradientUnits="userSpaceOnUse">
<stop stop-color="#FD3581" stop-opacity="0"/>
<stop offset="0.281" stop-color="#FA317D" stop-opacity="0.282"/>
<stop offset="0.56" stop-color="#F02571" stop-opacity="0.56"/>
<stop offset="0.838" stop-color="#DF115E" stop-opacity="0.838"/>
<stop offset="1" stop-color="#D2024E"/>
</linearGradient>
<linearGradient id="paint46_linear_838_55548" x1="250.028" y1="73.6054" x2="289.6" y2="106.967" gradientUnits="userSpaceOnUse">
<stop stop-color="#FDB4BA"/>
<stop offset="1" stop-color="#FE5694"/>
</linearGradient>
<linearGradient id="paint47_linear_838_55548" x1="237.07" y1="122.504" x2="261.051" y2="120.699" gradientUnits="userSpaceOnUse">
<stop stop-color="#FD3581" stop-opacity="0"/>
<stop offset="0.281" stop-color="#FA317D" stop-opacity="0.282"/>
<stop offset="0.56" stop-color="#F02571" stop-opacity="0.56"/>
<stop offset="0.838" stop-color="#DF115E" stop-opacity="0.838"/>
<stop offset="1" stop-color="#D2024E"/>
</linearGradient>
<linearGradient id="paint48_linear_838_55548" x1="242.693" y1="135.798" x2="237.794" y2="141.664" gradientUnits="userSpaceOnUse">
<stop stop-color="#FD3581" stop-opacity="0"/>
<stop offset="0.281" stop-color="#FA317D" stop-opacity="0.282"/>
<stop offset="0.56" stop-color="#F02571" stop-opacity="0.56"/>
<stop offset="0.838" stop-color="#DF115E" stop-opacity="0.838"/>
<stop offset="1" stop-color="#D2024E"/>
</linearGradient>
<linearGradient id="paint49_linear_838_55548" x1="302.5" y1="53.7313" x2="272.667" y2="64.2277" gradientUnits="userSpaceOnUse">
<stop stop-color="#FD3581" stop-opacity="0"/>
<stop offset="0.281" stop-color="#FA317D" stop-opacity="0.282"/>
<stop offset="0.56" stop-color="#F02571" stop-opacity="0.56"/>
<stop offset="0.838" stop-color="#DF115E" stop-opacity="0.838"/>
<stop offset="1" stop-color="#D2024E"/>
</linearGradient>
<linearGradient id="paint50_linear_838_55548" x1="53.7091" y1="84.0485" x2="55.6268" y2="106.07" gradientUnits="userSpaceOnUse">
<stop stop-color="#C8EFFE"/>
<stop offset="1" stop-color="#62DBFB"/>
</linearGradient>
<linearGradient id="paint51_linear_838_55548" x1="41.3849" y1="110.395" x2="49.4601" y2="87.0253" gradientUnits="userSpaceOnUse">
<stop stop-color="#07B2CD" stop-opacity="0"/>
<stop offset="0.455" stop-color="#05A5CE" stop-opacity="0.455"/>
<stop offset="1" stop-color="#0290CF"/>
</linearGradient>
<linearGradient id="paint52_linear_838_55548" x1="263.539" y1="197.201" x2="241.723" y2="212.548" gradientUnits="userSpaceOnUse">
<stop stop-color="#FDB4BA"/>
<stop offset="1" stop-color="#FE5694"/>
</linearGradient>
<linearGradient id="paint53_linear_838_55548" x1="228.542" y1="200.294" x2="257.865" y2="194.645" gradientUnits="userSpaceOnUse">
<stop stop-color="#FD3581" stop-opacity="0"/>
<stop offset="0.281" stop-color="#FA317D" stop-opacity="0.282"/>
<stop offset="0.56" stop-color="#F02571" stop-opacity="0.56"/>
<stop offset="0.838" stop-color="#DF115E" stop-opacity="0.838"/>
<stop offset="1" stop-color="#D2024E"/>
</linearGradient>
<linearGradient id="paint54_linear_838_55548" x1="459.575" y1="89.3046" x2="439.196" y2="109.779" gradientUnits="userSpaceOnUse">
<stop stop-color="#8BC727"/>
<stop offset="0.132" stop-color="#83C528"/>
<stop offset="0.343" stop-color="#6BBD2B"/>
<stop offset="0.607" stop-color="#45B131"/>
<stop offset="0.911" stop-color="#11A038"/>
<stop offset="1" stop-color="#009B3A"/>
</linearGradient>
<linearGradient id="paint55_linear_838_55548" x1="11.0897" y1="181.18" x2="31.4687" y2="160.704" gradientUnits="userSpaceOnUse">
<stop stop-color="#FD4755"/>
<stop offset="1" stop-color="#A72B2B"/>
</linearGradient>
<linearGradient id="paint56_linear_838_55548" x1="236.233" y1="302.334" x2="223.912" y2="327.877" gradientUnits="userSpaceOnUse">
<stop stop-color="#FEF48B"/>
<stop offset="0.165" stop-color="#FDF286"/>
<stop offset="0.335" stop-color="#FDEE7A"/>
<stop offset="0.509" stop-color="#FCE765"/>
<stop offset="0.684" stop-color="#FCDE48"/>
<stop offset="0.859" stop-color="#FBD123"/>
<stop offset="1" stop-color="#FAC600"/>
</linearGradient>
<linearGradient id="paint57_linear_838_55548" x1="496.022" y1="181.554" x2="521.615" y2="194.001" gradientUnits="userSpaceOnUse">
<stop stop-color="#F5FBFF"/>
<stop offset="0.241" stop-color="#F0F8FE"/>
<stop offset="0.492" stop-color="#E4F2FE"/>
<stop offset="0.746" stop-color="#CFE8FE"/>
<stop offset="1" stop-color="#B3DAFE"/>
</linearGradient>
<linearGradient id="paint58_linear_838_55548" x1="384.82" y1="278.297" x2="372.491" y2="303.847" gradientUnits="userSpaceOnUse">
<stop stop-color="#BBEC6C"/>
<stop offset="0.229" stop-color="#B7E967"/>
<stop offset="0.467" stop-color="#ADE05B"/>
<stop offset="0.708" stop-color="#9DD146"/>
<stop offset="0.95" stop-color="#86BC29"/>
<stop offset="1" stop-color="#81B823"/>
</linearGradient>
<linearGradient id="paint59_linear_838_55548" x1="27.0952" y1="273.3" x2="52.6763" y2="285.731" gradientUnits="userSpaceOnUse">
<stop stop-color="#FEAEE1"/>
<stop offset="0.169" stop-color="#FEA9DF"/>
<stop offset="0.344" stop-color="#FE9DD9"/>
<stop offset="0.522" stop-color="#FE88D0"/>
<stop offset="0.702" stop-color="#FE6BC4"/>
<stop offset="0.882" stop-color="#FE46B4"/>
<stop offset="1" stop-color="#FE2AA8"/>
</linearGradient>
<linearGradient id="paint60_linear_838_55548" x1="458.122" y1="207.698" x2="467.54" y2="234.631" gradientUnits="userSpaceOnUse">
<stop stop-color="#FEAEE1"/>
<stop offset="0.169" stop-color="#FEA9DF"/>
<stop offset="0.344" stop-color="#FE9DD9"/>
<stop offset="0.522" stop-color="#FE88D0"/>
<stop offset="0.702" stop-color="#FE6BC4"/>
<stop offset="0.882" stop-color="#FE46B4"/>
<stop offset="1" stop-color="#FE2AA8"/>
</linearGradient>
<linearGradient id="paint61_linear_838_55548" x1="342.725" y1="12.906" x2="329.868" y2="38.8662" gradientUnits="userSpaceOnUse">
<stop stop-color="#F5FBFF"/>
<stop offset="0.241" stop-color="#F0F8FE"/>
<stop offset="0.492" stop-color="#E4F2FE"/>
<stop offset="0.746" stop-color="#CFE8FE"/>
<stop offset="1" stop-color="#B3DAFE"/>
</linearGradient>
<linearGradient id="paint62_linear_838_55548" x1="202.265" y1="2.17238" x2="189.958" y2="27.7036" gradientUnits="userSpaceOnUse">
<stop stop-color="#BBEC6C"/>
<stop offset="0.229" stop-color="#B7E967"/>
<stop offset="0.467" stop-color="#ADE05B"/>
<stop offset="0.708" stop-color="#9DD146"/>
<stop offset="0.95" stop-color="#86BC29"/>
<stop offset="1" stop-color="#81B823"/>
</linearGradient>
<linearGradient id="paint63_linear_838_55548" x1="329.047" y1="85.928" x2="343.663" y2="110.223" gradientUnits="userSpaceOnUse">
<stop stop-color="#99E6FC"/>
<stop offset="0.157" stop-color="#94E3FC"/>
<stop offset="0.32" stop-color="#88DBFC"/>
<stop offset="0.486" stop-color="#73CDFC"/>
<stop offset="0.653" stop-color="#56BAFC"/>
<stop offset="0.822" stop-color="#31A1FC"/>
<stop offset="0.99" stop-color="#0483FC"/>
<stop offset="1" stop-color="#0182FC"/>
</linearGradient>
</defs>
</svg>
