<svg width="100" height="28" viewBox="0 0 100 28" fill="none" xmlns="http://www.w3.org/2000/svg">
<path d="M99.2822 23.4205L99.2431 23.3823C98.8658 23.0199 98.5095 22.6612 98.1732 22.3034C99.0644 22.0221 99.7315 21.291 99.8964 20.3369L99.9292 20.1484V18.2055C99.9292 16.9965 99.1282 16.0087 98.0147 15.731V14.5329C98.5532 14.1605 98.9405 13.6015 99.0909 12.9405L99.1465 12.6965V10.7218C99.1465 10.4313 99.0963 10.1464 99.0016 9.88053C99.398 9.42987 99.6313 8.84628 99.6313 8.21808V6.60297C99.6313 5.70892 99.2075 4.93414 98.5468 4.46618C98.8986 3.62949 98.8384 2.75092 98.3792 2.0508C97.929 1.36342 97.1489 0.953721 96.2923 0.953721H93.1949C92.6773 0.953721 92.2544 1.0566 91.9109 1.21137C91.1217 0.467549 90.1986 0.227195 89.8487 0.137062L89.6928 0.102465C88.5282 -0.113308 87.3609 0.0132425 86.3184 0.467549L86.2154 0.515802C86.1871 0.529459 86.1598 0.544026 86.1325 0.557682C85.7716 0.377416 85.367 0.28091 84.9478 0.28091H81.957C81.2972 0.28091 80.6794 0.541294 80.2119 0.987407C80.0615 0.964647 79.9066 0.952811 79.7471 0.952811H76.7827L76.6123 0.959184C76.2077 0.990139 75.1342 1.07208 74.4708 2.06718C74.0808 2.65259 73.9732 3.38549 74.1755 4.0838C74.2001 4.17575 74.2257 4.27226 74.2539 4.37422C73.5367 4.7994 73.0711 5.54868 73.0437 6.44C72.4569 5.40939 71.8855 4.31505 71.3241 3.14423C70.8311 2.1036 70.0037 1.32336 68.9302 0.884528C68.2467 0.590458 67.4576 0.442057 66.5855 0.442057H60.4425C59.9277 0.442057 59.4492 0.51125 59.0136 0.647815C58.6865 0.513071 58.3284 0.442057 57.962 0.442057H54.8619C53.6744 0.442057 52.5873 1.19043 52.2155 2.26202C52.0533 2.71905 51.8902 3.17427 51.7243 3.62676V3.15788C51.7243 1.75581 50.6135 0.65783 49.1955 0.65783H35.7496C34.7954 0.65783 33.9416 1.19499 33.495 1.97068C32.55 0.556772 30.7384 -0.142442 28.8858 0.250866C27.2282 0.613219 25.8458 1.82228 25.3272 3.3509C24.8634 2.75547 24.1371 2.37946 23.3069 2.37946H17.3189C17.061 1.88965 16.7074 1.45264 16.2709 1.0912L16.2554 1.07845C15.4626 0.431132 14.4511 0.0633163 13.3302 0.012332L13.2282 0.0096007C12.2203 0.0096007 11.2407 0.255418 10.3913 0.722471C9.64682 1.13581 9.03535 1.69208 8.56786 2.37855H3.87659C2.19892 2.37855 1.29311 3.65316 1.29311 4.8522V6.65577C1.29311 6.87064 1.32136 7.08641 1.37603 7.29672C0.550414 7.71188 0 8.53764 0 9.50908V11.3664C0 12.366 0.603268 13.2546 1.45896 13.6807C1.21747 14.0649 1.07805 14.5174 1.07805 15.0008V16.778C1.07805 17.0183 1.10994 17.2532 1.17008 17.4772C0.486624 17.947 0.0282497 18.7336 0.0282497 19.6049V21.3547C0.0282497 22.7686 1.22294 23.9622 2.63725 23.9622H9.6213V25.3925C9.6213 26.8547 10.7677 28 12.2312 28H15.1692C16.6136 28 17.8329 26.7937 17.8329 25.3652V23.9613H24.6538C25.0848 23.9613 25.4849 23.8703 25.8375 23.7055V25.337C25.8375 26.7991 26.9484 27.9445 28.3673 27.9445H31.2223C32.4699 27.9445 33.8049 26.9084 33.8049 25.3652V24.3C33.9826 25.1194 34.3899 25.886 34.9823 26.4878C35.8708 27.4137 37.1712 27.9445 38.5527 27.9445H46.7706C47.67 27.9445 48.5613 27.7087 49.3258 27.2789C49.7678 27.7114 50.3692 27.9718 51.0354 27.9718H73.1321C73.6443 27.9718 74.1336 27.817 74.5446 27.5366C74.6202 27.5539 74.6959 27.5675 74.7724 27.5766L74.9155 27.5949H78.8313C79.9285 27.5949 80.6165 27.1433 81.0074 26.75C81.4457 26.3567 81.8421 25.9497 82.2176 25.5227C82.347 26.8702 83.4515 27.8907 84.8393 27.8907H87.832C89.1852 27.8907 90.2651 26.9011 90.4009 25.5919C90.6743 25.936 90.9577 26.2784 91.2575 26.628L91.3751 26.7545C91.9273 27.3044 92.6682 27.5949 93.5193 27.5949H97.6529L97.7978 27.5757C98.7683 27.4483 99.562 26.8119 99.87 25.9142C100.169 25.0402 99.9438 24.0833 99.2822 23.4169V23.4205Z" fill="#E2605E"/>
<path fill-rule="evenodd" clip-rule="evenodd" d="M78.8314 25.3679C79.0747 25.3679 79.3153 25.3142 79.4502 25.1522V25.1531C80.6102 24.1298 81.4996 22.8916 82.4428 21.545C82.6852 21.1408 82.5768 20.9796 82.3626 20.9523L78.723 20.9797C78.5088 20.9797 78.3466 21.0598 78.2901 21.1945C78.239 21.2614 78.1881 21.3279 78.1375 21.3943C77.1476 22.6904 76.232 23.8893 74.9238 24.991C74.7625 25.0985 74.8427 25.3397 75.0596 25.3679H78.8314ZM88.1821 20.1994H97.3441L97.345 20.1985C97.5345 20.1985 97.6685 20.1175 97.6967 19.9563V18.2056C97.6967 17.9898 97.5619 17.8833 97.3723 17.8833H88.183V16.3483H95.5388C95.7284 16.3219 95.8077 16.2144 95.7821 16.0251V14.3034C95.7821 14.0886 95.6208 14.0349 95.486 14.0075H88.183V12.7958H96.4009C96.6451 12.7958 96.8602 12.6874 96.9149 12.4461V10.7227C96.9149 10.5078 96.6989 10.4259 96.5367 10.4541H92.3338C92.4092 10.2727 92.4908 10.0809 92.5729 9.88817C92.7836 9.39309 92.9972 8.89147 93.1139 8.5422H96.9941C97.2365 8.5422 97.3988 8.40746 97.3988 8.219V6.60389C97.3988 6.3872 97.2639 6.22697 97.0479 6.22697H95.2691C95.3743 5.99998 95.5077 5.71921 95.6501 5.41957C95.9469 4.79498 96.2828 4.08836 96.4829 3.61584C96.5895 3.37276 96.5622 3.1843 96.2925 3.1843H93.195C92.979 3.1843 92.7366 3.2107 92.63 3.45378C92.2389 4.41656 91.847 5.20325 91.385 6.13043L91.3369 6.22697H90.9587V4.42249C90.9305 3.8307 90.8239 3.42556 90.6079 3.10327C90.3382 2.69903 89.9071 2.45595 89.2874 2.2948C88.5584 2.16006 87.8321 2.24109 87.2115 2.51148C86.7286 2.75184 86.323 3.07686 86.026 3.56031C86.3221 3.42647 86.5664 3.37276 86.7805 3.40007C87.0502 3.45378 87.2398 3.64224 87.2671 3.96545V6.22788H85.327V2.91572C85.327 2.67354 85.1921 2.5124 84.9479 2.5124H81.9571C81.7694 2.5124 81.6081 2.72726 81.6081 2.96852V6.22697H81.177C80.7715 5.39301 80.4225 4.23403 80.2311 3.56031C80.1254 3.29173 80.0452 3.1843 79.7472 3.1843H76.7828C76.4329 3.2107 76.2443 3.23892 76.3245 3.48019C76.4861 4.10492 76.738 4.89534 76.9565 5.58097C77.0301 5.81159 77.0998 6.03035 77.161 6.22697H75.6793C75.4624 6.22697 75.2747 6.30709 75.2747 6.52286V8.2454C75.2747 8.43477 75.3558 8.5422 75.5973 8.5422H79.3709C79.4199 8.68214 79.4744 8.83851 79.532 9.00373C79.6958 9.47383 79.8845 10.0156 80.0443 10.4541H76.0821C75.867 10.4541 75.7048 10.5342 75.7048 10.7764V12.499C75.7048 12.6619 75.8661 12.7958 76.0283 12.7958H84.4376V14.0075H77.213C77.0262 14.0075 76.9177 14.1414 76.9177 14.3034V15.8648C76.9177 16.188 76.9715 16.3492 77.1874 16.3492H84.4376V17.8842H75.3822C75.22 17.8842 75.0596 17.9379 75.0596 18.1801V19.7961C75.0596 20.0383 75.1134 20.1994 75.3002 20.1994H84.4376V25.2614C84.4376 25.53 84.6244 25.6647 84.8386 25.6647H87.8312C88.0472 25.6647 88.1821 25.5027 88.1821 25.3151V20.1994ZM83.9012 9.92285C83.7144 9.461 83.5228 8.98721 83.3869 8.54129H89.045C88.8837 8.99833 88.5311 9.8332 88.2358 10.4532H84.1132C84.0456 10.2798 83.9738 10.1022 83.9012 9.92285ZM93.5194 25.3689H97.5072L97.5063 25.3679C97.7204 25.3397 97.8562 25.1522 97.6958 24.991C96.348 23.6982 95.2964 22.4873 94.3523 21.1672C94.2457 21.0334 94.0844 20.9797 93.8685 20.9797H90.4457C90.2042 20.9797 89.9882 21.1144 90.1768 21.4103C91.0116 22.7295 91.819 23.8603 92.9517 25.1795C93.0875 25.3151 93.2761 25.3689 93.5194 25.3689ZM15.6004 21.7335H24.654V21.7372C24.8973 21.7372 25.0595 21.6288 25.0595 21.3857V19.503C25.0595 19.34 24.8973 19.259 24.7087 19.259H15.6004V17.1868H23.7928C23.9806 17.1868 24.089 17.0239 24.089 16.8372V14.9799C24.089 14.8179 23.9268 14.7095 23.7382 14.7095H17.978L19.2711 11.7215H24.654C24.87 11.7215 25.0049 11.5312 25.0049 11.3163V9.51277C25.0049 9.35071 24.9247 9.24328 24.6823 9.24328H15.5731V7.03547H23.2534C23.4156 7.03547 23.6306 6.90073 23.6306 6.65855V4.9351C23.6306 4.71933 23.4684 4.61099 23.3071 4.61099H15.5731C15.6287 3.80434 15.3316 3.21165 14.8459 2.80833C14.4149 2.4569 13.849 2.27026 13.2293 2.24203C12.636 2.24203 12.0164 2.37769 11.4769 2.67358C10.9921 2.94307 10.5875 3.31999 10.2913 3.83165C10.7488 3.53485 11.1543 3.53485 11.4222 3.7224C11.7193 3.91177 11.8815 4.28869 11.7466 4.61099H3.87772C3.66174 4.61099 3.52687 4.69201 3.52687 4.85407V6.65764C3.52687 6.81879 3.66083 7.03456 3.85038 7.03456H11.7475V9.24237H2.61195C2.39597 9.24237 2.23376 9.35071 2.23376 9.51186V11.3691C2.23376 11.5303 2.39506 11.7197 2.5837 11.7197H7.96025L9.30804 14.7077H3.66083C3.47311 14.7077 3.3109 14.8415 3.3109 15.0036V16.7808C3.3109 17.0503 3.50045 17.185 3.68908 17.185H11.8542V19.2571H2.61195C2.4224 19.2571 2.2611 19.4465 2.2611 19.6077V21.3575C2.2611 21.5724 2.47617 21.7344 2.63746 21.7344H11.8542V25.3953C11.8542 25.6366 12.0164 25.7722 12.2314 25.7722H15.1694C15.3845 25.7722 15.6004 25.5555 15.6004 25.368V21.7335ZM12.0966 14.7095L10.6148 11.7215H16.92L15.492 14.7095H12.0966ZM31.5724 25.3681V14.2754V14.2745C32.7306 12.5246 33.8888 9.83246 34.5368 8.19004C34.8594 7.4098 34.7245 6.60133 34.267 6.06326C33.9435 5.65903 33.2974 5.39045 32.7042 5.39045H32.3005C32.1647 4.66302 32.0307 4.04483 31.7601 3.42392C31.33 2.50984 30.2519 2.23944 29.3616 2.42881C28.5004 2.61636 27.6921 3.23637 27.4224 4.12495C27.9081 3.96289 28.2571 4.07214 28.4184 4.36713C28.5815 4.63661 28.6626 4.98622 28.6891 5.39136H26.533C26.3981 5.39136 26.2368 5.578 26.2368 5.68635V7.62466C26.2368 7.78672 26.3981 7.92146 26.533 7.92146H30.5754C30.7103 7.92146 30.8452 8.08261 30.8187 8.24376C29.5521 10.8021 28.2052 13.3859 26.3179 15.702C26.1821 15.8905 26.2368 16.2401 26.4792 16.2401H28.0703V25.3399C28.0703 25.5557 28.2052 25.7168 28.3674 25.7168H31.2224C31.3564 25.7168 31.5724 25.583 31.5724 25.3681ZM33.1088 21.7856H35.048C35.2357 21.7856 35.3979 21.6781 35.3706 21.4897C34.9669 18.8248 34.7245 16.5087 34.6707 13.8976C34.6707 13.71 34.5368 13.6017 34.3755 13.6017H32.5155C32.3533 13.6017 32.2458 13.7364 32.2458 13.8976C32.2458 16.4823 32.408 18.9059 32.7042 21.4086C32.7306 21.5707 32.9457 21.7856 33.1088 21.7856ZM35.6932 5.25571H49.1674C49.3569 5.25571 49.4909 5.06634 49.4909 4.87879V3.15625C49.4909 3.0215 49.3843 2.88676 49.1947 2.88676H35.7488C35.5866 2.88676 35.3979 3.0215 35.3979 3.18265V4.93251C35.3979 5.12097 35.5064 5.25571 35.6932 5.25571ZM46.7698 25.7168C47.4979 25.7168 48.1987 25.4482 48.6835 25.0176V25.0194C49.0881 24.6425 49.3569 24.1308 49.3569 23.5117V16.2692C49.3569 15.6219 49.0608 15.0301 48.6015 14.6004C48.1996 14.2235 47.6328 13.9804 47.0924 13.9804H41.1372C40.5448 13.9804 40.1402 14.1689 39.8978 14.4657C39.6017 14.8144 39.5215 15.3269 39.6017 15.7849C39.6819 16.3767 40.0054 16.8874 40.3562 16.9958C40.2487 16.5906 40.5175 16.1873 40.7599 16.1873H41.1098V18.477H39.116V14.249C39.116 14.1133 39.0358 13.9786 38.8745 13.9786H36.2327C36.0714 13.9786 35.9365 14.1133 35.9365 14.2217V23.3752C35.9365 23.9679 36.1798 24.5323 36.5835 24.9375C37.0419 25.4209 37.7436 25.7168 38.5519 25.7168H46.7698ZM45.4484 12.7959C46.4727 12.7959 47.3102 12.3926 47.8752 11.7198H47.8743C48.4128 11.1271 48.709 10.2931 48.709 9.43096C48.709 8.56878 48.4119 7.73482 47.8187 7.08932C47.281 6.49663 46.5265 6.14611 45.6626 6.14611H42.1341C41.4333 6.14611 40.9485 6.38738 40.6788 6.73881C40.3015 7.22225 40.3015 7.94969 40.5713 8.51507C40.8137 9.07953 41.2711 9.51108 41.8644 9.48377C41.5682 9.26891 41.5144 9.02673 41.5682 8.81187C41.6211 8.56878 41.8379 8.35392 42.0803 8.35392H43.912C44.3166 8.35392 44.6401 8.51598 44.8288 8.75815C45.1249 9.10776 45.1796 9.61942 44.9901 10.0227C44.8288 10.345 44.4788 10.5881 44.0196 10.5881H40.5166C40.2487 10.5881 39.9789 10.3186 39.9789 10.0491V6.46841C39.9789 6.28086 39.8432 6.14611 39.7083 6.14611H36.8259C36.6373 6.14611 36.5024 6.22714 36.5024 6.38738V10.4807C36.5024 11.0725 36.7184 11.6388 37.0947 12.0421C37.5002 12.4991 38.0926 12.7959 38.7669 12.7959H45.4484ZM39.115 20.7386H41.1089V23.3497H39.7894C39.5206 23.3497 39.115 23.0001 39.115 22.5148V20.7386ZM45.3409 16.1882C45.7446 16.1882 46.1219 16.5105 46.1219 16.9156V18.478H44.2629V16.1882H45.3409ZM44.2629 20.7386H46.1219V22.7579C46.1219 23.0538 45.7446 23.3506 45.4475 23.3506H44.2629V20.7386ZM55.1582 11.6095C55.0515 11.7989 54.8091 11.9336 54.5932 11.9336H50.7685C50.5771 11.9336 50.4724 11.6368 50.5507 11.4475C52.222 8.72981 53.2745 5.95572 54.3252 2.99407C54.3781 2.83293 54.6214 2.67178 54.8629 2.67178H57.9631C58.2857 2.67178 58.4196 2.88755 58.3403 3.15704C57.5038 6.06406 56.4804 8.86364 55.1591 11.6095H55.1582ZM73.1341 25.744H51.0373C50.8742 25.744 50.7949 25.6093 50.7949 25.4208V23.4825C50.7949 23.3751 50.9307 23.1857 51.0656 23.1857H52.5191V13.871C52.5191 13.6562 52.7351 13.5478 52.9228 13.5478H55.8343C56.023 13.5478 56.2107 13.7363 56.2107 13.871V23.1857H60.4691V10.6144C60.4691 10.1829 60.2531 9.9416 59.9296 9.88697C59.6325 9.83235 59.1213 10.0217 58.7176 10.263C59.0958 9.64389 59.7146 9.15954 60.3871 8.86364C61.2227 8.51404 62.1659 8.4057 62.894 8.67518C63.6759 8.94467 64.2145 9.6184 64.2145 10.7756V14.0595H72.1654C72.3267 14.0595 72.4333 14.1678 72.4333 14.3026V16.2673C72.4333 16.4831 72.2984 16.6178 72.1098 16.6178H64.2145V23.1857H73.0821C73.2425 23.1857 73.4303 23.294 73.4303 23.4825V25.4208C73.4303 25.6357 73.269 25.744 73.1341 25.744ZM73.3774 11.9327H69.7387C69.468 11.9327 69.2274 11.8235 69.0926 11.6359C67.9872 10.0199 66.8016 7.54351 65.9404 5.73903C65.7782 5.41583 65.3745 5.22737 65.051 5.22737H60.819C60.3871 5.22737 60.1474 5.49686 60.1201 5.82006C60.0645 6.11595 60.1738 6.43916 60.4436 6.70865C59.9032 6.60121 59.4184 6.17058 59.0685 5.52417C58.7431 4.87867 58.5827 4.09752 58.8525 3.50483C59.1222 2.85933 59.7692 2.67087 60.4436 2.67087H66.5865C67.126 2.67087 67.6372 2.75099 68.0683 2.94036C68.6096 3.15613 69.0406 3.53214 69.3076 4.09752C70.5214 6.62853 71.8947 9.07851 73.5925 11.4211C73.7 11.5822 73.6471 11.9327 73.3774 11.9327Z" fill="url(#paint0_linear_5_156)"/>
<defs>
<linearGradient id="paint0_linear_5_156" x1="86.303" y1="25.2906" x2="86.303" y2="3.3764" gradientUnits="userSpaceOnUse">
<stop stop-color="#FFF6EB"/>
<stop offset="0.06" stop-color="#FDEFE3"/>
<stop offset="0.18" stop-color="#FBE6D9"/>
<stop offset="0.34" stop-color="#FBE4D6"/>
<stop offset="1" stop-color="#FFFEF3"/>
</linearGradient>
</defs>
</svg>
