<svg width="63" height="83" viewBox="0 0 63 83" fill="none" xmlns="http://www.w3.org/2000/svg">
<path d="M24.0135 82.997L36.0223 45.3636L36.238 44.6828L21.1677 39.875L8.93896 78.185L18.5249 75.0897L24.0135 82.997Z" fill="url(#paint0_linear_826_20881)"/>
<path d="M24.0135 82.997L36.0223 45.3636L36.238 44.6828L21.1677 39.875L8.93896 78.185L18.5249 75.0897L24.0135 82.997Z" fill="url(#paint1_linear_826_20881)"/>
<mask id="mask0_826_20881" style="mask-type:luminance" maskUnits="userSpaceOnUse" x="8" y="15" width="36" height="68">
<path d="M24.0135 82.9967L43.5575 21.7473L43.9127 20.6437L28.8382 15.8359L8.93896 78.1847L18.0978 75.5166L24.0135 82.9967Z" fill="white"/>
</mask>
<g mask="url(#mask0_826_20881)">
<path style="mix-blend-mode:screen" d="M19.9793 90.463L42.0181 21.412L42.4156 20.1646L30.3348 16.3125L7.89856 86.6108L16.8249 79.5028L19.9793 90.463Z" stroke="url(#paint2_linear_826_20881)" stroke-width="0.799181" stroke-miterlimit="10"/>
</g>
<path d="M38.8471 82.4261L27.9926 44.4459L27.7981 43.7609L43.0121 39.4141L54.0611 78.0792L44.5767 74.6922L38.8471 82.4261Z" fill="url(#paint3_linear_826_20881)"/>
<path d="M38.8471 82.4261L27.9926 44.4459L27.7981 43.7609L43.0121 39.4141L54.0611 78.0792L44.5767 74.6922L38.8471 82.4261Z" fill="url(#paint4_linear_826_20881)"/>
<mask id="mask1_826_20881" style="mask-type:luminance" maskUnits="userSpaceOnUse" x="20" y="15" width="35" height="68">
<path d="M38.847 82.4276L21.1846 20.6116L20.8633 19.4953L36.0773 15.1484L54.061 78.0808L44.9867 75.1335L38.847 82.4276Z" fill="white"/>
</mask>
<g mask="url(#mask1_826_20881)">
<path style="mix-blend-mode:screen" d="M42.6482 90.0161L22.7321 20.3225L22.377 19.0624L34.5676 15.5781L54.8432 86.5319L46.141 79.1574L42.6482 90.0161Z" stroke="url(#paint5_linear_826_20881)" stroke-width="0.799181" stroke-miterlimit="10"/>
</g>
<path d="M63 31.4979C63 34.1872 59.799 36.4241 59.1352 38.9062C58.4713 41.3883 60.0824 45.0036 58.7842 47.2532C57.4649 49.5323 53.5747 49.8748 51.7269 51.7269C49.8791 53.579 49.5365 57.4649 47.2532 58.7842C45.0036 60.0866 41.4729 58.4502 38.9062 59.1352C36.3395 59.8202 34.1914 63 31.4979 63C28.8043 63 26.5717 59.799 24.0896 59.1352C21.6075 58.4713 17.9921 60.0824 15.7426 58.7842C13.4931 57.4861 13.1209 53.5747 11.2689 51.7269C9.41681 49.8748 5.53084 49.5365 4.21156 47.2532C2.89227 44.9698 4.54561 41.4729 3.86059 38.9062C3.17558 36.3395 0 34.1914 0 31.4979C0 28.8043 3.20095 26.5717 3.86482 24.0896C4.52869 21.6075 2.91765 17.9921 4.21579 15.7426C5.51393 13.4931 9.42526 13.1209 11.2731 11.2689C13.1209 9.41681 13.4635 5.53084 15.7468 4.21156C18.0302 2.89227 21.5271 4.54561 24.0938 3.86059C26.6605 3.17558 28.8086 0 31.5021 0C34.1956 0 36.4283 3.20095 38.9104 3.86482C41.3925 4.52869 45.0079 2.91765 47.2574 4.21579C49.5069 5.51393 49.879 9.42526 51.7311 11.2731C53.5832 13.1209 57.4692 13.4635 58.7884 15.7468C60.1077 18.0302 58.4544 21.5271 59.1394 24.0938C59.8244 26.6605 63.0042 28.8086 63.0042 31.4979H63Z" fill="url(#paint6_linear_826_20881)"/>
<path d="M58.2937 31.4986C58.2937 46.2983 46.2975 58.2945 31.5021 58.2945C16.7067 58.2945 4.7063 46.2983 4.7063 31.4986C4.7063 16.699 16.7025 4.70703 31.5021 4.70703C46.3018 4.70703 58.2937 16.7032 58.2937 31.4986Z" fill="white"/>
<path d="M56.1203 31.4974C56.1203 45.0962 45.0966 56.1198 31.4979 56.1198C17.8991 56.1198 6.87549 45.0962 6.87549 31.4974C6.87549 17.8986 17.8991 6.875 31.4979 6.875C45.0966 6.875 56.1203 17.8986 56.1203 31.4974Z" stroke="url(#paint7_linear_826_20881)" stroke-width="1.08672" stroke-miterlimit="10"/>
<path d="M31.5017 48L32.0557 49.7083H33.8528L32.3982 50.7654L32.9521 52.4737L31.5017 51.4166L30.0471 52.4737L30.6011 50.7654L29.1465 49.7083H30.9436L31.5017 48Z" fill="#E8C259"/>
<path d="M26.2586 48.7617L26.6264 49.8907H27.8104L26.8548 50.5842L27.2184 51.709L26.2586 51.0155L25.3029 51.709L25.6666 50.5842L24.7109 49.8907H25.8949L26.2586 48.7617Z" fill="#E8C259"/>
<path d="M36.7408 48.7617L37.1045 49.8907H38.2884L37.3328 50.5842L37.6964 51.709L36.7408 51.0155L35.781 51.709L36.1488 50.5842L35.189 49.8907H36.3729L36.7408 48.7617Z" fill="#E8C259"/>
<path d="M44.5183 22.7148C44.7343 22.7148 44.9863 22.7508 45.2743 22.8228C45.5743 22.8948 45.8683 23.0148 46.1563 23.1828C46.4563 23.3508 46.7023 23.5788 46.8943 23.8668C47.0863 24.1548 47.1823 24.5208 47.1823 24.9648C47.1823 25.3368 47.1043 25.6668 46.9483 25.9548C46.7923 26.2428 46.6003 26.4948 46.3723 26.7108C46.1563 26.9148 45.9403 27.0828 45.7243 27.2148C45.5203 27.3348 45.3643 27.4188 45.2563 27.4668C45.4003 27.4788 45.6103 27.5268 45.8863 27.6108C46.1743 27.6948 46.4683 27.8328 46.7683 28.0248C47.0803 28.2168 47.3443 28.4868 47.5603 28.8348C47.7763 29.1708 47.8843 29.6028 47.8843 30.1308C47.8843 30.7548 47.7463 31.3128 47.4703 31.8048C47.1943 32.2968 46.8283 32.7168 46.3723 33.0648C45.9163 33.4008 45.4123 33.6588 44.8603 33.8388C44.3083 34.0188 43.7503 34.1088 43.1863 34.1088C42.6223 34.1088 42.1303 34.0368 41.7103 33.8928C41.3023 33.7488 41.0083 33.6048 40.8283 33.4608C40.7683 33.3768 40.7143 33.2508 40.6663 33.0828C40.6303 32.9148 40.6123 32.7888 40.6123 32.7048C40.6123 32.5008 40.6903 32.2968 40.8463 32.0928C41.0023 31.8768 41.2303 31.7688 41.5303 31.7688C41.7703 31.7688 41.9803 31.8648 42.1603 32.0568C42.3523 32.2488 42.5203 32.4288 42.6643 32.5968C42.8323 32.7888 43.0183 32.9688 43.2223 33.1368C43.4383 33.2928 43.6603 33.3708 43.8883 33.3708C44.4403 33.3708 44.8543 33.1548 45.1303 32.7228C45.4063 32.2788 45.5443 31.6608 45.5443 30.8688C45.5443 30.4248 45.4663 30.0168 45.3103 29.6448C45.1543 29.2608 44.9323 28.9488 44.6443 28.7088C44.3683 28.4688 44.0323 28.3488 43.6363 28.3488C43.5883 28.3488 43.4683 28.3608 43.2763 28.3848C43.0963 28.3968 42.8923 28.4328 42.6643 28.4928C42.5683 28.3728 42.5203 28.2348 42.5203 28.0788C42.5203 28.0668 42.5203 28.0428 42.5203 28.0068C42.5083 27.9708 42.5083 27.9408 42.5203 27.9168C42.8563 27.8568 43.2223 27.7548 43.6183 27.6108C44.0263 27.4548 44.3743 27.2448 44.6623 26.9808C44.9623 26.7048 45.1123 26.3628 45.1123 25.9548C45.1123 25.4148 44.9683 24.9588 44.6803 24.5868C44.4043 24.2028 44.0023 24.0108 43.4743 24.0108C43.1623 24.0108 42.8623 24.0768 42.5743 24.2088C42.2983 24.3408 42.0643 24.4848 41.8723 24.6408C41.6923 24.7848 41.5783 24.8808 41.5303 24.9288C41.4703 24.9048 41.4223 24.8388 41.3863 24.7308C41.3503 24.6228 41.3323 24.5268 41.3323 24.4428C41.6563 24.0108 42.0943 23.6148 42.6463 23.2548C43.1983 22.8948 43.8223 22.7148 44.5183 22.7148Z" fill="#D59D43"/>
<path d="M39.5642 30.6168C39.5162 30.8208 39.4382 31.0968 39.3302 31.4448C39.2222 31.7808 39.1082 32.1288 38.9882 32.4888C38.8802 32.8488 38.7782 33.1728 38.6822 33.4608C38.5862 33.7368 38.5262 33.9168 38.5022 34.0008H32.0942C32.0462 33.9528 32.0102 33.8988 31.9862 33.8388C31.9742 33.7788 31.9622 33.7248 31.9502 33.6768C32.4062 33.1728 32.8322 32.7048 33.2282 32.2728C33.6242 31.8408 34.0142 31.3848 34.3982 30.9048C34.7942 30.4248 35.1962 29.8668 35.6042 29.2308C36.0122 28.5948 36.2822 28.0188 36.4142 27.5028C36.5462 26.9748 36.6122 26.5128 36.6122 26.1168C36.6122 25.7328 36.5222 25.3908 36.3422 25.0908C36.1622 24.7788 35.9282 24.5328 35.6402 24.3528C35.3642 24.1728 35.0642 24.0828 34.7402 24.0828C34.3322 24.0828 33.9842 24.1788 33.6962 24.3708C33.4202 24.5628 33.1982 24.7608 33.0302 24.9648C32.8742 25.1688 32.7722 25.2948 32.7242 25.3428C32.6762 25.3428 32.5982 25.3068 32.4902 25.2348C32.3942 25.1508 32.3462 25.0428 32.3462 24.9108C32.4182 24.7428 32.5502 24.5388 32.7422 24.2988C32.9342 24.0468 33.1802 23.8008 33.4802 23.5608C33.7802 23.3208 34.1282 23.1228 34.5242 22.9668C34.9202 22.7988 35.3642 22.7148 35.8562 22.7148C36.4202 22.7148 36.9302 22.8288 37.3862 23.0568C37.8542 23.2848 38.2262 23.6208 38.5022 24.0648C38.7782 24.4968 38.9162 25.0308 38.9162 25.6668C38.9162 26.2068 38.7962 26.7348 38.5562 27.2508C38.3162 27.7548 37.9922 28.2468 37.5842 28.7268C37.1042 29.2788 36.5822 29.8548 36.0182 30.4548C35.4662 31.0548 34.8902 31.6368 34.2902 32.2008H37.3142C37.6742 32.2008 37.9502 32.1168 38.1422 31.9488C38.3462 31.7688 38.5082 31.5588 38.6282 31.3188C38.7482 31.0668 38.8562 30.8388 38.9522 30.6348C38.9762 30.5628 39.0602 30.5268 39.2042 30.5268C39.2642 30.5268 39.3242 30.5328 39.3842 30.5448C39.4562 30.5568 39.5162 30.5808 39.5642 30.6168Z" fill="#D59D43"/>
<path d="M27.3019 23.0195C28.0099 23.0195 28.6519 23.2355 29.2279 23.6675C29.8039 24.0995 30.2599 24.7235 30.5959 25.5395C30.9439 26.3555 31.1179 27.3515 31.1179 28.5275C31.1179 29.5475 30.9439 30.4775 30.5959 31.3175C30.2599 32.1455 29.8039 32.8115 29.2279 33.3155C28.6519 33.8075 28.0099 34.0535 27.3019 34.0535C26.6059 34.0535 25.9579 33.8375 25.3579 33.4055C24.7579 32.9735 24.2779 32.3435 23.9179 31.5155C23.5579 30.6875 23.3779 29.6915 23.3779 28.5275C23.3779 27.7595 23.4799 27.0455 23.6839 26.3855C23.8999 25.7135 24.1879 25.1255 24.5479 24.6215C24.9079 24.1175 25.3219 23.7275 25.7899 23.4515C26.2699 23.1635 26.7739 23.0195 27.3019 23.0195ZM27.3199 23.7575C26.9479 23.7575 26.6359 23.9795 26.3839 24.4235C26.1439 24.8555 25.9639 25.4435 25.8439 26.1875C25.7239 26.9315 25.6639 27.7655 25.6639 28.6895C25.6639 29.6015 25.7359 30.4055 25.8799 31.1015C26.0359 31.7975 26.2399 32.3435 26.4919 32.7395C26.7439 33.1235 27.0199 33.3155 27.3199 33.3155C27.7039 33.3155 28.0039 33.0875 28.2199 32.6315C28.4359 32.1635 28.5919 31.5455 28.6879 30.7775C28.7839 29.9975 28.8319 29.1515 28.8319 28.2395C28.8319 26.8595 28.6999 25.7675 28.4359 24.9635C28.1839 24.1595 27.8119 23.7575 27.3199 23.7575Z" fill="#D59D43"/>
<path d="M22.564 30.6168C22.516 30.8208 22.438 31.0968 22.33 31.4448C22.222 31.7808 22.108 32.1288 21.988 32.4888C21.88 32.8488 21.778 33.1728 21.682 33.4608C21.586 33.7368 21.526 33.9168 21.502 34.0008H15.094C15.046 33.9528 15.01 33.8988 14.986 33.8388C14.974 33.7788 14.962 33.7248 14.95 33.6768C15.406 33.1728 15.832 32.7048 16.228 32.2728C16.624 31.8408 17.014 31.3848 17.398 30.9048C17.794 30.4248 18.196 29.8668 18.604 29.2308C19.012 28.5948 19.282 28.0188 19.414 27.5028C19.546 26.9748 19.612 26.5128 19.612 26.1168C19.612 25.7328 19.522 25.3908 19.342 25.0908C19.162 24.7788 18.928 24.5328 18.64 24.3528C18.364 24.1728 18.064 24.0828 17.74 24.0828C17.332 24.0828 16.984 24.1788 16.696 24.3708C16.42 24.5628 16.198 24.7608 16.03 24.9648C15.874 25.1688 15.772 25.2948 15.724 25.3428C15.676 25.3428 15.598 25.3068 15.49 25.2348C15.394 25.1508 15.346 25.0428 15.346 24.9108C15.418 24.7428 15.55 24.5388 15.742 24.2988C15.934 24.0468 16.18 23.8008 16.48 23.5608C16.78 23.3208 17.128 23.1228 17.524 22.9668C17.92 22.7988 18.364 22.7148 18.856 22.7148C19.42 22.7148 19.93 22.8288 20.386 23.0568C20.854 23.2848 21.226 23.6208 21.502 24.0648C21.778 24.4968 21.916 25.0308 21.916 25.6668C21.916 26.2068 21.796 26.7348 21.556 27.2508C21.316 27.7548 20.992 28.2468 20.584 28.7268C20.104 29.2788 19.582 29.8548 19.018 30.4548C18.466 31.0548 17.89 31.6368 17.29 32.2008H20.314C20.674 32.2008 20.95 32.1168 21.142 31.9488C21.346 31.7688 21.508 31.5588 21.628 31.3188C21.748 31.0668 21.856 30.8388 21.952 30.6348C21.976 30.5628 22.06 30.5268 22.204 30.5268C22.264 30.5268 22.324 30.5328 22.384 30.5448C22.456 30.5568 22.516 30.5808 22.564 30.6168Z" fill="#D59D43"/>
<path fill-rule="evenodd" clip-rule="evenodd" d="M40.2521 45.0235C40.326 45.0235 40.399 45.0072 40.4399 44.958V44.9583C40.7921 44.6477 41.0621 44.2718 41.3484 43.863C41.422 43.7403 41.3891 43.6914 41.324 43.6831L40.2192 43.6914C40.1542 43.6914 40.1049 43.7157 40.0878 43.7566C40.0723 43.7769 40.0568 43.7971 40.0415 43.8173C39.741 44.2107 39.463 44.5747 39.0659 44.9091C39.0169 44.9417 39.0413 45.015 39.1071 45.0235H40.2521ZM43.0906 43.4546H45.8718L45.8721 43.4543C45.9297 43.4543 45.9703 43.4297 45.9789 43.3808V42.8493C45.9789 42.7838 45.938 42.7515 45.8804 42.7515H43.0909V42.2855H45.3238C45.3814 42.2775 45.4055 42.2449 45.3977 42.1874V41.6648C45.3977 41.5996 45.3487 41.5832 45.3078 41.575H43.0909V41.2071H45.5855C45.6597 41.2071 45.725 41.1742 45.7416 41.101V40.5778C45.7416 40.5126 45.676 40.4877 45.6268 40.4963H44.3509C44.3738 40.4412 44.3986 40.383 44.4235 40.3244C44.4875 40.1742 44.5523 40.0219 44.5877 39.9159H45.7656C45.8392 39.9159 45.8884 39.875 45.8884 39.8178V39.3275C45.8884 39.2617 45.8475 39.2131 45.7819 39.2131H45.242C45.2739 39.1442 45.3144 39.059 45.3576 38.968C45.4477 38.7784 45.5497 38.5639 45.6104 38.4204C45.6428 38.3466 45.6345 38.2894 45.5526 38.2894H44.6124C44.5468 38.2894 44.4732 38.2974 44.4408 38.3712C44.3221 38.6635 44.2032 38.9023 44.0629 39.1837L44.0483 39.2131H43.9335V38.6653C43.9249 38.4857 43.8926 38.3627 43.827 38.2648C43.7451 38.1421 43.6143 38.0683 43.4262 38.0194C43.2049 37.9785 42.9844 38.0031 42.796 38.0852C42.6494 38.1581 42.5263 38.2568 42.4361 38.4036C42.526 38.3629 42.6001 38.3466 42.6651 38.3549C42.747 38.3712 42.8046 38.4284 42.8129 38.5266V39.2133H42.2239V38.2079C42.2239 38.1344 42.183 38.0855 42.1088 38.0855H41.2009C41.144 38.0855 41.095 38.1507 41.095 38.2239V39.2131H40.9641C40.841 38.9599 40.7351 38.6081 40.677 38.4036C40.6449 38.322 40.6206 38.2894 40.5301 38.2894H39.6302C39.524 38.2974 39.4667 38.306 39.4911 38.3792C39.5402 38.5689 39.6166 38.8089 39.683 39.017C39.7053 39.087 39.7265 39.1534 39.745 39.2131H39.2952C39.2294 39.2131 39.1724 39.2374 39.1724 39.3029V39.8258C39.1724 39.8833 39.197 39.9159 39.2703 39.9159H40.4159C40.4308 39.9584 40.4473 40.0058 40.4648 40.056C40.5145 40.1987 40.5718 40.3631 40.6203 40.4963H39.4175C39.3522 40.4963 39.303 40.5206 39.303 40.5941V41.117C39.303 41.1665 39.3519 41.2071 39.4012 41.2071H41.9539V41.575H39.7608C39.7041 41.575 39.6712 41.6156 39.6712 41.6648V42.1388C39.6712 42.2369 39.6875 42.2858 39.7531 42.2858H41.9539V42.7518H39.2051C39.1558 42.7518 39.1071 42.7681 39.1071 42.8416V43.3321C39.1071 43.4057 39.1235 43.4546 39.1802 43.4546H41.9539V44.9912C41.9539 45.0727 42.0106 45.1136 42.0756 45.1136H42.9841C43.0497 45.1136 43.0906 45.0644 43.0906 45.0075V43.4546ZM41.7911 40.335C41.7344 40.1948 41.6762 40.051 41.635 39.9156H43.3526C43.3036 40.0543 43.1966 40.3078 43.1069 40.496H41.8555C41.8349 40.4434 41.8131 40.3895 41.7911 40.335ZM44.7108 45.0238H45.9214L45.9211 45.0235C45.9861 45.015 46.0273 44.958 45.9786 44.9091C45.5695 44.5167 45.2503 44.1491 44.9637 43.7484C44.9313 43.7077 44.8823 43.6914 44.8168 43.6914H43.7778C43.7045 43.6914 43.6389 43.7323 43.6961 43.8221C43.9495 44.2226 44.1946 44.5659 44.5385 44.9663C44.5797 45.0075 44.637 45.0238 44.7108 45.0238ZM21.0576 43.9206H23.8059V43.9217C23.8798 43.9217 23.929 43.8888 23.929 43.815V43.2435C23.929 43.194 23.8798 43.1694 23.8225 43.1694H21.0576V42.5404H23.5445C23.6015 42.5404 23.6344 42.4909 23.6344 42.4342V41.8704C23.6344 41.8212 23.5852 41.7884 23.5279 41.7884H21.7793L22.1719 40.8813H23.8059C23.8715 40.8813 23.9124 40.8235 23.9124 40.7583V40.2108C23.9124 40.1616 23.8881 40.129 23.8145 40.129H21.0493V39.4588H23.3808C23.43 39.4588 23.4953 39.4179 23.4953 39.3444V38.8212C23.4953 38.7557 23.446 38.7228 23.3971 38.7228H21.0493C21.0662 38.478 20.976 38.298 20.8286 38.1756C20.6977 38.0689 20.5259 38.0123 20.3378 38.0037C20.1577 38.0037 19.9696 38.0449 19.8059 38.1347C19.6587 38.2165 19.5359 38.3309 19.446 38.4863C19.5848 38.3962 19.7079 38.3962 19.7893 38.4531C19.8794 38.5106 19.9287 38.625 19.8877 38.7228H17.499C17.4335 38.7228 17.3925 38.7474 17.3925 38.7966V39.3441C17.3925 39.393 17.4332 39.4585 17.4907 39.4585H19.888V40.1287H17.1148C17.0492 40.1287 17 40.1616 17 40.2105V40.7743C17 40.8233 17.049 40.8808 17.1062 40.8808H18.7383L19.1475 41.7878H17.4332C17.3762 41.7878 17.327 41.8284 17.327 41.8776V42.4171C17.327 42.4989 17.3845 42.5398 17.4418 42.5398H19.9204V43.1688H17.1148C17.0573 43.1688 17.0083 43.2263 17.0083 43.2753V43.8064C17.0083 43.8717 17.0736 43.9209 17.1225 43.9209H19.9204V45.0322C19.9204 45.1054 19.9696 45.1466 20.0349 45.1466H20.9268C20.9921 45.1466 21.0576 45.0808 21.0576 45.0239V43.9206ZM19.994 41.7884L19.5442 40.8813H21.4582L21.0247 41.7884H19.994ZM25.9063 45.0236V41.6562V41.656C26.2578 41.1248 26.6094 40.3075 26.8061 39.809C26.9041 39.5721 26.8631 39.3267 26.7242 39.1634C26.626 39.0406 26.4299 38.9591 26.2498 38.9591H26.1273C26.0861 38.7383 26.0454 38.5506 25.9632 38.3621C25.8327 38.0847 25.5054 38.0026 25.2351 38.0601C24.9737 38.117 24.7284 38.3052 24.6465 38.575C24.7939 38.5258 24.8999 38.5589 24.9488 38.6485C24.9984 38.7303 25.023 38.8364 25.031 38.9594H24.3765C24.3355 38.9594 24.2866 39.016 24.2866 39.0489V39.6373C24.2866 39.6865 24.3355 39.7274 24.3765 39.7274H25.6036C25.6446 39.7274 25.6855 39.7764 25.6775 39.8253C25.293 40.6019 24.8841 41.3862 24.3112 42.0893C24.27 42.1465 24.2866 42.2527 24.3602 42.2527H24.8432V45.015C24.8432 45.0805 24.8841 45.1294 24.9333 45.1294H25.8C25.8407 45.1294 25.9063 45.0888 25.9063 45.0236ZM26.3727 43.936H26.9613C27.0183 43.936 27.0675 43.9034 27.0592 43.8462C26.9367 43.0373 26.8631 42.3342 26.8468 41.5416C26.8468 41.4846 26.8061 41.4517 26.7572 41.4517H26.1926C26.1433 41.4517 26.1107 41.4926 26.1107 41.5416C26.1107 42.3262 26.1599 43.0619 26.2498 43.8216C26.2578 43.8708 26.3231 43.936 26.3727 43.936ZM27.1572 38.9182H31.2474C31.305 38.9182 31.3456 38.8607 31.3456 38.8038V38.2809C31.3456 38.24 31.3133 38.1991 31.2557 38.1991H27.174C27.1248 38.1991 27.0675 38.24 27.0675 38.2889V38.8201C27.0675 38.8773 27.1005 38.9182 27.1572 38.9182ZM30.5196 45.1294C30.7406 45.1294 30.9534 45.0479 31.1005 44.9172V44.9177C31.2234 44.8033 31.305 44.648 31.305 44.4601V42.2615C31.305 42.065 31.2151 41.8854 31.0756 41.7549C30.9536 41.6405 30.7816 41.5667 30.6175 41.5667H28.8098C28.63 41.5667 28.5071 41.6239 28.4335 41.714C28.3436 41.8199 28.3193 41.9755 28.3436 42.1145C28.368 42.2941 28.4662 42.4492 28.5727 42.482C28.54 42.3591 28.6217 42.2366 28.6952 42.2366H28.8015V42.9317H28.1962V41.6482C28.1962 41.6071 28.1719 41.5661 28.1229 41.5661H27.3209C27.272 41.5661 27.231 41.6071 27.231 41.6399V44.4186C27.231 44.5985 27.3049 44.7699 27.4274 44.8929C27.5666 45.0396 27.7796 45.1294 28.025 45.1294H30.5196ZM30.1185 41.2071C30.4294 41.2071 30.6837 41.0847 30.8552 40.8805H30.8549C31.0184 40.7005 31.1083 40.4474 31.1083 40.1857C31.1083 39.9239 31.0181 39.6708 30.838 39.4748C30.6748 39.2949 30.4458 39.1885 30.1835 39.1885H29.1124C28.8997 39.1885 28.7525 39.2617 28.6706 39.3684C28.5561 39.5152 28.5561 39.736 28.638 39.9076C28.7116 40.079 28.8504 40.21 29.0305 40.2017C28.9406 40.1365 28.9243 40.063 28.9406 39.9977C28.9567 39.9239 29.0225 39.8587 29.0961 39.8587H29.6521C29.7749 39.8587 29.8731 39.9079 29.9304 39.9814C30.0203 40.0875 30.0369 40.2429 29.9794 40.3653C29.9304 40.4631 29.8242 40.5369 29.6847 40.5369H28.6214C28.54 40.5369 28.4582 40.4551 28.4582 40.3733V39.2863C28.4582 39.2294 28.4169 39.1885 28.376 39.1885H27.501C27.4438 39.1885 27.4028 39.2131 27.4028 39.2617V40.5043C27.4028 40.684 27.4684 40.8559 27.5826 40.9783C27.7057 41.117 27.8855 41.2071 28.0902 41.2071H30.1185ZM28.1959 43.6182H28.8012V44.4109H28.4006C28.319 44.4109 28.1959 44.3047 28.1959 44.1574V43.6182ZM30.0859 42.2369C30.2084 42.2369 30.3229 42.3347 30.3229 42.4577V42.932H29.7586V42.2369H30.0859ZM29.7586 43.6182H30.3229V44.2312C30.3229 44.321 30.2084 44.4111 30.1182 44.4111H29.7586V43.6182ZM33.0659 40.847C33.0335 40.9045 32.9599 40.9454 32.8944 40.9454H31.7334C31.6753 40.9454 31.6435 40.8553 31.6673 40.7978C32.1746 39.9728 32.4941 39.1307 32.8131 38.2317C32.8291 38.1828 32.903 38.1339 32.9763 38.1339H33.9174C34.0153 38.1339 34.056 38.1994 34.0319 38.2812C33.7779 39.1636 33.4673 40.0135 33.0662 40.847H33.0659ZM38.5227 45.1377H31.815C31.7655 45.1377 31.7414 45.0968 31.7414 45.0396V44.4512C31.7414 44.4186 31.7826 44.3611 31.8235 44.3611H32.2648V41.5335C32.2648 41.4683 32.3303 41.4354 32.3873 41.4354H33.2712C33.3284 41.4354 33.3854 41.4926 33.3854 41.5335V44.3611H34.6781V40.5449C34.6781 40.4139 34.6125 40.3407 34.5143 40.3241C34.4241 40.3075 34.269 40.365 34.1464 40.4383C34.2612 40.2503 34.449 40.1033 34.6532 40.0135C34.9069 39.9073 35.1932 39.8745 35.4142 39.9563C35.6516 40.0381 35.815 40.2426 35.815 40.5939V41.5907H38.2286C38.2776 41.5907 38.31 41.6236 38.31 41.6645V42.2609C38.31 42.3264 38.269 42.3673 38.2118 42.3673H35.815V44.3611H38.5069C38.5556 44.3611 38.6126 44.394 38.6126 44.4512V45.0396C38.6126 45.1048 38.5636 45.1377 38.5227 45.1377ZM38.5966 40.9451H37.492C37.4098 40.9451 37.3368 40.912 37.2958 40.855C36.9603 40.3645 36.6004 39.6127 36.339 39.065C36.2897 38.9668 36.1672 38.9096 36.069 38.9096H34.7843C34.6532 38.9096 34.5804 38.9914 34.5721 39.0896C34.5553 39.1794 34.5885 39.2775 34.6703 39.3593C34.5063 39.3267 34.3591 39.196 34.2529 38.9997C34.1542 38.8038 34.1055 38.5667 34.1874 38.3867C34.2692 38.1908 34.4656 38.1336 34.6703 38.1336H36.5351C36.6989 38.1336 36.8541 38.1579 36.9849 38.2154C37.1492 38.2809 37.2801 38.395 37.3611 38.5667C37.7296 39.335 38.1465 40.0787 38.6618 40.7898C38.6945 40.8387 38.6784 40.9451 38.5966 40.9451Z" fill="#D59D43"/>
<path d="M40.7219 17.367V16.625H42.6329V17.367H40.7219Z" fill="#D59D43"/>
<path d="M32.031 17.5104H38.576V18.1964H32.031V17.5104ZM36.448 17.1534L36.833 16.7894C36.959 16.8688 37.092 16.9621 37.232 17.0694C37.372 17.1721 37.484 17.2654 37.568 17.3494L37.162 17.7554C37.0873 17.6668 36.98 17.5664 36.84 17.4544C36.7047 17.3424 36.574 17.2421 36.448 17.1534ZM34.544 15.2774H38.478V15.8164H34.544V15.2774ZM36.889 14.8224H37.687V16.2574C37.687 16.4161 37.666 16.5398 37.624 16.6284C37.5867 16.7171 37.5097 16.7848 37.393 16.8314C37.2763 16.8781 37.1387 16.9061 36.98 16.9154C36.826 16.9201 36.6463 16.9224 36.441 16.9224C36.4223 16.8244 36.392 16.7194 36.35 16.6074C36.3127 16.4954 36.2707 16.3951 36.224 16.3064C36.3407 16.3111 36.455 16.3158 36.567 16.3204C36.679 16.3204 36.7537 16.3204 36.791 16.3204C36.8283 16.3158 36.854 16.3088 36.868 16.2994C36.882 16.2854 36.889 16.2621 36.889 16.2294V14.8224ZM32.066 15.1304H34.026V15.7884H32.066V15.1304ZM33.571 13.0724H34.327V17.0834H33.571V13.0724ZM32.346 13.2334H33.046V14.1154H34.005V14.7524H32.346V13.2334ZM34.957 16.0334L35.468 15.6414C35.594 15.7208 35.7247 15.8164 35.86 15.9284C36 16.0404 36.1097 16.1431 36.189 16.2364L35.643 16.6634C35.5777 16.5654 35.4773 16.4581 35.342 16.3414C35.2113 16.2201 35.083 16.1174 34.957 16.0334ZM35.615 13.8634L36.133 13.6814C36.2917 13.7934 36.455 13.9311 36.623 14.0944C36.791 14.2531 36.9217 14.3978 37.015 14.5284L36.462 14.7174C36.3827 14.5914 36.2613 14.4491 36.098 14.2904C35.9393 14.1271 35.7783 13.9848 35.615 13.8634ZM37.617 13.4084H37.75L37.883 13.3804L38.317 13.6044C38.163 13.8844 37.967 14.1248 37.729 14.3254C37.4957 14.5214 37.2273 14.6894 36.924 14.8294C36.6253 14.9648 36.301 15.0744 35.951 15.1584C35.6057 15.2424 35.2417 15.3101 34.859 15.3614C34.8263 15.2821 34.7797 15.1981 34.719 15.1094C34.6583 15.0208 34.6 14.9461 34.544 14.8854C34.88 14.8481 35.2043 14.7944 35.517 14.7244C35.8343 14.6544 36.1283 14.5658 36.399 14.4584C36.6743 14.3464 36.9147 14.2111 37.12 14.0524C37.33 13.8938 37.4957 13.7094 37.617 13.4994V13.4084ZM36.392 13.0234L37.078 13.1704C36.8167 13.3991 36.5133 13.5928 36.168 13.7514C35.8227 13.9101 35.4213 14.0548 34.964 14.1854C34.922 14.1108 34.859 14.0268 34.775 13.9334C34.691 13.8401 34.6163 13.7678 34.551 13.7164C34.9663 13.6324 35.3303 13.5321 35.643 13.4154C35.9603 13.2941 36.21 13.1634 36.392 13.0234ZM36.224 13.4084H37.82V13.8634H35.601L36.224 13.4084ZM32.458 15.4174H33.2V15.7744C33.2 15.8771 33.1837 16.0171 33.151 16.1944C33.123 16.3671 33.0693 16.5444 32.99 16.7264C32.9107 16.9038 32.7917 17.0578 32.633 17.1884C32.5863 17.1511 32.5233 17.1114 32.444 17.0694C32.3693 17.0228 32.2923 16.9784 32.213 16.9364C32.1337 16.8944 32.0613 16.8618 31.996 16.8384C32.1313 16.7311 32.2317 16.6074 32.297 16.4674C32.3623 16.3274 32.4043 16.1921 32.423 16.0614C32.4463 15.9308 32.458 15.8258 32.458 15.7464V15.4174ZM34.859 16.8594H35.692V17.3494C35.692 17.5081 35.6687 17.6761 35.622 17.8534C35.5753 18.0308 35.4867 18.2081 35.356 18.3854C35.23 18.5581 35.048 18.7261 34.81 18.8894C34.572 19.0528 34.2593 19.2021 33.872 19.3374C33.4893 19.4728 33.018 19.5848 32.458 19.6734C32.4067 19.5754 32.3343 19.4588 32.241 19.3234C32.1523 19.1928 32.0683 19.0831 31.989 18.9944C32.4883 18.9151 32.9083 18.8264 33.249 18.7284C33.5897 18.6258 33.865 18.5161 34.075 18.3994C34.2897 18.2781 34.453 18.1568 34.565 18.0354C34.677 17.9094 34.754 17.7858 34.796 17.6644C34.838 17.5431 34.859 17.4288 34.859 17.3214V16.8594ZM35.475 18.5534L35.832 17.9864C36.042 18.0518 36.273 18.1288 36.525 18.2174C36.777 18.3014 37.0313 18.3878 37.288 18.4764C37.5447 18.5651 37.785 18.6538 38.009 18.7424C38.2377 18.8311 38.4337 18.9104 38.597 18.9804L38.219 19.6314C38.065 19.5614 37.876 19.4798 37.652 19.3864C37.4327 19.2931 37.197 19.1951 36.945 19.0924C36.693 18.9944 36.4387 18.8988 36.182 18.8054C35.93 18.7121 35.6943 18.6281 35.475 18.5534ZM34.761 14.2554C34.915 14.2461 35.076 14.2368 35.244 14.2274C35.4167 14.2134 35.6057 14.1994 35.811 14.1854L35.825 14.5774C35.6477 14.5914 35.4773 14.6078 35.314 14.6264C35.1507 14.6451 34.9897 14.6638 34.831 14.6824L34.761 14.2554Z" fill="#D59D43"/>
<path d="M26.4031 15.0797H30.1481V15.8497H26.4031V15.0797ZM25.5911 16.5777H30.9811V17.3337H25.5911V16.5777ZM25.2551 18.7057H31.3451V19.4757H25.2551V18.7057ZM27.8311 15.4437H28.7341V19.0697H27.8311V15.4437ZM26.0531 17.5717L26.7321 17.2847C26.8208 17.406 26.9071 17.5367 26.9911 17.6767C27.0751 17.8167 27.1521 17.9543 27.2221 18.0897C27.2968 18.2203 27.3504 18.3417 27.3831 18.4537L26.6621 18.7687C26.6294 18.6613 26.5804 18.5377 26.5151 18.3977C26.4498 18.2577 26.3774 18.1153 26.2981 17.9707C26.2188 17.826 26.1371 17.693 26.0531 17.5717ZM29.7701 17.2987L30.5751 17.5857C30.4398 17.805 30.3021 18.022 30.1621 18.2367C30.0221 18.4467 29.8938 18.6263 29.7771 18.7757L29.1471 18.5097C29.2218 18.3977 29.2964 18.274 29.3711 18.1387C29.4504 17.9987 29.5251 17.8563 29.5951 17.7117C29.6651 17.5623 29.7234 17.4247 29.7701 17.2987ZM28.6011 13.4207C28.7644 13.5933 28.9604 13.7637 29.1891 13.9317C29.4224 14.0997 29.6768 14.2583 29.9521 14.4077C30.2274 14.557 30.5121 14.6923 30.8061 14.8137C31.1001 14.935 31.3918 15.0353 31.6811 15.1147C31.6204 15.1707 31.5528 15.243 31.4781 15.3317C31.4034 15.4203 31.3311 15.5113 31.2611 15.6047C31.1958 15.6933 31.1421 15.7727 31.1001 15.8427C30.8108 15.7447 30.5191 15.6233 30.2251 15.4787C29.9311 15.3293 29.6418 15.1637 29.3571 14.9817C29.0771 14.7997 28.8134 14.606 28.5661 14.4007C28.3188 14.1953 28.0994 13.983 27.9081 13.7637L28.6011 13.4207ZM28.1951 12.9727L28.9931 13.3297C28.7271 13.7403 28.4121 14.1067 28.0481 14.4287C27.6841 14.7507 27.2851 15.033 26.8511 15.2757C26.4218 15.5137 25.9714 15.7167 25.5001 15.8847C25.4394 15.7633 25.3578 15.6303 25.2551 15.4857C25.1524 15.341 25.0451 15.215 24.9331 15.1077C25.3764 14.977 25.8058 14.8137 26.2211 14.6177C26.6364 14.417 27.0144 14.179 27.3551 13.9037C27.6958 13.6283 27.9758 13.318 28.1951 12.9727Z" fill="#D59D43"/>
<path d="M19.3733 17.367V16.625H21.2843V17.367H19.3733Z" fill="#D59D43"/>
<defs>
<linearGradient id="paint0_linear_826_20881" x1="27.8647" y1="44.9169" x2="15.7266" y2="82.9505" gradientUnits="userSpaceOnUse">
<stop offset="0.22" stop-color="#CC822A"/>
<stop offset="0.29" stop-color="#CD852E"/>
<stop offset="0.37" stop-color="#D3913C"/>
<stop offset="0.46" stop-color="#DCA454"/>
<stop offset="0.55" stop-color="#E9BE75"/>
<stop offset="0.64" stop-color="#F9E09E"/>
<stop offset="0.7" stop-color="#F6DA96"/>
<stop offset="0.78" stop-color="#EECD81"/>
<stop offset="0.88" stop-color="#E1B660"/>
<stop offset="0.9" stop-color="#DEB158"/>
<stop offset="0.93" stop-color="#DCAC53"/>
<stop offset="0.96" stop-color="#D6A046"/>
<stop offset="1" stop-color="#CC8B30"/>
</linearGradient>
<linearGradient id="paint1_linear_826_20881" x1="27.5312" y1="44.7954" x2="10.8739" y2="74.2247" gradientUnits="userSpaceOnUse">
<stop stop-color="#D53333"/>
<stop offset="0.01" stop-color="#D63737"/>
<stop offset="0.15" stop-color="#E86666"/>
<stop offset="0.22" stop-color="#F07878"/>
<stop offset="0.36" stop-color="#CA5555"/>
<stop offset="0.51" stop-color="#AD3A3A"/>
<stop offset="0.65" stop-color="#982727"/>
<stop offset="0.79" stop-color="#8B1B1B"/>
<stop offset="0.92" stop-color="#871818"/>
</linearGradient>
<linearGradient id="paint2_linear_826_20881" x1="36.4965" y1="17.893" x2="13.5396" y2="89.8264" gradientUnits="userSpaceOnUse">
<stop offset="0.01" stop-color="#CC822A"/>
<stop offset="0.04" stop-color="#D19038"/>
<stop offset="0.09" stop-color="#D8A249"/>
<stop offset="0.15" stop-color="#DCAD54"/>
<stop offset="0.21" stop-color="#DEB158"/>
<stop offset="0.52" stop-color="#F9E09E"/>
<stop offset="0.81" stop-color="#DEB158"/>
<stop offset="1" stop-color="#CC8B30"/>
</linearGradient>
<linearGradient id="paint3_linear_826_20881" x1="35.9052" y1="43.416" x2="46.8768" y2="81.8049" gradientUnits="userSpaceOnUse">
<stop offset="0.22" stop-color="#CC822A"/>
<stop offset="0.29" stop-color="#CD852E"/>
<stop offset="0.37" stop-color="#D3913C"/>
<stop offset="0.46" stop-color="#DCA454"/>
<stop offset="0.55" stop-color="#E9BE75"/>
<stop offset="0.64" stop-color="#F9E09E"/>
<stop offset="0.7" stop-color="#F6DA96"/>
<stop offset="0.78" stop-color="#EECD81"/>
<stop offset="0.88" stop-color="#E1B660"/>
<stop offset="0.9" stop-color="#DEB158"/>
<stop offset="0.93" stop-color="#DCAC53"/>
<stop offset="0.96" stop-color="#D6A046"/>
<stop offset="1" stop-color="#CC8B30"/>
</linearGradient>
<linearGradient id="paint4_linear_826_20881" x1="45.6848" y1="44.322" x2="28.7662" y2="73.1519" gradientUnits="userSpaceOnUse">
<stop stop-color="#D53333"/>
<stop offset="0.01" stop-color="#D63737"/>
<stop offset="0.15" stop-color="#E86666"/>
<stop offset="0.22" stop-color="#F07878"/>
<stop offset="0.36" stop-color="#CA5555"/>
<stop offset="0.51" stop-color="#AD3A3A"/>
<stop offset="0.65" stop-color="#982727"/>
<stop offset="0.79" stop-color="#8B1B1B"/>
<stop offset="0.92" stop-color="#871818"/>
</linearGradient>
<linearGradient id="paint5_linear_826_20881" x1="28.3913" y1="16.9137" x2="49.1303" y2="89.5264" gradientUnits="userSpaceOnUse">
<stop offset="0.01" stop-color="#CC822A"/>
<stop offset="0.04" stop-color="#D19038"/>
<stop offset="0.09" stop-color="#D8A249"/>
<stop offset="0.15" stop-color="#DCAD54"/>
<stop offset="0.21" stop-color="#DEB158"/>
<stop offset="0.52" stop-color="#F9E09E"/>
<stop offset="0.81" stop-color="#DEB158"/>
<stop offset="1" stop-color="#CC8B30"/>
</linearGradient>
<linearGradient id="paint6_linear_826_20881" x1="0" y1="31.4979" x2="63" y2="31.4979" gradientUnits="userSpaceOnUse">
<stop offset="0.01" stop-color="#CC822A"/>
<stop offset="0.04" stop-color="#D19038"/>
<stop offset="0.09" stop-color="#D8A249"/>
<stop offset="0.15" stop-color="#DCAD54"/>
<stop offset="0.21" stop-color="#DEB158"/>
<stop offset="0.52" stop-color="#F9E09E"/>
<stop offset="0.81" stop-color="#DEB158"/>
<stop offset="1" stop-color="#CC8B30"/>
</linearGradient>
<linearGradient id="paint7_linear_826_20881" x1="6.33424" y1="31.4974" x2="56.6657" y2="31.4974" gradientUnits="userSpaceOnUse">
<stop offset="0.01" stop-color="#CC822A"/>
<stop offset="0.04" stop-color="#D19038"/>
<stop offset="0.09" stop-color="#D8A249"/>
<stop offset="0.15" stop-color="#DCAD54"/>
<stop offset="0.21" stop-color="#DEB158"/>
<stop offset="0.52" stop-color="#F9E09E"/>
<stop offset="0.81" stop-color="#DEB158"/>
<stop offset="1" stop-color="#CC8B30"/>
</linearGradient>
</defs>
</svg>
