<svg width="80" height="80" viewBox="0 0 80 80" fill="none" xmlns="http://www.w3.org/2000/svg">
<rect x="0.5" y="0.5" width="79" height="79" rx="19.5" fill="white"/>
<rect x="0.5" y="0.5" width="79" height="79" rx="19.5" stroke="#EAEAEA"/>
<path d="M60 14.9908C57.2436 14.9908 55.0011 17.2384 55.0011 20.0007C55.0011 22.7629 57.2436 25.0105 60 25.0105C62.756 25.0105 64.9989 22.7633 64.9989 20.0007C64.9989 17.238 62.756 14.9908 60 14.9908ZM60 13.5182C59.7414 13.5182 59.4934 13.4153 59.3105 13.2321C59.1275 13.0489 59.0247 12.8004 59.0246 12.5412V10.9774C59.0246 10.7182 59.1274 10.4696 59.3103 10.2863C59.4932 10.103 59.7413 10 60 10C60.2587 10 60.5068 10.103 60.6897 10.2863C60.8726 10.4696 60.9754 10.7182 60.9754 10.9774V12.5412C60.9753 12.8004 60.8725 13.0489 60.6895 13.2321C60.5066 13.4153 60.2586 13.5182 60 13.5182ZM60 26.4818C59.8719 26.4818 59.7451 26.507 59.6267 26.5562C59.5084 26.6053 59.4009 26.6773 59.3103 26.768C59.2197 26.8588 59.1479 26.9666 59.0989 27.0852C59.0498 27.2037 59.0246 27.3308 59.0246 27.4592V29.0226C59.0246 29.2818 59.1274 29.5304 59.3103 29.7137C59.4932 29.897 59.7413 30 60 30C60.2587 30 60.5068 29.897 60.6897 29.7137C60.8726 29.5304 60.9754 29.2818 60.9754 29.0226V27.4592C60.9753 27.2 60.8725 26.9515 60.6896 26.7682C60.5067 26.5849 60.2587 26.4819 60 26.4818ZM64.5733 15.4169C64.3905 15.2335 64.2878 14.9849 64.2878 14.7257C64.2878 14.4666 64.3905 14.218 64.5733 14.0346L65.6769 12.9288C65.7671 12.8364 65.8747 12.763 65.9934 12.7126C66.1121 12.6622 66.2397 12.6359 66.3686 12.6353C66.4976 12.6346 66.6254 12.6595 66.7446 12.7087C66.8639 12.7578 66.9722 12.8302 67.0634 12.9215C67.1546 13.0129 67.2268 13.1215 67.2758 13.241C67.3248 13.3605 67.3497 13.4886 67.3491 13.6178C67.3484 13.747 67.3222 13.8748 67.2719 13.9938C67.2216 14.1128 67.1483 14.2206 67.0562 14.311L65.9526 15.4169C65.7697 15.6001 65.5216 15.7031 65.263 15.7031C65.0043 15.7031 64.7562 15.6001 64.5733 15.4169ZM55.4263 24.584C55.3357 24.4932 55.2282 24.4211 55.1099 24.3719C54.9916 24.3227 54.8647 24.2974 54.7366 24.2974C54.6085 24.2974 54.4816 24.3227 54.3633 24.3719C54.2449 24.4211 54.1374 24.4932 54.0469 24.584L52.9434 25.6895C52.7636 25.8734 52.6635 26.121 52.6649 26.3785C52.6662 26.6359 52.7688 26.8825 52.9505 27.0645C53.1322 27.2466 53.3782 27.3494 53.6351 27.3508C53.8921 27.3521 54.1391 27.2518 54.3227 27.0717L55.4263 25.9654C55.5168 25.8747 55.5887 25.767 55.6377 25.6485C55.6868 25.53 55.712 25.403 55.712 25.2747C55.712 25.1464 55.6868 25.0194 55.6377 24.9009C55.5887 24.7823 55.5168 24.6747 55.4263 24.584ZM66.4679 20.0002C66.4679 19.4604 66.9046 19.0228 67.4433 19.0228H69.0039C69.1337 19.02 69.2627 19.0432 69.3834 19.0911C69.5042 19.139 69.6142 19.2105 69.7069 19.3015C69.7997 19.3925 69.8734 19.5012 69.9238 19.6212C69.9741 19.7411 70 19.8699 70 20C70 20.1301 69.9741 20.2589 69.9238 20.3788C69.8734 20.4988 69.7997 20.6075 69.7069 20.6985C69.6142 20.7895 69.5042 20.861 69.3834 20.9089C69.2627 20.9568 69.1337 20.98 69.0039 20.9772H67.4433C67.3153 20.9773 67.1884 20.952 67.0701 20.903C66.9518 20.8539 66.8442 20.7819 66.7537 20.6912C66.6631 20.6005 66.5912 20.4928 66.5422 20.3742C66.4932 20.2556 66.4679 20.1286 66.4679 20.0002ZM53.5316 20.0002C53.5316 19.8719 53.5064 19.7448 53.4574 19.6262C53.4084 19.5076 53.3365 19.3998 53.2459 19.3091C53.1554 19.2183 53.0478 19.1463 52.9295 19.0972C52.8112 19.0481 52.6843 19.0228 52.5562 19.0228H50.9961C50.8663 19.02 50.7373 19.0432 50.6166 19.0911C50.4958 19.139 50.3858 19.2105 50.2931 19.3015C50.2003 19.3925 50.1266 19.5012 50.0762 19.6212C50.0259 19.7411 50 19.8699 50 20C50 20.1301 50.0259 20.2589 50.0762 20.3788C50.1266 20.4988 50.2003 20.6075 50.2931 20.6985C50.3858 20.7895 50.4958 20.861 50.6166 20.9089C50.7373 20.9568 50.8663 20.98 50.9961 20.9772H52.5567C52.8152 20.9772 53.0632 20.8743 53.2461 20.6911C53.4289 20.5078 53.5316 20.2593 53.5316 20.0002ZM64.5733 24.584C64.7563 24.4009 65.0043 24.298 65.263 24.298C65.5216 24.298 65.7697 24.4009 65.9526 24.584L67.0562 25.6899C67.239 25.8732 67.3417 26.1218 67.3417 26.3809C67.3417 26.6401 67.2389 26.8887 67.056 27.0719C66.9654 27.1626 66.8579 27.2346 66.7396 27.2837C66.6212 27.3328 66.4944 27.358 66.3664 27.358C66.1077 27.358 65.8597 27.255 65.6769 27.0717L64.5733 25.9658C64.4827 25.8751 64.4108 25.7674 64.3618 25.6489C64.3128 25.5303 64.2875 25.4032 64.2875 25.2749C64.2875 25.1466 64.3128 25.0195 64.3618 24.901C64.4108 24.7824 64.4827 24.6747 64.5733 24.584ZM55.4263 15.4169C55.6092 15.2336 55.7119 14.985 55.7119 14.7257C55.7119 14.4665 55.6092 14.2179 55.4263 14.0346L54.3227 12.9292C54.1386 12.7521 53.8926 12.6544 53.6374 12.657C53.3822 12.6596 53.1382 12.7624 52.9577 12.9432C52.7773 13.1239 52.6747 13.3684 52.672 13.6241C52.6693 13.8798 52.7667 14.1264 52.9434 14.311L54.0469 15.4169C54.1374 15.5077 54.2449 15.5798 54.3633 15.629C54.4816 15.6782 54.6085 15.7035 54.7366 15.7035C54.8647 15.7035 54.9916 15.6782 55.1099 15.629C55.2282 15.5798 55.3357 15.5077 55.4263 15.4169Z" fill="url(#paint0_linear_2854_26272)"/>
<path d="M44.7998 38H59.9998C62.2089 38 63.9998 39.7909 63.9998 42V64C63.9998 67.3137 61.3135 70 57.9998 70H44.7998V38Z" fill="url(#paint1_linear_2854_26272)"/>
<rect x="20.7998" y="26" width="2.4" height="8" rx="1.2" fill="url(#paint2_linear_2854_26272)"/>
<rect x="28" y="26" width="2.4" height="8" rx="1.2" fill="url(#paint3_linear_2854_26272)"/>
<path fill-rule="evenodd" clip-rule="evenodd" d="M39.2 22C36.9909 22 35.2 23.7909 35.2 26V70H47.2V26C47.2 23.7909 45.4092 22 43.2 22H39.2ZM20 30C17.7909 30 16 31.7909 16 34V64C16 67.3137 18.6863 70 22 70H35.2V30H20Z" fill="url(#paint4_linear_2854_26272)"/>
<rect x="20" y="34.7998" width="4" height="4" rx="1.5" fill="white"/>
<rect x="20" y="42" width="4" height="4" rx="1.5" fill="white"/>
<rect x="27.2002" y="34.7998" width="4" height="4" rx="1.5" fill="white"/>
<rect x="52.7998" y="43.5996" width="4" height="4" rx="1.5" fill="white"/>
<rect x="52.7998" y="49.2002" width="4" height="4" rx="1.5" fill="white"/>
<rect x="39.2002" y="26" width="4" height="4" rx="1.5" fill="white"/>
<rect x="39.2002" y="33.2002" width="4" height="4" rx="1.5" fill="white"/>
<rect x="39.2002" y="40.4004" width="4" height="12.8" rx="1.5" fill="white"/>
<rect x="27.2002" y="42" width="4" height="4" rx="1.5" fill="white"/>
<rect x="20" y="49.2002" width="4" height="4" rx="1.5" fill="white"/>
<rect x="27.2002" y="49.2002" width="4" height="4" rx="1.5" fill="white"/>
<defs>
<linearGradient id="paint0_linear_2854_26272" x1="50" y1="10" x2="56.1142" y2="33.5978" gradientUnits="userSpaceOnUse">
<stop stop-color="#E2605E"/>
<stop offset="1" stop-color="#E1B694"/>
</linearGradient>
<linearGradient id="paint1_linear_2854_26272" x1="44.7998" y1="38" x2="59.4642" y2="71.9586" gradientUnits="userSpaceOnUse">
<stop stop-color="#E2605E"/>
<stop offset="1" stop-color="#E1B694"/>
</linearGradient>
<linearGradient id="paint2_linear_2854_26272" x1="20.7998" y1="26" x2="25.7826" y2="31.7693" gradientUnits="userSpaceOnUse">
<stop stop-color="#E2605E"/>
<stop offset="1" stop-color="#E1B694"/>
</linearGradient>
<linearGradient id="paint3_linear_2854_26272" x1="28" y1="26" x2="32.9828" y2="31.7693" gradientUnits="userSpaceOnUse">
<stop stop-color="#E2605E"/>
<stop offset="1" stop-color="#E1B694"/>
</linearGradient>
<linearGradient id="paint4_linear_2854_26272" x1="16" y1="22" x2="36.7879" y2="74.1504" gradientUnits="userSpaceOnUse">
<stop stop-color="#E2605E"/>
<stop offset="1" stop-color="#E1B694"/>
</linearGradient>
</defs>
</svg>
