<svg width="100" height="100" viewBox="0 0 100 100" fill="none" xmlns="http://www.w3.org/2000/svg">
<rect width="100" height="100" rx="50" fill="white" fill-opacity="0.6"/>
<path d="M62.3159 27.5869C56.7979 24.0933 50.1676 22.8034 43.7423 23.9735C42.861 24.1278 42.0018 23.621 41.8035 22.7397C41.5831 21.8364 42.156 20.911 43.0593 20.7347C44.7999 20.4263 46.5846 20.25 48.3692 20.25C54.318 20.25 59.8482 22.0126 64.4751 25.0531C63.4396 25.5599 62.6684 26.4853 62.3159 27.5869ZM77.915 49.7958L74.6101 49.7958C74.6026 43.613 72.4185 37.6303 68.441 32.8968C69.4545 32.412 70.2697 31.5087 70.6443 30.4291C74.7479 35.1157 77.2488 40.9896 77.7828 47.196C77.871 48.0553 77.915 48.9145 77.915 49.7958Z" fill="#E2605E"/>
<path d="M71.6028 46.3898C71.7797 46.264 71.9797 46.1744 72.1912 46.1259C72.4028 46.0774 72.6219 46.0711 72.8359 46.1073C73.0499 46.1436 73.2547 46.2216 73.4385 46.337C73.6224 46.4523 73.7817 46.6028 73.9074 46.7798L75.7405 49.3598C75.8507 49.514 76.0005 49.5449 76.1063 49.5427C76.212 49.5405 76.3596 49.5008 76.4588 49.34L78.1355 46.6564C78.3731 46.2972 78.7416 46.045 79.1624 45.9535C79.5833 45.862 80.0232 45.9384 80.3886 46.1665C80.7539 46.3945 81.0158 46.7562 81.1184 47.1744C81.221 47.5927 81.1563 48.0345 80.938 48.4058L79.2613 51.0894C78.5982 52.1513 77.4547 52.8057 76.2032 52.8432C74.9517 52.8806 73.7708 52.2923 73.0459 51.2722L71.2128 48.6922C71.087 48.5153 70.9974 48.3153 70.9489 48.1038C70.9004 47.8922 70.8941 47.6731 70.9304 47.4591C70.9666 47.2451 71.0446 47.0403 71.16 46.8565C71.2753 46.6726 71.4258 46.5133 71.6028 46.3876L71.6028 46.3898Z" fill="#E2605E"/>
<path fill-rule="evenodd" clip-rule="evenodd" d="M39.6026 73.1861C39.9233 72.8873 40.1121 72.4735 40.1276 72.0355C40.1431 71.5975 39.9862 71.1714 39.6874 70.8507C39.3887 70.5301 38.9748 70.3413 38.5369 70.3258L35.373 70.2134C34.7579 70.1905 34.1467 70.32 33.5938 70.5905C33.0409 70.861 32.5634 71.264 32.204 71.7637C31.8446 72.2633 31.6143 72.8441 31.5337 73.4543C31.4531 74.0646 31.5246 74.6852 31.742 75.2611L32.8546 78.2245C32.931 78.4276 33.0467 78.6137 33.195 78.7721C33.3433 78.9305 33.5213 79.0582 33.7189 79.1478C33.9166 79.2374 34.1299 79.2872 34.3468 79.2944C34.5637 79.3015 34.7799 79.2659 34.983 79.1895C35.1861 79.1131 35.3722 78.9975 35.5306 78.8492C35.689 78.7009 35.8167 78.5228 35.9063 78.3252C35.9959 78.1276 36.0457 77.9142 36.0529 77.6973C36.06 77.4805 36.0244 77.2643 35.948 77.0612L35.7381 76.502C39.6669 78.3597 43.9889 79.333 48.3701 79.333C60.801 79.333 71.9936 71.3814 76.1688 59.7966C76.486 58.9153 75.9572 57.9502 75.0605 57.6858C74.6506 57.57 74.2119 57.6158 73.8348 57.8138C73.4577 58.0117 73.1709 58.3468 73.0335 58.75C69.3056 68.9974 59.3843 76.028 48.3701 76.028C44.543 76.0297 40.771 75.1938 37.3156 73.5893L38.4179 73.6285C38.8558 73.6439 39.282 73.4848 39.6026 73.1861ZM33.8492 30.8826C34.0125 31.0256 34.2023 31.135 34.4079 31.2045C34.6135 31.2741 34.8308 31.3048 35.0473 31.2904C35.2639 31.2761 35.4755 31.2192 35.6701 31.123C35.8647 31.0268 36.0384 30.8933 36.1813 30.73C36.3243 30.5667 36.4337 30.3768 36.5032 30.1712L37.5189 27.1725C37.9199 25.985 37.704 24.6873 36.9395 23.6936C36.175 22.6999 34.9742 22.1601 33.7249 22.2438L30.5676 22.4598C30.1389 22.5004 29.743 22.7069 29.4642 23.0351C29.1854 23.3634 29.0458 23.7876 29.0751 24.2172C29.1044 24.6469 29.3002 25.0482 29.621 25.3356C29.9418 25.6229 30.3621 25.7737 30.7924 25.7558L31.2524 25.7244C27.8337 28.1635 24.9629 31.3086 22.842 34.9594C20.2239 39.4662 18.841 44.5839 18.8331 49.7959C18.8159 56.9477 21.413 63.8597 26.1325 69.2332C26.2823 69.3984 26.4641 69.5314 26.6669 69.6242C26.8697 69.717 27.0893 69.7676 27.3122 69.773C27.5352 69.7783 27.7569 69.7383 27.9639 69.6554C28.1709 69.5724 28.3589 69.4483 28.5165 69.2904C28.8172 68.9885 28.9905 68.5825 29.0003 68.1564C29.0101 67.7303 28.8559 67.3168 28.5693 67.0013C24.4096 62.229 22.138 56.1788 22.138 49.7959C22.1454 45.1666 23.374 40.6213 25.6997 36.6186C27.7006 33.1749 30.4527 30.2378 33.7411 28.0206L33.3724 29.1092C33.3028 29.3148 33.2743 29.5321 33.2887 29.7486C33.3031 29.9652 33.36 30.1768 33.4561 30.3714C33.5523 30.566 33.6858 30.7397 33.8492 30.8826ZM65.4454 49.7959C65.4454 40.3813 57.7846 32.7205 48.37 32.7205C38.9555 32.7205 31.2947 40.3813 31.2947 49.7959C31.2947 59.2031 38.9436 66.8593 48.3481 66.8712L48.3702 66.8713L48.3925 66.8712C57.7968 66.859 65.4454 59.203 65.4454 49.7959ZM53.2285 62.6813C57.9366 60.9 61.4219 56.6082 62.0419 51.4484H55.4998C55.341 55.6656 54.575 59.7687 53.2285 62.6813ZM62.0419 48.1435H55.4998C55.341 43.9263 54.575 39.8231 53.2285 36.9104C57.9367 38.6918 61.422 42.9836 62.0419 48.1435ZM43.512 36.9103C42.1655 39.8229 41.3994 43.9262 41.2407 48.1435L34.6982 48.1435C35.3182 42.9835 38.8037 38.6915 43.512 36.9103ZM34.6982 51.4484C35.3182 56.6084 38.8037 60.9002 43.512 62.6814C42.1654 59.7688 41.3994 55.6656 41.2407 51.4484H34.6982ZM48.3767 63.5663H48.37H48.3637C47.2802 63.5499 44.8459 59.4336 44.5452 51.4484L52.1953 51.4484C51.8946 59.4336 49.4602 63.5499 48.3767 63.5663ZM48.3702 36.0255C49.4505 36.0255 51.894 40.1423 52.1953 48.1435H44.5452C44.8465 40.1423 47.29 36.0255 48.3702 36.0255Z" fill="url(#paint0_linear_2595_4029)"/>
<path d="M60.4406 28.9484C60.4406 25.606 63.1572 22.8894 66.4996 22.8894C69.842 22.8894 72.5586 25.606 72.5586 28.9484C72.5586 32.2908 69.842 35.0074 66.4996 35.0074C63.1572 35.0074 60.4406 32.2908 60.4406 28.9484ZM69.2537 28.9484C69.2537 27.4303 68.0177 26.1943 66.4996 26.1943C64.9816 26.1943 63.7455 27.4303 63.7455 28.9484C63.7455 30.4664 64.9816 31.7025 66.4996 31.7025C68.0177 31.7025 69.2537 30.4664 69.2537 28.9484Z" fill="#D9A479"/>
<defs>
<linearGradient id="paint0_linear_2595_4029" x1="18.833" y1="22.2354" x2="36.2003" y2="89.653" gradientUnits="userSpaceOnUse">
<stop stop-color="#E2605E"/>
<stop offset="1" stop-color="#E1B694"/>
</linearGradient>
</defs>
</svg>
