<svg width="135" height="28" viewBox="0 0 135 28" fill="none" xmlns="http://www.w3.org/2000/svg">
<g clip-path="url(#clip0_5_412)">
<path d="M40.4615 4.36947C40.4615 4.36947 39.9237 4.50514 39.9353 4.65546C39.947 4.80577 39.9353 8.17117 39.9353 8.17117C39.9353 8.17117 39.8591 8.24183 40.1612 8.24183C40.6985 8.18311 41.2423 8.28224 41.7128 8.5246C42.1833 8.76696 42.5555 9.13973 42.7747 9.58813C42.8867 10.1316 42.9213 10.686 42.8777 11.2375V27H50.7566V1H46.0865C44.5316 2.51016 42.6039 3.66489 40.4615 4.36947Z" fill="#FF0001"/>
<path d="M27.152 4.36947C27.152 4.36947 26.6141 4.50514 26.6302 4.65546C26.6463 4.80577 26.6302 8.17117 26.6302 8.17117C26.6302 8.17117 26.5486 8.24183 26.8498 8.24183C27.3867 8.18218 27.9304 8.28094 28.4003 8.52346C28.8703 8.76599 29.2415 9.13932 29.4588 9.58813C29.5715 10.1316 29.6083 10.6857 29.5682 11.2375V27H37.4471V1H32.7707C31.2193 2.51116 29.2933 3.66613 27.152 4.36947Z" fill="#FF0001"/>
<path d="M13.839 4.36947C13.839 4.36947 13.3082 4.50514 13.3172 4.65546C13.3262 4.80577 13.3172 8.17117 13.3172 8.17117C13.3172 8.17117 13.2409 8.24183 13.543 8.24183C14.0803 8.18297 14.6243 8.28203 15.0948 8.5244C15.5653 8.76677 15.9375 9.13965 16.1566 9.58813C16.2643 10.1321 16.3014 10.6857 16.2668 11.2375V27H24.1466V1H19.4684C17.9129 2.51143 15.9834 3.66633 13.839 4.36947Z" fill="#FF0001"/>
<path d="M0.532779 4.36947C0.532779 4.36947 0.00291025 4.50514 0.0100827 4.65546C0.0172551 4.80577 0.0100827 8.17117 0.0100827 8.17117C0.0100827 8.17117 -0.0733133 8.24183 0.239584 8.24183C0.775689 8.18384 1.31818 8.28333 1.7872 8.52569C2.25624 8.76806 2.62701 9.14047 2.84496 9.58813C2.96294 10.131 2.99974 10.6858 2.95435 11.2375V27H10.8386V1H6.16222C4.60599 2.5106 2.67676 3.66535 0.532779 4.36947Z" fill="#FF0001"/>
</g>
<path d="M67.683 6.597H69.279C69.2663 7.167 69.2347 7.88267 69.184 8.744C69.1333 9.60533 69.032 10.568 68.88 11.632C68.728 12.6833 68.4747 13.779 68.12 14.919C67.778 16.059 67.303 17.1863 66.695 18.301C66.087 19.403 65.3143 20.4417 64.377 21.417C63.4523 22.3923 62.3187 23.2347 60.976 23.944C60.8493 23.7667 60.6783 23.5703 60.463 23.355C60.2477 23.1523 60.0323 22.975 59.817 22.823C61.1343 22.1517 62.2427 21.36 63.142 20.448C64.054 19.5233 64.795 18.5353 65.365 17.484C65.935 16.4327 66.3783 15.375 66.695 14.311C67.0117 13.2343 67.2333 12.202 67.36 11.214C67.4993 10.226 67.588 9.333 67.626 8.535C67.664 7.737 67.683 7.091 67.683 6.597ZM69.089 8.953C69.127 9.16833 69.184 9.58 69.26 10.188C69.336 10.796 69.4753 11.5243 69.678 12.373C69.8807 13.2217 70.1657 14.1273 70.533 15.09C70.913 16.0527 71.4007 17.009 71.996 17.959C72.5913 18.909 73.326 19.7957 74.2 20.619C75.0867 21.4423 76.1317 22.1263 77.335 22.671C77.1323 22.823 76.936 23.013 76.746 23.241C76.556 23.469 76.404 23.678 76.29 23.868C75.0487 23.2853 73.972 22.557 73.06 21.683C72.1607 20.809 71.4007 19.8653 70.78 18.852C70.172 17.8387 69.678 16.819 69.298 15.793C68.918 14.7543 68.6203 13.779 68.405 12.867C68.2023 11.955 68.0503 11.1697 67.949 10.511C67.8477 9.83967 67.778 9.36467 67.74 9.086L69.089 8.953ZM79.577 10.682H94.321V12.145H79.577V10.682ZM93.77 10.682H95.233C95.233 10.682 95.233 10.7327 95.233 10.834C95.233 10.9353 95.2267 11.043 95.214 11.157C95.214 11.271 95.2077 11.366 95.195 11.442C95.0937 13.4053 94.986 15.0773 94.872 16.458C94.7707 17.8387 94.6503 18.9787 94.511 19.878C94.3843 20.7647 94.2387 21.4677 94.074 21.987C93.922 22.4937 93.7383 22.861 93.523 23.089C93.295 23.3677 93.0543 23.5577 92.801 23.659C92.5603 23.7603 92.2563 23.83 91.889 23.868C91.5723 23.8933 91.129 23.8997 90.559 23.887C90.0017 23.8743 89.4317 23.8553 88.849 23.83C88.8363 23.6147 88.7857 23.3677 88.697 23.089C88.621 22.8103 88.507 22.5697 88.355 22.367C89.0137 22.4177 89.6153 22.4557 90.16 22.481C90.7173 22.4937 91.1163 22.5 91.357 22.5C91.5597 22.5 91.7243 22.481 91.851 22.443C91.9903 22.405 92.117 22.3227 92.231 22.196C92.4083 22.0313 92.5667 21.7083 92.706 21.227C92.858 20.733 92.991 20.049 93.105 19.175C93.2317 18.2883 93.3457 17.1737 93.447 15.831C93.561 14.4883 93.6687 12.8733 93.77 10.986V10.682ZM85.79 6.578H87.272V9.865C87.272 10.739 87.234 11.6637 87.158 12.639C87.082 13.6017 86.9173 14.5897 86.664 15.603C86.4107 16.6037 86.0243 17.6043 85.505 18.605C84.9857 19.6057 84.289 20.5747 83.415 21.512C82.541 22.4367 81.439 23.298 80.109 24.096C80.033 23.9693 79.9317 23.8363 79.805 23.697C79.6783 23.5577 79.5453 23.4183 79.406 23.279C79.2667 23.1523 79.1337 23.051 79.007 22.975C80.2737 22.215 81.3187 21.4043 82.142 20.543C82.978 19.6817 83.6367 18.795 84.118 17.883C84.612 16.9583 84.973 16.0337 85.201 15.109C85.4417 14.1843 85.6 13.2787 85.676 12.392C85.752 11.5053 85.79 10.663 85.79 9.865V6.578ZM106.937 7.395H114.309V15.736H106.937V14.482H112.922V8.649H106.937V7.395ZM106.842 10.929H113.549V12.126H106.842V10.929ZM110.224 14.995C110.503 16.1097 110.876 17.1673 111.345 18.168C111.826 19.156 112.396 20.03 113.055 20.79C113.726 21.55 114.493 22.1453 115.354 22.576C115.253 22.6647 115.132 22.7787 114.993 22.918C114.866 23.07 114.746 23.222 114.632 23.374C114.531 23.526 114.442 23.6717 114.366 23.811C113.467 23.279 112.669 22.5887 111.972 21.74C111.288 20.8787 110.699 19.897 110.205 18.795C109.724 17.6803 109.337 16.4897 109.046 15.223L110.224 14.995ZM114.138 16.344L115.088 17.351C114.569 17.7817 113.992 18.2123 113.359 18.643C112.738 19.0737 112.175 19.4347 111.668 19.726L110.87 18.814C111.212 18.6113 111.579 18.3707 111.972 18.092C112.377 17.8133 112.77 17.522 113.15 17.218C113.543 16.9013 113.872 16.61 114.138 16.344ZM105.949 24.058L105.816 22.804L106.462 22.272L110.756 21.075C110.756 21.265 110.769 21.4867 110.794 21.74C110.832 21.9807 110.864 22.177 110.889 22.329C109.876 22.633 109.065 22.88 108.457 23.07C107.862 23.2727 107.393 23.431 107.051 23.545C106.722 23.6717 106.475 23.773 106.31 23.849C106.158 23.925 106.038 23.9947 105.949 24.058ZM105.949 24.058C105.924 23.944 105.879 23.8047 105.816 23.64C105.765 23.488 105.702 23.336 105.626 23.184C105.563 23.0447 105.493 22.9243 105.417 22.823C105.582 22.747 105.753 22.6267 105.93 22.462C106.107 22.2847 106.196 22.0187 106.196 21.664V7.395H107.583V22.88C107.583 22.88 107.526 22.899 107.412 22.937C107.311 22.9877 107.178 23.0573 107.013 23.146C106.861 23.2347 106.696 23.3297 106.519 23.431C106.354 23.5323 106.215 23.6337 106.101 23.735C106 23.849 105.949 23.9567 105.949 24.058ZM99.147 11.385H104.296V12.62H99.147V11.385ZM98.14 14.691H104.98V15.964H98.14V14.691ZM98.615 17.199L99.622 16.933C99.812 17.503 99.983 18.1173 100.135 18.776C100.3 19.422 100.407 19.992 100.458 20.486L99.394 20.771C99.356 20.277 99.261 19.7007 99.109 19.042C98.957 18.3833 98.7923 17.769 98.615 17.199ZM97.912 22.044C98.4947 21.93 99.1723 21.797 99.945 21.645C100.718 21.4803 101.541 21.3093 102.415 21.132C103.302 20.942 104.188 20.7457 105.075 20.543L105.189 21.778C103.973 22.0567 102.757 22.3417 101.541 22.633C100.325 22.937 99.242 23.1967 98.292 23.412L97.912 22.044ZM103.726 16.667L104.847 17.009C104.67 17.5917 104.473 18.206 104.258 18.852C104.055 19.4853 103.859 20.0173 103.669 20.448L102.795 20.163C102.909 19.8463 103.023 19.4853 103.137 19.08C103.264 18.662 103.378 18.244 103.479 17.826C103.58 17.3953 103.663 17.009 103.726 16.667ZM101.047 11.86H102.32V22.082L101.047 22.291V11.86ZM101.75 6.578L102.947 6.996C102.58 7.68 102.143 8.35133 101.636 9.01C101.129 9.66867 100.591 10.2893 100.021 10.872C99.451 11.442 98.8747 11.9423 98.292 12.373C98.254 12.2717 98.197 12.1387 98.121 11.974C98.045 11.8093 97.9563 11.6447 97.855 11.48C97.7663 11.3027 97.684 11.1633 97.608 11.062C98.406 10.5173 99.1787 9.85233 99.926 9.067C100.673 8.28167 101.281 7.452 101.75 6.578ZM101.332 8.288L102.187 7.395C102.618 7.699 103.042 8.02833 103.46 8.383C103.891 8.73767 104.29 9.086 104.657 9.428C105.024 9.75733 105.341 10.0677 105.607 10.359L104.733 11.366C104.467 11.0747 104.144 10.7517 103.764 10.397C103.384 10.0297 102.985 9.66233 102.567 9.295C102.149 8.92767 101.737 8.592 101.332 8.288ZM124.265 7.68H133.613V9.048H124.265V7.68ZM129.832 13.342H131.276V22.196C131.276 22.6393 131.213 22.975 131.086 23.203C130.959 23.4437 130.738 23.6273 130.421 23.754C130.092 23.8553 129.642 23.9123 129.072 23.925C128.515 23.9503 127.767 23.963 126.83 23.963C126.805 23.773 126.748 23.545 126.659 23.279C126.57 23.013 126.469 22.7723 126.355 22.557C126.811 22.5697 127.242 22.5823 127.647 22.595C128.052 22.6077 128.407 22.6077 128.711 22.595C129.015 22.595 129.224 22.595 129.338 22.595C129.515 22.5823 129.642 22.5507 129.718 22.5C129.794 22.4367 129.832 22.329 129.832 22.177V13.342ZM123.429 12.924H134.145V14.292H123.429V12.924ZM119.648 14.406L120.902 13.152L121.054 13.228V24.077H119.648V14.406ZM121.833 10.606L123.182 11.1C122.701 11.898 122.143 12.696 121.51 13.494C120.877 14.292 120.212 15.0393 119.515 15.736C118.831 16.42 118.153 17.0343 117.482 17.579C117.406 17.4777 117.305 17.351 117.178 17.199C117.064 17.047 116.944 16.895 116.817 16.743C116.69 16.591 116.576 16.4707 116.475 16.382C117.134 15.9133 117.786 15.3687 118.432 14.748C119.091 14.1273 119.711 13.4623 120.294 12.753C120.889 12.0437 121.402 11.328 121.833 10.606ZM121.073 6.521L122.441 7.091C122.023 7.63567 121.535 8.19933 120.978 8.782C120.433 9.352 119.857 9.903 119.249 10.435C118.654 10.9543 118.071 11.4167 117.501 11.822C117.438 11.7207 117.355 11.6003 117.254 11.461C117.165 11.309 117.064 11.1633 116.95 11.024C116.849 10.872 116.754 10.758 116.665 10.682C117.197 10.3147 117.735 9.89667 118.28 9.428C118.837 8.95933 119.357 8.47167 119.838 7.965C120.332 7.45833 120.744 6.977 121.073 6.521Z" fill="black"/>
<defs>
<clipPath id="clip0_5_412">
<rect width="51" height="26" fill="white" transform="translate(0 1)"/>
</clipPath>
</defs>
</svg>
